<?xml version="1.0" encoding="utf-8"?>
<!-- Generator: Adobe Illustrator 22.0.1, SVG Export Plug-In . SVG Version: 6.00 Build 0)  -->
<svg version="1.1" id="Layer_2" xmlns="http://www.w3.org/2000/svg" xmlns:xlink="http://www.w3.org/1999/xlink" x="0px" y="0px"
	 viewBox="0 0 371.9 345.9" style="enable-background:new 0 0 371.9 345.9;" xml:space="preserve">
<style type="text/css">
	.st0{fill:#FFFFFF;}
</style>
<path class="st0" d="M48.6,37.1c72.4,0,144.8,0,217.2,0c0,27.8,0,55.5,0,83.4c-7.4-2.2-15-3.3-22.8-3.4c0-19,0-38,0-57.1
	c-57.2,0-114.4,0-171.5,0c0,68.6,0,137.1,0,205.8c26.4,0,52.9,0,79.2,0c-1.5,3.8-3.1,7.5-4.4,11.3c-1.4,3.8-2.5,7.6-3.8,11.6
	c-31.1,0-62.5,0-93.9,0C48.6,204.8,48.6,121,48.6,37.1z"/>
<path class="st0" d="M323,311.4c-7.7,0-15.2,0-22.8,0c-0.5-18.9-8-34.4-23.1-45.9c-10.9-8.2-23.4-11.9-37-11.2
	c-15.1,0.8-28.1,6.7-38.6,17.7c-10.4,11-15.5,24.2-15.8,39.3c-7.6,0-15.1,0-22.8,0c0.1-14.9,3.9-28.7,11.6-41.4
	c7.8-12.7,18.3-22.5,31.5-29.5c-14.6-13.3-21.9-29.5-19.9-49.3c1.5-15.6,8.7-28.4,20.7-38.4c23.1-19.3,57.3-16.9,78.2,5.6
	c20.9,22.4,21.2,59.3-5.1,82.1c13.2,7,23.7,16.8,31.5,29.5C319.1,282.7,322.9,296.5,323,311.4z M242.9,231.4
	c18.9-0.1,33.9-14.8,34.3-33.5c0.4-19.6-15-34.8-33.8-35.1c-19.3-0.3-34.5,14.8-34.8,33.7C208.3,216,223.7,231.4,242.9,231.4z"/>
<path class="st0" d="M94.3,105.5c0-7.6,0-15.1,0-22.7c15.2,0,30.4,0,45.6,0c0,7.5,0,15.1,0,22.7C124.8,105.5,109.6,105.5,94.3,105.5
	z"/>
<path class="st0" d="M220,105.6c-15.2,0-30.4,0-45.6,0c0-7.6,0-15.1,0-22.8c15.2,0,30.4,0,45.6,0C220,90.4,220,97.9,220,105.6z"/>
<path class="st0" d="M140,128.6c0,7.6,0,15.2,0,22.7c-15.2,0-30.4,0-45.6,0c0-7.5,0-15.1,0-22.7C109.5,128.6,124.7,128.6,140,128.6z
	"/>
<path class="st0" d="M94.3,197c0-7.6,0-15.1,0-22.7c15.2,0,30.4,0,45.6,0c0,7.6,0,15.1,0,22.7C124.8,197,109.6,197,94.3,197z"/>
<path class="st0" d="M94.4,220.1c15.2,0,30.4,0,45.6,0c0,7.6,0,15.1,0,22.7c-15.2,0-30.3,0-45.6,0C94.4,235.3,94.4,227.7,94.4,220.1
	z"/>
<path class="st0" d="M174.4,128.5c9.1,0,18.1,0,27.3,0c-0.4,0.3-0.6,0.5-0.8,0.6c-8.6,5.3-15.9,12-21.9,20.1c-1.2,1.7-2.4,2.6-4.5,2
	C174.4,143.8,174.4,136.2,174.4,128.5z"/>
</svg>
