<?xml version="1.0" encoding="utf-8"?>
<!-- Generator: Adobe Illustrator 22.0.1, SVG Export Plug-In . SVG Version: 6.00 Build 0)  -->
<svg version="1.1" id="Layer_1" xmlns="http://www.w3.org/2000/svg" xmlns:xlink="http://www.w3.org/1999/xlink" x="0px" y="0px"
	 viewBox="0 0 7.8 7.9" style="enable-background:new 0 0 7.8 7.9;" xml:space="preserve">
<style type="text/css">
	.st0{fill:#7B7B7B;}
</style>
<title>_385479528@3x</title>
<desc>Created with Sketch.</desc>
<g>
	<path class="st0" d="M1.2,5.7C1.2,5.7,1.2,5.7,1.2,5.7c0.5-0.6,1-1.1,1.6-1.6C2.8,4,3,4,3.2,4.1c0.1,0.1,0.2,0.3,0,0.5
		C3.1,4.7,3,4.8,2.9,4.8C2.5,5.3,2,5.7,1.6,6.2c0,0,0,0-0.1,0.1c0,0,0.1,0,0.1,0c0.4,0,0.8,0,1.2,0c0.2,0,0.3,0.1,0.3,0.3
		c0,0,0,0.1,0,0.1c0,0.1-0.1,0.2-0.3,0.2c-0.5,0-1,0-1.5,0c-0.1,0-0.3,0-0.4,0c-0.2,0-0.4-0.2-0.4-0.5c0-0.6,0-1.2,0-1.8
		c0-0.1,0.1-0.3,0.3-0.2c0,0,0.1,0,0.1,0c0.2,0,0.3,0.1,0.3,0.3c0,0.3,0,0.7,0,1C1.1,5.6,1.1,5.7,1.2,5.7C1.1,5.7,1.1,5.7,1.2,5.7z"
		/>
	<path class="st0" d="M1.5,1.2c0.1,0.1,0.2,0.2,0.4,0.3C2.3,2,2.7,2.4,3.2,2.8C3.3,2.9,3.3,3,3.3,3.1C3.2,3.4,2.9,3.5,2.7,3.3
		C2.5,3.1,2.3,2.9,2.1,2.7c-0.3-0.3-0.6-0.6-1-1c0,0,0,0-0.1,0c0,0,0,0.1,0,0.1c0,0.4,0,0.7,0,1.1C1.1,3,1,3.1,0.8,3.1
		c0,0-0.1,0-0.1,0C0.6,3.1,0.5,3,0.5,2.9c0-0.4,0-0.7,0-1.1c0-0.2,0-0.5,0-0.7c0-0.3,0.2-0.5,0.5-0.5c0.6,0,1.2,0,1.8,0
		c0.2,0,0.3,0.1,0.3,0.3c0,0,0,0,0,0.1c0,0.2-0.1,0.3-0.3,0.3c-0.1,0-0.3,0-0.4,0C2.1,1.2,1.9,1.2,1.5,1.2C1.6,1.2,1.6,1.2,1.5,1.2
		C1.5,1.2,1.5,1.2,1.5,1.2z"/>
	<path class="st0" d="M5.9,6.2C5.7,6.1,5.5,5.9,5.4,5.8C5,5.4,4.6,5,4.2,4.6c-0.1-0.1-0.1-0.3,0-0.5C4.3,4,4.5,4,4.7,4.1
		c0.5,0.5,1,1,1.5,1.5c0,0,0,0,0,0.1c0,0,0,0,0,0c0,0,0,0,0-0.1c0-0.4,0-0.7,0-1.1c0-0.1,0.1-0.2,0.2-0.3c0.1,0,0.2,0,0.3,0
		c0.1,0,0.2,0.1,0.2,0.3c0,0.3,0,0.6,0,1c0,0.3,0,0.5,0,0.8c0,0.3-0.2,0.5-0.5,0.5c-0.6,0-1.2,0-1.8,0c-0.2,0-0.3-0.1-0.3-0.3
		c0,0,0-0.1,0-0.1c0-0.2,0.1-0.3,0.3-0.3C5,6.2,5.4,6.3,5.9,6.2C5.8,6.3,5.8,6.3,5.9,6.2C5.9,6.2,5.9,6.2,5.9,6.2z"/>
	<path class="st0" d="M5.8,1.2C5.8,1.2,5.8,1.2,5.8,1.2c-0.5,0-0.8,0-1.2,0c-0.2,0-0.3-0.1-0.3-0.3c0,0,0-0.1,0-0.1
		c0-0.1,0.1-0.2,0.2-0.2c0.6,0,1.2,0,1.9,0c0.2,0,0.5,0.2,0.5,0.5c0,0.3,0,0.6,0,0.9c0,0.3,0,0.6,0,1c0,0.2-0.1,0.3-0.3,0.3
		c0,0,0,0-0.1,0C6.4,3.1,6.3,3,6.3,2.9c0-0.2,0-0.4,0-0.6c0-0.1,0-0.3,0-0.4c0,0,0,0,0-0.1c0,0,0,0,0,0c0,0,0,0,0,0.1
		c-0.5,0.5-1,1-1.5,1.5C4.6,3.4,4.5,3.4,4.4,3.4C4.1,3.3,4,3,4.2,2.8c0,0,0,0,0.1-0.1C4.8,2.3,5.3,1.7,5.8,1.2
		C5.8,1.2,5.8,1.2,5.8,1.2C5.9,1.2,5.9,1.2,5.8,1.2z"/>
</g>
</svg>
