<?xml version="1.0" encoding="utf-8"?>
<!-- Generator: Adobe Illustrator 22.0.1, SVG Export Plug-In . SVG Version: 6.00 Build 0)  -->
<svg version="1.1" id="Layer_1" xmlns="http://www.w3.org/2000/svg" xmlns:xlink="http://www.w3.org/1999/xlink" x="0px" y="0px"
	 viewBox="0 0 116.8 112.2" style="enable-background:new 0 0 116.8 112.2;" xml:space="preserve">
<style type="text/css">
	.st0{fill:#004DB7;}
	.st1{fill:#26A9E0;}
</style>
<path class="st0" d="M37.2,30.9c9.1,0,18.1,0,27.2,0c0,0.8,0,1.6,0,2.4c0.1,1.9,1.1,3.2,2.8,3.9c1.7,0.7,3.4,0.4,4.8-0.8
	c1-0.9,1.4-2,1.5-3.2c0-0.7,0-1.5,0-2.2c3.9-0.8,6.7,1.4,6.8,4.9c0.1,5.8,0,11.5,0,17.3c0,0.1,0,0.1-0.1,0.3c-1.5,0-2.9,0-4.5,0
	c0-3,0-5.9,0-8.9c-16.6,0-33.2,0-49.9,0c0,0.3,0,0.6,0,0.8c0,9.9,0,19.9,0,29.8c0,1.1,0,1.1,1.1,1.1c8.4,0,16.8,0,25.1,0
	c0.3,0,0.6,0,0.9,0c0,1.5,0,3,0,4.5c-0.3,0-0.5,0-0.8,0c-8.5,0-17,0-25.4,0c-3.3,0-5.4-2.1-5.4-5.4c0-12.9,0-25.9,0-38.8
	c0-3.6,2-5.6,5.6-5.6c0.4,0,0.8,0,1.3,0c0,0.9,0,1.7,0,2.6c0.1,2.1,1.7,3.8,3.7,4.1c2,0.4,4.1-0.7,4.9-2.6c0.3-0.6,0.4-1.3,0.4-2
	C37.2,32.3,37.2,31.7,37.2,30.9z"/>
<path class="st1" d="M75.8,94.3c-9.9,0.1-18.1-8-18.2-18c-0.1-9.9,8.1-18.1,18.1-18.2c9.9-0.1,18,8,18.2,18
	C93.9,86,85.8,94.2,75.8,94.3z M62.1,76.2c0,7.5,6.1,13.6,13.6,13.6c7.5,0,13.6-6.1,13.6-13.6c0-7.5-6.1-13.6-13.6-13.6
	C68.2,62.6,62.1,68.7,62.1,76.2z"/>
<path class="st0" d="M39.4,49.1c0,3,0,5.9,0,8.9c-3,0-5.9,0-8.9,0c0-3,0-5.9,0-8.9C33.5,49.1,36.4,49.1,39.4,49.1z"/>
<path class="st0" d="M44.1,49c3,0,5.9,0,8.9,0c0,3,0,5.9,0,8.9c-3,0-5.9,0-8.9,0C44.1,55,44.1,52.1,44.1,49z"/>
<path class="st0" d="M57.6,58c0-3,0-5.9,0-8.9c3,0,5.9,0,8.9,0c0,3,0,5.9,0,8.9C63.6,58,60.6,58,57.6,58z"/>
<path class="st0" d="M30.5,71.5c0-3,0-5.9,0-8.9c3,0,5.9,0,9,0c0,3,0,5.9,0,8.9C36.4,71.5,33.5,71.5,30.5,71.5z"/>
<path class="st0" d="M53,62.7c0,3,0,5.9,0,8.9c-3,0-5.9,0-8.9,0c0-2.9,0-5.9,0-8.9C47,62.7,50,62.7,53,62.7z"/>
<path class="st0" d="M34.9,28.6c0,1.5,0,2.9,0,4.4c0,1.4-0.9,2.4-2.2,2.4c-1.3,0-2.2-0.9-2.2-2.3c0-3,0-5.9,0-8.9
	c0-1.4,1-2.4,2.3-2.3c1.3,0,2.2,1,2.2,2.4C34.9,25.7,34.9,27.1,34.9,28.6z"/>
<path class="st0" d="M71.2,28.6c0,1.5,0,2.9,0,4.4c0,1.4-0.9,2.4-2.2,2.4c-1.3,0-2.2-0.9-2.2-2.3c0-3,0-6,0-9c0-1.3,1-2.3,2.3-2.3
	c1.3,0,2.2,1,2.2,2.3C71.2,25.6,71.2,27.1,71.2,28.6z"/>
<path class="st1" d="M74.1,79.8c0.2-0.2,0.4-0.4,0.6-0.6c2.3-2.3,4.7-4.7,7-7c0.2-0.2,0.5-0.5,0.7-0.7c0.9-0.6,2.1-0.5,2.9,0.3
	c0.7,0.7,0.9,1.9,0.3,2.8c-0.2,0.2-0.4,0.5-0.6,0.7c-3,3-6,6-8.9,8.9c-1.4,1.4-2.5,1.4-3.9,0c-2-2-4-4-6-6c-1.3-1.3-0.9-3.3,0.8-3.8
	c0.9-0.3,1.7,0,2.4,0.7c1.4,1.4,2.7,2.7,4.1,4.1C73.7,79.4,73.9,79.5,74.1,79.8z"/>
</svg>
