<svg id="Layer_1" data-name="Layer 1" xmlns="http://www.w3.org/2000/svg" viewBox="0 0 254.65 219.14"><defs><style>.cls-1{fill:#fff;}</style></defs><title>filter</title><path class="cls-1" d="M410.26,71.1c-1.41-4.38-5.17-6.92-10.56-6.94-10.33,0-20.66-.08-31,0-2.26,0-3.25-.65-4.21-2.77-5.93-13-16.09-19.93-30.44-20.13a32.23,32.23,0,0,0-30.37,20.21c-.83,2-1.79,2.7-4,2.69q-42.7-.12-85.43-.06-23.31,0-46.62,0c-5.86,0-10,3-11,7.83-1.41,6.72,3.27,12.25,10.58,12.26q47.93.06,95.86,0h39.36c.3.65.56,1.16.78,1.69,5.27,13,17.1,21.25,30.62,21.35a33,33,0,0,0,30.93-20.84,3,3,0,0,1,3.38-2.24q16.22.12,32.43,0A10,10,0,0,0,410.26,71.1ZM333.88,97A23.12,23.12,0,1,1,357,73.92,23.11,23.11,0,0,1,333.88,97Z" transform="translate(-156.12 -41.29)"/><path class="cls-1" d="M403.77,141.33a18.36,18.36,0,0,0-5.15-.47q-73.83,0-147.66,0c-1.58,0-2.74,0-3.55-1.95-5.39-13.13-17.16-21.12-30.72-21.08-13.71,0-25.36,7.94-30.77,21a2.69,2.69,0,0,1-2.95,2c-5.4-.1-10.81-.08-16.21,0-6.1.09-10.45,4.33-10.42,10s4.4,9.85,10.54,9.91c5.12.05,10.24.14,15.34,0,2.22-.08,3.16.72,4,2.71a32.94,32.94,0,0,0,60.92,0c.91-2.23,2.07-2.68,4.25-2.68q37.06.1,74.12.05H346c18.25,0,36.49,0,54.73,0a9.74,9.74,0,0,0,9.91-8.71A9.87,9.87,0,0,0,403.77,141.33ZM216.88,174A23.12,23.12,0,1,1,240,150.85,23.11,23.11,0,0,1,216.88,174Z" transform="translate(-156.12 -41.29)"/><path class="cls-1" d="M399.77,217.48c-10.52,0-21-.07-31.56.05-2,0-2.82-.65-3.54-2.43a32.92,32.92,0,0,0-61-.19c-.83,2-1.83,2.63-4,2.62-22.1-.09-44.21-.06-66.31-.06H223.2c-18.92,0-37.83,0-56.75,0a10,10,0,0,0-9.65,13.57c1.63,4.33,5.4,6.54,11.15,6.54q65.72,0,131.45,0c2.35,0,3.39.69,4.41,2.91,5.9,12.86,16,19.73,30.24,20a32.34,32.34,0,0,0,30.46-20.1c.8-1.93,1.63-2.83,3.9-2.8,10.51.14,21,.13,31.55,0,6.31,0,10.69-4.35,10.66-10.17S406.13,217.49,399.77,217.48Zm-65.89,33.07A23.12,23.12,0,1,1,357,227.43,23.12,23.12,0,0,1,333.88,250.55Z" transform="translate(-156.12 -41.29)"/></svg>