<?xml version="1.0" encoding="UTF-8"?>
<svg width="21px" height="21px" viewBox="0 0 21 21" version="1.1" xmlns="http://www.w3.org/2000/svg" xmlns:xlink="http://www.w3.org/1999/xlink">
    <!-- Generator: Sketch 48.2 (47327) - http://www.bohemiancoding.com/sketch -->
    <title>12</title>
    <desc>Created with Sketch.</desc>
    <defs></defs>
    <g id="Facility-List-page" stroke="none" stroke-width="1" fill="none" fill-rule="evenodd" transform="translate(-1047.000000, -200.000000)">
        <g id="12" transform="translate(1057.500000, 210.500000) scale(-1, -1) rotate(90.000000) translate(-1057.500000, -210.500000) translate(1047.000000, 200.000000)" fill="#FFFFFF" fill-rule="nonzero">
            <path d="M6.59193983,9.95736302 C8.34190665,9.95736302 10.0918735,9.94564236 11.8418403,9.96908368 C12.2035001,9.96908368 12.4134961,9.88703905 12.6118257,9.53541922 C13.7551374,7.49602421 16.5550843,7.48430355 17.7217288,9.52369856 C17.9083919,9.86359773 18.1067215,10.0042457 18.4917142,9.98080434 C18.9700385,9.94564236 19.4600292,9.95736302 19.9500199,9.98080434 C20.5916744,10.0159663 21,10.4261895 21,11.0122225 C21,11.5865349 20.5916744,11.9615961 19.926687,12.0084787 C19.7866897,12.0201994 19.6583588,12.0201994 19.5183614,12.0084787 C18.6200451,11.9147134 17.9783906,12.0788027 17.3484026,12.9461316 C16.181758,14.5518621 13.6851387,14.2588456 12.6818244,12.5007465 C12.4484955,12.0788027 12.1918337,12.0084787 11.7718416,12.0084787 C8.33024021,12.0201994 4.88863879,12.0201994 1.44703737,12.0084787 C1.20204202,12.0084787 0.93371377,12.0084787 0.700384861,11.9381547 C0.233727041,11.8092275 -0.0112683139,11.4576076 0.000398131558,10.9770605 C0.012064577,10.4965134 0.245393487,10.1448936 0.723717751,10.0394076 C1.00371244,9.96908368 1.30704003,9.98080434 1.58703472,9.98080434 C3.24366998,9.95736302 4.91197168,9.95736302 6.59193983,9.95736302 Z" id="Shape"></path>
            <path d="M14.3384106,19.003892 C12.5300983,19.003892 10.7217859,19.0157725 8.91347359,18.9920115 C8.57514418,18.9920115 8.36514662,19.0514139 8.17848211,19.4078279 C7.64182168,20.4651894 6.74349877,21.0116908 5.57684564,20.9998104 C4.41019251,20.9879299 3.55853572,20.4176675 2.98687569,19.3721865 C2.89354344,19.1939795 2.62521322,19.0395334 2.42688219,19.0157725 C1.97188747,18.9682506 1.49355969,19.0157725 1.02689843,18.9920115 C0.420238808,18.9682506 0.0119102128,18.5761952 0.000243681517,18.0059328 C-0.0114228498,17.4594314 0.396905745,17.0198541 0.991898841,16.9842127 C1.45856009,16.9604518 1.92522134,17.0079737 2.3918826,16.9604518 C2.59021363,16.9366909 2.85854385,16.7941253 2.96354263,16.6277987 C3.57020226,15.5823177 4.43352557,14.9882944 5.62351176,15.0001749 C6.79016489,15.0120553 7.67682127,15.5823177 8.20181518,16.6396792 C8.37681315,16.9960932 8.61014377,16.9842127 8.91347359,16.9842127 C12.4484326,16.9842127 15.9833915,16.9842127 19.5183505,16.9842127 C19.6933485,16.9842127 19.8683465,16.9723323 20.0433444,16.9960932 C20.6033379,17.0554955 21,17.4831923 21,18.0059328 C21,18.5643148 20.5916714,19.003892 19.9850118,19.003892 C18.1067002,19.0157725 16.2283887,19.003892 14.3384106,19.003892 C14.3384106,19.003892 14.3384106,19.003892 14.3384106,19.003892 Z" id="Shape"></path>
            <path d="M4.19141941,2.01289574 C5.18357857,2.01289574 6.17573773,2.00099394 7.16789689,2.02479754 C7.54141563,2.03669935 7.73984747,1.92958311 7.9382793,1.572529 C9.09385291,-0.522188461 11.9069159,-0.522188461 13.074162,1.5606272 C13.2609214,1.8819759 13.4476808,1.98909213 13.7978546,1.98909213 C15.6771208,1.97719033 17.5680594,1.97719033 19.4473256,1.97719033 C19.6224125,1.97719033 19.7974994,1.96528852 19.9725863,1.97719033 C20.5912267,2.01289574 20.9880904,2.39375346 20.9997628,2.96504004 C21.0114353,3.54822843 20.5912267,4.00049697 19.9609138,4.01239877 C19.1204967,4.03620238 18.291752,4.02430058 17.4513348,4.02430058 C16.2023815,4.02430058 14.9651007,4.03620238 13.7161474,4.01239877 C13.4126634,4.01239877 13.2375765,4.0957114 13.0858345,4.38135469 C12.5372288,5.42871342 11.6501218,6 10.4945482,6 C9.32730213,6 8.44019511,5.44061522 7.90326192,4.39325649 C7.72817501,4.06000599 7.51807071,4.01239877 7.21458673,4.02430058 C5.28863072,4.03620238 3.3626747,4.02430058 1.44839114,4.02430058 C1.27330423,4.02430058 1.09821732,4.03620238 0.923130406,4.01239877 C0.362852292,3.94098795 -0.0223389121,3.50062121 0.00100600929,2.97694184 C0.0243509307,2.42945887 0.409542135,2.02479754 0.993165171,2.01289574 C2.04368664,2.00099394 3.11755302,2.01289574 4.19141941,2.01289574 C4.19141941,2.01289574 4.19141941,2.01289574 4.19141941,2.01289574 Z" id="Shape"></path>
        </g>
    </g>
</svg>