<?xml version="1.0" encoding="UTF-8"?>
<svg width="8px" height="12px" viewBox="0 0 8 12" version="1.1" xmlns="http://www.w3.org/2000/svg" xmlns:xlink="http://www.w3.org/1999/xlink">
    <!-- Generator: Sketch 48.2 (47327) - http://www.bohemiancoding.com/sketch -->
    <title>Shape</title>
    <desc>Created with Sketch.</desc>
    <defs></defs>
    <g id="Facility-details-page" stroke="none" stroke-width="1" fill="none" fill-rule="evenodd" transform="translate(-1232.000000, -356.000000)">
        <g id="Group-4" transform="translate(937.000000, 280.000000)" fill="#000000" fill-rule="nonzero">
            <path d="M303,76.0018237 C302.876427,76.1914894 302.752854,76.3829787 302.629281,76.5726444 C302.514663,76.7477204 302.400045,76.9227964 302.287217,77.099696 C302.269308,77.1270517 302.251399,77.1361702 302.220954,77.1361702 C301.608462,77.1343465 300.99597,77.1361702 300.381688,77.1361702 C300.367361,77.1361702 300.353033,77.1361702 300.331542,77.1361702 C300.372733,77.187234 300.410343,77.2328267 300.44437,77.2802432 C300.662861,77.5775076 300.800761,77.9094225 300.875979,78.2705167 C300.884934,78.312462 300.899261,78.325228 300.942243,78.325228 C301.608462,78.3234043 302.274681,78.3234043 302.9409,78.3234043 C302.957018,78.3234043 302.974927,78.3234043 302.998209,78.3234043 C302.987464,78.3416413 302.982091,78.3525836 302.974927,78.3635258 C302.7439,78.7173252 302.512872,79.0693009 302.283636,79.4231003 C302.267517,79.4486322 302.249608,79.4577508 302.219163,79.4577508 C301.796508,79.4559271 301.372062,79.4577508 300.949407,79.4559271 C300.918961,79.4559271 300.904634,79.4613982 300.899261,79.4960486 C300.813298,80.0851064 300.573315,80.6030395 300.186479,81.049848 C299.792478,81.5039514 299.303559,81.8212766 298.755541,82.0455927 C298.334677,82.218845 297.897694,82.3246201 297.446385,82.3738602 C297.351466,82.3848024 297.254757,82.3920973 297.150884,82.4012158 C298.61764,84.2668693 300.080815,86.1306991 301.551153,88 C301.529662,88 301.517126,88 301.504589,88 C300.902843,88 300.301097,88 299.69756,88 C299.667114,88 299.649205,87.9908815 299.631296,87.9671733 C298.236176,86.1908815 296.842848,84.4145897 295.445937,82.6401216 C295.415491,82.6 295.401164,82.5617021 295.402955,82.512462 C295.404746,82.2006079 295.402955,81.8869301 295.402955,81.575076 C295.402955,81.5604863 295.402955,81.5458967 295.402955,81.5276596 C295.422655,81.5276596 295.438773,81.5276596 295.454891,81.5276596 C295.856056,81.5276596 296.255429,81.5331307 296.656593,81.5240122 C297.136557,81.5130699 297.603985,81.4328267 298.048131,81.23769 C298.472577,81.0516717 298.825386,80.7744681 299.067159,80.3677812 C299.224759,80.1015198 299.314305,79.8133739 299.323259,79.499696 C299.323259,79.4869301 299.323259,79.4759878 299.323259,79.4577508 C297.885158,79.4577508 296.447056,79.4577508 295.001791,79.4577508 C295.012536,79.43769 295.0197,79.4267477 295.026864,79.4139818 C295.2561,79.0620061 295.487128,78.7100304 295.716364,78.3580547 C295.734274,78.3306991 295.752183,78.3215805 295.784419,78.3215805 C296.898366,78.3215805 298.010522,78.3215805 299.124468,78.3215805 C299.142377,78.3215805 299.158496,78.3215805 299.183568,78.3215805 C299.174614,78.3015198 299.169241,78.2869301 299.162077,78.2705167 C298.975823,77.8674772 298.673159,77.5866261 298.273786,77.4133739 C298.017685,77.300304 297.747258,77.2382979 297.471457,77.2 C297.086411,77.1452888 296.697784,77.1361702 296.309156,77.1343465 C295.890083,77.1343465 295.47101,77.1343465 295.051936,77.1343465 C295.037609,77.1343465 295.023282,77.1343465 295,77.1343465 C295.248937,76.7531915 295.494291,76.3775076 295.737855,76 C298.162749,76.0018237 300.580479,76.0018237 303,76.0018237 Z" id="Shape"></path>
        </g>
    </g>
</svg>