<?xml version="1.0" encoding="UTF-8"?>
<svg width="17px" height="23px" viewBox="0 0 17 23" version="1.1" xmlns="http://www.w3.org/2000/svg" xmlns:xlink="http://www.w3.org/1999/xlink">
    <!-- Generator: Sketch 48.1 (47250) - http://www.bohemiancoding.com/sketch -->
    <title>Group 14 Copy 2</title>
    <desc>Created with Sketch.</desc>
    <defs></defs>
    <g id="Facility-List-page" stroke="none" stroke-width="1" fill="none" fill-rule="evenodd" transform="translate(-1211.000000, -731.000000)">
        <g id="Group-14-Copy-2" transform="translate(1211.000000, 731.000000)" fill="#767676" fill-rule="nonzero">
            <path d="M13.0430979,11.9878652 C9.64573391,11.3811264 6.27410753,11.3811264 2.87674355,12 C2.83813714,11.5752828 2.78666193,11.1505657 2.74805552,10.7379833 C2.52928587,8.54158878 2.31051622,6.35732906 2.10461537,4.16093456 C2.05314016,3.62700441 1.98879615,3.08093948 2.00166495,2.53487455 C2.02740256,1.21218394 3.26280764,0.0472454276 4.65263836,0.0229758752 C6.87894127,-0.00129367723 9.10524418,-0.0134284534 11.3315471,0.0229758752 C12.9272787,0.0472454276 14.1626837,1.50341857 13.9825205,3.03240038 C13.7894885,4.7555386 13.622194,6.4908116 13.4420308,8.21394982 C13.3262116,9.39102311 13.1975235,10.5559616 13.0817043,11.7330349 C13.0817043,11.8179784 13.0559667,11.9029218 13.0430979,11.9878652 Z" id="Shape"></path>
            <path d="M0.014114364,11 C0.478603478,11 0.930869195,11 1.35868812,11 C1.4564753,11.3760684 1.52981568,11.7293447 1.63982626,12.0826211 C1.74983684,12.3903134 1.92096441,12.6866097 2.23877275,12.8575499 C2.34878333,12.9145299 2.5076875,12.9487179 2.62992148,12.9145299 C4.78123948,12.4586895 6.95700428,12.3903134 9.14499248,12.5042735 C10.2450983,12.5612536 11.3329807,12.6866097 12.4086397,12.9373219 C12.4942035,12.960114 12.6164374,12.9259259 12.7020012,12.8917379 C13.0442564,12.7435897 13.2398307,12.4700855 13.3376179,12.1509972 C13.4476285,11.7977208 13.5209689,11.4216524 13.6187561,11.034188 C14.046575,11.034188 14.5110641,11.034188 15,11.034188 C15,11.4102564 15,11.7863248 15,12.1623932 C15,12.6182336 15,13.0626781 15,13.5185185 C15,14.4415954 14.4132769,15 13.4231817,15 C11.9319272,15 10.4284492,15 8.93719472,15 C6.50473857,15 4.06005902,15 1.62760287,15 C0.979762786,15 0.454156683,14.7948718 0.173018535,14.2364672 C0.0752313527,14.0541311 0.0263377617,13.8262108 0.0263377617,13.6210826 C0.014114364,12.7891738 0.014114364,11.957265 0.014114364,11.1139601 C-0.0103324315,11.0797721 0.00189096621,11.045584 0.014114364,11 Z" id="Shape"></path>
            <path d="M12.0339977,19.8524387 C10.8975748,19.2986506 9.71330249,19.1180676 8.46921849,19.0578732 C8.46921849,19.5875835 8.45725614,20.0932161 8.48118083,20.6108876 C8.48118083,20.6710819 8.58884195,20.7433151 8.66061603,20.7914706 C9.07929814,21.0804035 9.28265803,21.5860361 9.16303457,22.0555521 C9.04341111,22.5732235 8.63669133,22.9343897 8.09838576,22.994584 C7.63185426,23.0427395 7.14139806,22.7658455 6.91411348,22.3204072 C6.63897952,21.7666192 6.81841472,21.1044813 7.35672029,20.7673929 C7.47634376,20.6951597 7.51223079,20.6229264 7.51223079,20.4904989 C7.51223079,20.0209829 7.51223079,19.5394281 7.51223079,19.0458343 C6.26814679,19.0939898 5.07191217,19.2866118 3.99530102,19.8042832 C4.12688682,20.0811772 4.28239732,20.3460324 4.3541714,20.6229264 C4.47379486,21.1165201 4.21062325,21.598075 3.77997878,21.8388524 C3.33737198,22.0916687 2.81102874,22.0435132 2.41627132,21.7064248 C2.04543859,21.3934142 1.90189043,20.8637039 2.06936328,20.3941879 C2.27272317,19.8163221 2.70336763,19.4431171 3.20578617,19.1421453 C4.15081152,18.5763184 5.20349798,18.335541 6.29207148,18.1790356 C6.36384556,18.1669968 6.43561964,18.1669968 6.49543137,18.1549579 C6.56720545,18.142919 6.62701718,18.1308802 6.7107536,18.1188413 C6.7107536,17.4205868 6.7107536,16.7102934 6.7107536,16 C7.56008018,16 8.38548207,16 9.24677099,16 C9.24677099,16.6982545 9.24677099,17.396509 9.24677099,18.1188413 C9.67741545,18.1910745 10.0960976,18.2512689 10.5147797,18.335541 C11.4358803,18.5281629 12.3330563,18.8050569 13.0986465,19.3949616 C13.3737804,19.6116613 13.6130273,19.8885553 13.8044249,20.1895271 C14.1632953,20.7071985 14.0077848,21.4174919 13.5053662,21.7906969 C13.01491,22.151863 12.3091316,22.0796298 11.9024118,21.6221527 C11.4837297,21.1405979 11.4956921,20.4543822 11.9382989,19.9848663 C11.9502612,19.9367108 11.9861483,19.9005942 12.0339977,19.8524387 Z" id="Shape"></path>
            <path d="M14,10.9932297 C14,10.1706323 14.4080233,9.42420132 15.0262404,9.13476891 C15.6444575,8.83010321 16.4110467,9.05860248 16.8314343,9.65270059 C17.0045351,9.89643315 17.0416281,10.1858656 16.9550777,10.475298 C16.8685273,10.7799637 16.6706979,10.9779964 16.423411,10.9932297 C15.6197288,11.0084629 14.8160466,10.9932297 14,10.9932297 Z" id="Shape"></path>
        </g>
    </g>
</svg>