<?xml version="1.0" encoding="UTF-8"?>
<svg width="28px" height="33px" viewBox="0 0 28 33" version="1.1" xmlns="http://www.w3.org/2000/svg" xmlns:xlink="http://www.w3.org/1999/xlink">
    <!-- Generator: Sketch 48.2 (47327) - http://www.bohemiancoding.com/sketch -->
    <title>certified copy 3</title>
    <desc>Created with Sketch.</desc>
    <defs></defs>
    <g id="Admin--Dashboard" stroke="none" stroke-width="1" fill="none" fill-rule="evenodd" transform="translate(-991.000000, -306.000000)">
        <g id="certified-copy-3" transform="translate(991.000000, 306.000000)" fill-rule="nonzero">
            <path d="M14.0363609,26.9921366 C13.1543488,27.0793708 12.7492869,26.4231009 12.2737192,25.9010375 C11.8748318,25.4737219 11.5053748,25.0213612 11.1677479,24.5468936 C10.9617608,24.2529813 10.7792755,24.2502971 10.4765159,24.3818195 C9.79357859,24.6837842 9.09405174,24.9683021 8.40281969,25.2447675 C7.37564885,25.6473871 6.50054907,25.1696119 6.21299653,24.1254851 C6.03189373,23.4678731 6.1065468,22.8008666 6.00977431,22.1405705 C5.89917718,21.3930401 5.45678866,21.2655439 4.8388272,21.2185716 C4.1572724,21.166231 3.46465787,21.1568366 2.80936989,20.9501585 C1.92735778,20.6817454 1.63151046,20.1543138 1.79602369,19.2819713 C1.92182792,18.6203331 2.22182264,18.023114 2.5121401,17.4245529 C2.92687933,16.5522104 2.90199498,16.4072674 2.07666391,15.8409158 C1.49879018,15.4459207 0.963789606,14.9949037 0.479917854,14.4948243 C-0.180899992,13.8076868 -0.15325071,13.152759 0.52553917,12.4522009 C1.07852482,11.8818231 1.76007962,11.4657829 2.39463065,10.9947179 C2.80936989,10.6820167 2.88125802,10.3397901 2.68218319,9.89422436 C2.41951501,9.30505769 2.19693828,8.69844416 1.91353314,8.120014 C1.38819678,7.04636174 2.00615824,6.20757092 3.23102144,5.94855231 C3.70212494,5.84718209 4.18349345,5.7976607 4.66601919,5.80092512 C6.06645534,5.81702991 5.94479849,5.32449193 6.08304491,4.39846686 C6.15769797,3.91934954 6.14387333,3.42681156 6.23096857,2.94098392 C6.42451354,1.86733166 7.29546593,1.36405716 8.36272823,1.75996643 C9.04428304,2.01361678 9.7161606,2.28202984 10.3686837,2.58802074 C10.7834229,2.77725195 11.0350314,2.64707161 11.3059943,2.34108072 C11.8147411,1.76936089 12.204596,1.10772268 12.7700238,0.577606879 C13.6257691,-0.227632316 14.6252907,-0.195422748 15.3759687,0.702418954 C15.7907079,1.20166726 16.2054471,1.71031001 16.57733,2.24176788 C16.9160337,2.7249114 17.3238606,2.75041064 17.8132529,2.52896986 C18.2680836,2.32363387 18.7146195,2.10085102 19.1763625,1.91430394 C20.6832484,1.30634835 21.6647979,1.63649642 21.8514306,3.45499494 C21.9011993,3.93948052 21.9426732,4.42530816 21.9786173,4.91247788 C22.0228561,5.50701282 22.3546475,5.81837197 22.9587843,5.78079414 C23.5598128,5.75389097 24.1617209,5.81037966 24.7463104,5.94855231 C25.7997481,6.17938754 26.6043422,6.65447867 26.0845357,8.16967042 C25.8758355,8.7556554 25.6216548,9.32543044 25.3241804,9.87409338 C25.0767194,10.3438162 25.185934,10.6793326 25.6006733,10.9665346 C26.0776234,11.3101033 26.5490436,11.6617244 27.0287587,11.9999249 C28.2729764,12.8722673 28.3296574,13.9620244 27.1531805,14.9175749 C26.6040005,15.3505007 26.0283012,15.7507223 25.4292477,16.1160392 C25.1168108,16.3119807 25.0794843,16.4837651 25.2329378,16.8058608 C25.5951434,17.5654698 25.9822334,18.3210525 26.1536589,19.151791 C26.3900603,20.2992568 25.8536642,20.9729736 24.646773,21.0883912 C23.9652182,21.1528104 23.2878108,21.2548073 22.6076385,21.329963 C22.1500428,21.3809615 21.9979718,21.6480325 21.9924419,22.0627307 C21.9732668,22.7725664 21.8843866,23.4790081 21.7270088,24.1724574 C21.507197,25.1951111 20.7592839,25.6124934 19.7390254,25.2595303 C18.9869649,25.0005117 18.2459642,24.7106255 17.5146407,24.4006085 C17.1925265,24.2664019 17.000364,24.2664019 16.7764048,24.5777611 C16.3616656,25.1629016 15.9054524,25.7185166 15.4367971,26.2633951 C15.0690616,26.6794354 14.6653821,27.0471613 14.0363609,26.9921366 Z" id="Shape" fill="#767676"></path>
            <path d="M25.6984573,29.3453368 C24.8812759,29.2538064 24.0240366,29.171429 23.1694678,29.0589774 C22.5859576,28.9831379 22.264159,29.1439699 22.0425053,29.7428403 C21.7046835,30.6581445 21.2239886,31.5133001 20.7820163,32.3841466 C20.3814372,33.168693 19.8913954,33.211843 19.4307294,32.4665239 C18.3010963,30.6359157 17.215527,28.7883089 16.1099286,26.9485475 C15.9870843,26.7445655 15.9323385,26.5562743 16.1339633,26.3640605 C16.1648629,26.332891 16.1930045,26.2992089 16.218085,26.263377 C16.5145135,25.8606432 16.7268204,25.307538 17.1287348,25.0957105 C17.5306492,24.8838829 17.9806331,25.4108366 18.4346227,25.5559777 C18.9593814,25.72204 19.4654463,25.9338675 20.0249218,25.9482509 C21.1104912,25.9835555 21.8515626,25.4252199 22.1493264,24.3896187 C22.3242459,23.7789801 22.3643038,23.1565733 22.4350728,22.5328589 C22.4537665,22.3733344 22.3990207,22.0660537 22.7114724,22.0098279 C23.0239241,21.9536021 23.1828205,22.1484311 23.3096705,22.3445677 C23.6755328,22.9081336 24.0146898,23.4900055 24.3605231,24.0666471 C25.1189528,25.3341254 25.8764925,26.6016037 26.6331419,27.869082 C26.8521251,28.2378188 27.1672474,28.6039405 26.8935183,29.0615925 C26.6197893,29.5192446 26.1230712,29.2355003 25.6984573,29.3453368 Z" id="Shape" fill="#767676"></path>
            <path d="M1.00416694,28.7177171 C0.986956092,28.527702 1.03470216,28.3374764 1.14014343,28.1759718 C2.27962644,26.3151945 3.40823133,24.4478743 4.55179364,22.5884056 C4.72584355,22.3057559 4.8672591,21.8870155 5.33501824,22.0283404 C5.74294772,22.1487282 5.56481851,22.5439144 5.61648958,22.8226385 C5.71847195,23.3722351 5.73478913,23.9440774 5.90883904,24.4701199 C6.31676852,25.7014782 7.46441012,26.2576177 8.74802821,25.8650486 C9.38575796,25.6700727 9.99493265,25.3874229 10.617705,25.1440301 C10.8543041,25.0511221 11.0025185,25.0131738 11.2119223,25.2905892 C12.2127093,26.6200898 12.2426241,26.613547 11.4022894,28.0019329 C10.5333996,29.4413527 9.63459494,30.8611441 8.75754657,32.2900955 C8.70507298,32.3848403 8.64554099,32.4758051 8.57941736,32.5622767 C8.04910904,33.1733759 7.69421039,33.1537474 7.32571409,32.4458146 C6.86339402,31.5599171 6.39291535,30.6714024 6.01762023,29.7488652 C5.74566725,29.0644864 5.28742647,29.0016754 4.64153813,29.1037433 C3.66411189,29.2663505 2.67316338,29.3416951 1.68132987,29.3288163 C1.28291875,29.3209649 0.959294697,29.2149712 1.00416694,28.7177171 Z" id="Shape" fill="#767676"></path>
            <path d="M13.9691948,22.9999452 C8.44621379,22.982247 3.9828662,18.6829427 4.00004945,13.3938998 C4.01580076,8.28047773 8.64525304,3.9634752 14.0722942,4.00023302 C19.4993354,4.03699085 24.0228243,8.3784986 23.9999133,13.5218715 C23.9770024,18.7455671 19.4549454,23.0176434 13.9691948,22.9999452 Z" id="Shape" fill="#FEFEFE"></path>
            <path d="M13.9932574,6.00391775 C9.26998644,5.8685871 5.97584234,10.0719569 6.00013345,13.8720415 C6.03117209,18.4015581 9.52099455,21.9918802 13.9797623,22 C16.1175386,21.9914102 18.1641704,21.1307056 19.6685869,19.6075827 C21.1730034,18.0844599 22.0117164,16.0239423 21.9998763,13.8801613 C21.9634397,9.67814476 18.3778023,5.86046726 13.9932574,6.00391775 Z M19.0539048,12.0410178 C17.0746293,14.0033122 15.0953539,15.9656065 13.1160785,17.9279009 C12.7625079,18.2811139 12.4183839,18.2932936 12.0459202,17.9942129 C10.8516074,17.0360719 9.82868191,15.8992945 8.78146527,14.7909365 C8.50346704,14.497269 8.42519569,14.0750374 8.79630984,13.7691902 C9.13638534,13.4890557 9.5101985,13.5540144 9.82328389,13.8585084 C10.5979003,14.6082402 11.3792643,15.3471455 12.1309391,16.1225901 C12.4440245,16.444677 12.6343048,16.3932514 12.9298466,16.0928173 C14.5182152,14.4688496 16.1268263,12.8746546 17.7300394,11.2696331 C17.9027065,11.0943382 18.0847061,10.9285413 18.2752398,10.7729697 C18.49402,10.6008928 18.7956562,10.5810136 19.0350117,10.7228973 C19.2684762,10.8460482 19.3818347,11.0666372 19.3872328,11.3995506 C19.4088248,11.6336726 19.2495831,11.847495 19.0539048,12.0410178 Z" id="Shape" fill="#767676"></path>
        </g>
    </g>
</svg>