<?xml version="1.0" encoding="UTF-8"?>
<svg width="33px" height="23px" viewBox="0 0 33 23" version="1.1" xmlns="http://www.w3.org/2000/svg" xmlns:xlink="http://www.w3.org/1999/xlink">
    <!-- Generator: Sketch 48.2 (47327) - http://www.bohemiancoding.com/sketch -->
    <title>1</title>
    <desc>Created with Sketch.</desc>
    <defs></defs>
    <g id="Admin--Dashboard" stroke="none" stroke-width="1" fill="none" fill-rule="evenodd" transform="translate(-625.000000, -382.000000)">
        <g id="1" transform="translate(625.000000, 382.000000)" fill="#767676" fill-rule="nonzero">
            <path d="M14.5281501,13.7500572 C14.5825164,13.7539727 14.6358008,13.7258304 14.6770926,13.6713926 C14.7843312,13.4719872 14.8784629,13.2561171 15,13 L11.4408698,13 C11.4122729,13 11.370569,13 11.3562705,13.0365882 C11.2454573,13.2579465 11.1406017,13.484793 11.0131069,13.7518866 L11.9389336,13.7518866 C12.2353297,13.7369493 12.528117,13.8552119 12.7813524,14.0921564 C12.8929556,14.2200181 12.9977456,14.3613296 13.0947274,14.5147496 L13.0661305,14.5806083 L11.4885314,14.5806083 C11.4444444,14.5806083 11.3789097,14.5806083 11.357462,14.6117082 C11.238308,14.834896 11.1334525,15.0708895 11,15.3434713 L13.1793268,15.3434713 C13.148768,15.8216012 12.9556612,16.2391826 12.6717307,16.4411159 C12.3928598,16.65296 12.0856354,16.7619563 11.774501,16.7594329 C11.5910039,16.7704093 11.4063152,16.7594329 11.2109026,16.7594329 C11.2044008,16.9422375 11.2044008,17.1254506 11.2109026,17.3082552 C11.2157871,17.4147797 11.2420071,17.5163791 11.2859696,17.599131 C11.9357561,18.6967757 12.5887201,19.7913713 13.2448615,20.8829179 C13.27465,20.9323119 13.3163539,20.9981706 13.3532916,21 C13.6094727,21 13.8656539,21 14.1730712,21 C14.130166,20.8916545 14.0832205,20.7872043 14.0324695,20.6871713 C13.4263728,19.6358716 12.8190845,18.5851818 12.2106047,17.5351018 C12.1724754,17.4692431 12.1403038,17.3960668 12.0914507,17.3082552 C12.9779565,17.1783673 13.7119452,16.7795564 13.9669348,15.3178596 C14.1540066,15.3178596 14.3339291,15.3178596 14.5150432,15.3178596 C14.5579386,15.3178596 14.6198987,15.3178596 14.642538,15.2721244 C14.761692,15.0544249 14.8605898,14.8239195 14.9880846,14.556826 L13.9526363,14.556826 C13.8608877,14.2677796 13.779863,14.0080037 13.691689,13.7354219 C13.9812332,13.753716 14.2540959,13.7573748 14.5281501,13.7500572 Z" id="Shape"></path>
            <path d="M29.1499253,4.00451065 C29.0270629,3.99436168 28.9058609,4.00451065 28.7829985,4.00451065 L4.69367425,4.00451065 C4.61231944,4.00451065 4.52764403,4.00451065 4.44960983,4.00451065 C3.78548896,4.02819158 3.48497427,4.32589471 3.47833306,5.00418422 C3.47833306,5.8330168 3.47833306,6.66354086 3.47833306,7.49237343 C3.48489244,7.59008977 3.49764804,7.68727163 3.51652001,7.78331058 C4.52930433,7.78331058 5.51884443,7.75624666 6.50506392,7.79515105 C6.93010128,7.812066 7.15756268,7.62600154 7.35015773,7.29616001 C7.63428687,6.79932751 7.69824712,6.20303466 7.52614976,5.65540982 L25.912336,5.65540982 C25.7114395,6.42673156 25.8176988,7.11178705 26.3672588,7.67167191 C26.9168189,8.23155677 27.6174664,8.31274853 28.3596215,8.1182266 L28.3596215,13.8963737 C27.5294704,13.7272242 27.0197576,13.8050329 26.5565333,14.1822363 C26.5366097,14.1974598 26.516686,14.2160662 26.4967624,14.2346727 C26.4967624,12.8217105 26.4967624,11.4121313 26.4967624,10.0059351 C26.4967624,9.12466615 26.2560186,8.88447386 25.3777187,8.88447386 L1.08583762,8.88447386 C0.245724722,8.88447386 0.00166030218,9.13481512 0,9.99916909 L0,21.8971452 C0,22.7513502 0.249045326,23 1.09912004,23 L25.3943218,23 C26.2609995,23 26.4984227,22.7564247 26.500083,21.8633153 C26.500083,20.6228856 26.500083,19.3824559 26.500083,18.1420262 L28.8560518,18.1420262 C29.7426532,18.1420262 30,17.8798445 30,16.9816606 L30,5.16149326 C30,5.07861001 30,4.99234376 30,4.91284349 C29.9734352,4.34450116 29.7028059,4.05356401 29.1499253,4.00451065 Z M24.8812884,18.7577304 C24.12087,18.5564425 23.4169019,18.6342513 22.8540594,19.231349 C22.291217,19.8284468 22.203221,20.5338002 22.467209,21.3372604 L3.99966794,21.3372604 C4.21384692,20.5625556 4.18064088,19.8402873 3.61281753,19.244881 C3.04499419,18.6494747 2.38087332,18.5378361 1.60717251,18.7611134 L1.60717251,13.0100303 C3.23426864,13.3669357 4.39814046,12.2217936 4.06608003,10.5083091 L22.4090985,10.5083091 C22.2231446,11.2745564 22.3211024,11.9748353 22.8872655,12.5381032 C23.4534285,13.101371 24.1158891,13.1927117 24.8796281,12.9559024 L24.8812884,18.7577304 Z" id="Shape"></path>
            <path d="M31.9437113,0 L9.02161506,0 C8.23816793,0 8.00156689,0.232226352 8,1.02865364 C8,1.71650082 8,2.40382848 8,3.09063661 C8,3.21220477 8.01096826,3.33377293 8.01723584,3.46936818 C9.02631575,3.46936818 9.98682193,3.45845822 10.9457612,3.47716101 C11.20228,3.48835377 11.4437993,3.35682474 11.5725189,3.13583503 C11.9172357,2.64332814 11.9470067,2.10094713 11.80912,1.52116053 L29.1295692,1.52116053 C28.7754511,3.04855533 29.9647238,4.21592135 31.4799106,3.7951085 C31.4799106,5.55940535 31.4799106,7.32214363 31.4799106,9.1129361 C30.9017266,8.96798945 30.3674157,8.97266515 29.8691433,9.29061264 C29.6294085,9.44646925 29.4821204,9.61635296 29.50249,9.93585901 C29.5338279,10.4299245 29.5103245,10.9286656 29.5103245,11.4242897 L29.5103245,13 C30.3486129,13 31.1398945,13 31.9311761,13 C32.7804328,13 32.999798,12.7849179 32.999798,11.9417336 C32.999798,8.31339168 32.999798,4.68504975 32.999798,1.05670783 C33.0076325,0.219757823 32.7898342,0 31.9437113,0 Z" id="Shape"></path>
            <polygon id="Shape" points="17 2 17 3 23 3 23 2"></polygon>
            <polygon id="Shape" points="19 6 13 6 13 7 19 7"></polygon>
        </g>
    </g>
</svg>