<?xml version="1.0" encoding="UTF-8"?>
<svg width="35px" height="33px" viewBox="0 0 35 33" version="1.1" xmlns="http://www.w3.org/2000/svg" xmlns:xlink="http://www.w3.org/1999/xlink">
    <!-- Generator: Sketch 48.2 (47327) - http://www.bohemiancoding.com/sketch -->
    <title>Group 6</title>
    <desc>Created with Sketch.</desc>
    <defs></defs>
    <g id="Admin--Dashboard" stroke="none" stroke-width="1" fill="none" fill-rule="evenodd" transform="translate(-266.000000, -376.000000)">
        <g id="Group-6" transform="translate(266.000000, 376.000000)" fill="#767676" fill-rule="nonzero">
            <path d="M34.7995705,10.9848298 C34.6592382,11.1931032 34.4951578,11.3812693 34.3112431,11.5448397 C32.0804143,13.1785637 29.8415801,14.8036053 27.5947405,16.4199647 C26.68413,17.071139 25.7675156,17.7223133 24.8629091,18.4038757 C24.5675524,18.6564124 24.1614,18.6923365 23.8322182,18.4950401 C16.3191816,14.6357471 8.80280941,10.7829658 1.28310168,6.93669619 C0.980899086,6.78258494 0.722726012,6.58940323 0.714720645,6.19001632 C0.706715279,5.79062941 0.970892378,5.56705957 1.28710436,5.39992483 C4.56930468,3.66346002 7.84950367,1.91541877 11.1277013,0.15580109 C11.3975299,-0.000921372217 11.7191434,-0.0129493066 11.9982849,0.123242375 C19.3992464,3.43554901 26.8042105,6.74279095 34.2131774,10.0449682 C34.5373947,10.1925677 34.7855611,10.3922612 34.7995705,10.9848298 Z M17.0396646,5.13728453 C16.6574083,5.18286673 16.022983,5.21976661 15.4025671,5.35434263 C14.3138372,5.57140073 13.2791436,5.95993473 12.4605949,6.81731423 C11.5019522,7.82229325 11.4879428,9.20495335 12.4445841,10.1947383 C12.7571079,10.5234775 13.1149752,10.7973652 13.5052952,11.0065356 C15.1864222,11.8986444 16.9696176,12.0440733 18.7968426,11.7553861 C19.8935778,11.5817396 20.9322741,11.2279349 21.8208698,10.4725727 C22.3251169,10.0892736 22.6639502,9.50004222 22.759499,8.84029574 C22.8975916,7.69422897 22.34322,6.92801387 21.5246712,6.34629815 C20.2398099,5.42380122 18.7868358,5.18937847 17.0396646,5.13728453 Z M26.3959368,13.2834751 C26.6878824,13.2051226 26.9731127,13.0998273 27.2485084,12.9687408 C27.5286962,12.8081178 27.5146868,12.5346246 27.2645191,12.3175665 C26.8842642,11.99415 25.9336269,11.9876382 25.5393626,12.3175665 C25.2691815,12.5346246 25.2611761,12.8276531 25.5633787,12.9969584 C25.832791,13.1182343 26.1113416,13.2140947 26.3959368,13.2834751 Z M9.10834757,3.70253047 C8.83506266,3.76602727 8.56725203,3.85461681 8.30781091,3.96734136 C7.96958417,4.14967016 7.97758953,4.47308674 8.29180017,4.69665658 C8.81408307,4.9883224 9.43524091,4.98264072 9.95291375,4.68146251 C10.2431083,4.46440441 10.2491123,4.14749958 9.930899,3.97602368 C9.66459547,3.85901226 9.38936192,3.76749882 9.10834757,3.70253047 Z" id="Shape"></path>
            <path d="M34.8015718,25.3953172 C34.6619918,25.6035779 34.4985739,25.7917554 34.3152458,25.9553271 C32.11377,27.5658982 29.9122941,29.1591047 27.6968089,30.7588229 C26.7521757,31.4425559 25.8035397,32.1197772 24.8669118,32.8143631 C24.5680703,33.0640194 24.1615499,33.0989167 23.8302168,32.9033569 C16.3145118,29.0455109 8.79880673,25.1927296 1.28310168,21.345013 C0.976896403,21.1887312 0.722726012,20.9955494 0.714720645,20.5983331 C0.706715279,20.2011168 0.97289372,19.9710352 1.28710436,19.8082416 C1.80144917,19.5434307 2.31579397,19.282961 2.81412805,18.9921032 C3.02989776,18.8554253 3.29682657,18.8554253 3.51259629,18.9921032 C8.64003362,21.6300826 13.7694723,24.2586562 18.9009123,26.877824 C20.4879763,27.6917919 22.0810442,28.4905657 23.6561001,29.32841 C24.0829026,29.6009036 24.6201747,29.561252 25.0090071,29.2285632 C27.4106171,27.4595397 29.8382445,25.7230749 32.2478599,23.9627337 C32.4503128,23.7802738 32.7359821,23.7534452 32.9643402,23.8954457 C33.4046353,24.1125038 33.8649439,24.3056855 34.3152458,24.5075495 C34.6114444,24.6377844 34.7835597,24.867866 34.8015718,25.3953172 Z" id="Shape"></path>
            <path d="M34.9496711,15.6363849 C34.6955007,15.946778 34.5494028,16.2202712 34.3272538,16.3808942 C32.612104,17.6441724 30.8829448,18.8857447 29.1577883,20.1338288 C27.7308317,21.1670253 26.2978711,22.1937102 24.8789199,23.2399302 C24.5710327,23.4988738 24.1502235,23.5330607 23.8102034,23.3267535 C16.3211829,19.4804839 8.82949397,15.6407261 1.33513656,11.80748 C1.00891787,11.6403453 0.712719304,11.4558459 0.714720645,11.0108768 C0.716721987,10.5659077 1.01692324,10.3814083 1.34114059,10.2164441 C1.83146929,9.96682729 2.321798,9.71721047 2.79611597,9.43720552 C3.02306665,9.2908368 3.30565903,9.2908368 3.5326097,9.43720552 C9.45924948,12.4760189 15.3872235,15.5148324 21.3165317,18.5536458 C22.1170684,18.9638856 22.917605,19.3524196 23.7181417,19.790877 C24.1119412,20.0438664 24.6088983,20.006725 24.9669789,19.697542 C27.3685889,17.941542 29.7701989,16.2115889 32.1718089,14.45993 C32.4600021,14.2428719 32.6961604,14.1669016 33.0303844,14.3557421 C33.4506662,14.594506 33.9209815,14.7269115 34.3372606,14.967846 C34.5494028,15.0915691 34.6975021,15.3520388 34.9496711,15.6363849 Z" id="Shape"></path>
            <path d="M34.9536738,20.4094926 C34.6995034,20.7220562 34.5534055,20.99772 34.3332579,21.158343 C32.6401228,22.4064271 30.930977,23.6328054 29.2298366,24.8656954 C27.790872,25.9075743 26.3459033,26.9407709 24.9169454,27.9978438 C24.5914863,28.2785233 24.1423962,28.3196115 23.7781819,28.1020317 C16.3065064,24.2586562 8.8261584,20.4239631 1.3371379,16.5979523 C1.01292055,16.4373293 0.714720645,16.2398064 0.714720645,15.786155 C0.714720645,15.3325036 1.01892458,15.1545159 1.33913924,14.9873812 C1.81545856,14.7421055 2.2977819,14.5055122 2.75809048,14.2276778 C3.00264653,14.0641281 3.31037816,14.0599562 3.55862715,14.2168249 C8.14703646,16.5798641 12.7394485,18.9363916 17.3358631,21.2864073 C19.4712947,22.3825507 21.6107289,23.4569883 23.7401565,24.5791787 C24.1232097,24.8114369 24.5977298,24.7694074 24.9409615,24.4728202 C27.3725916,22.6951144 29.8182311,20.9391143 32.2518625,19.1635791 C32.4431752,18.9873231 32.7153952,18.9587516 32.93432,19.0919499 C33.3766166,19.309008 33.8509345,19.469631 34.2792216,19.7170772 C34.5193826,19.8559944 34.6834927,20.127317 34.9536738,20.4094926 Z" id="Shape"></path>
        </g>
    </g>
</svg>