<?xml version="1.0" encoding="UTF-8"?>
<svg width="35px" height="28px" viewBox="0 0 35 28" version="1.1" xmlns="http://www.w3.org/2000/svg" xmlns:xlink="http://www.w3.org/1999/xlink">
    <!-- Generator: Sketch 48.2 (47327) - http://www.bohemiancoding.com/sketch -->
    <title>Group 5</title>
    <desc>Created with Sketch.</desc>
    <defs></defs>
    <g id="Admin--Dashboard" stroke="none" stroke-width="1" fill="none" fill-rule="evenodd" transform="translate(-266.000000, -309.000000)">
        <g id="Group-5" transform="translate(266.000000, 309.000000)" fill="#767676" fill-rule="nonzero">
            <path d="M20.3419271,8.12838542 C24.4118924,8.12838542 28.4830729,8.12838542 32.5554688,8.12838542 C34.321875,8.12838542 34.9927083,8.79192708 34.9927083,10.5346354 C34.9927083,15.5452257 34.9927083,20.555816 34.9927083,25.5664062 C34.9927083,27.2289062 34.2854167,27.9361979 32.5973958,27.9361979 C24.4295139,27.9434896 16.2604167,27.9434896 8.09010417,27.9361979 C6.40572917,27.9361979 5.69114583,27.2216146 5.68932292,25.5572917 C5.68203125,20.5454861 5.68203125,15.5348958 5.68932292,10.5255208 C5.68932292,8.79739583 6.38203125,8.12473958 8.13932292,8.12291667 C12.2068576,8.1265625 16.2743924,8.12838542 20.3419271,8.12838542 Z M6.75390625,15.9067708 C6.75390625,19.2992187 6.75390625,22.6059896 6.75390625,25.9127604 C6.75390625,26.7020833 7.31354167,26.9007812 8.00260417,26.9007812 C16.2348958,26.9007812 24.4671875,26.9007812 32.6994792,26.9007812 C33.5252604,26.9007812 33.9190104,26.5361979 33.9080729,25.6848958 C33.8825521,23.8328125 33.9080729,21.9789062 33.9080729,20.125 L33.9082946,15.9067708 L6.75390625,15.9067708 Z M6.75390625,11.4388021 L33.8424479,11.4388021 C34.0648438,9.36614583 33.9190104,9.19661458 31.98125,9.19661458 C27.3036458,9.19661458 22.6248264,9.19661458 17.9447917,9.19661458 C14.634375,9.19661458 11.3239583,9.19661458 8.01354167,9.19661458 C7.01640625,9.19661458 6.77213542,9.45546875 6.75026042,10.4270833 C6.74479167,10.7333333 6.75026042,11.0341146 6.75026042,11.4388021 L6.75390625,11.4388021 Z" id="Shape"></path>
            <path d="M4.8125,24.2739583 C4.35190972,23.0052083 3.89010417,21.737066 3.42708333,20.4695313 C2.35885417,17.5364583 1.27786458,14.6070313 0.215104167,11.6703125 C-0.31171875,10.2119792 0.13125,9.26770833 1.59140625,8.73541667 C9.30963542,5.92083333 17.0296875,3.11232639 24.7515625,0.309895833 C26.2828125,-0.247916667 27.1888021,0.171354167 27.7484375,1.68255208 C28.4411458,3.55286458 29.1174479,5.43046875 29.8484375,7.43203125 L7.89505208,7.43203125 C5.77682292,7.43203125 5.00572917,8.20859375 5.00390625,10.3578125 C5.00390625,14.7 5.00390625,19.0427951 5.00390625,23.3861979 C5.00390625,23.6742188 4.97838542,23.9604167 4.965625,24.2484375 L4.8125,24.2739583 Z" id="Shape"></path>
        </g>
    </g>
</svg>