<?xml version="1.0" encoding="UTF-8"?>
<svg width="29px" height="27px" viewBox="0 0 29 27" version="1.1" xmlns="http://www.w3.org/2000/svg" xmlns:xlink="http://www.w3.org/1999/xlink">
    <!-- Generator: Sketch 48.2 (47327) - http://www.bohemiancoding.com/sketch -->
    <title>1</title>
    <desc>Created with Sketch.</desc>
    <defs></defs>
    <g id="Admin--Dashboard" stroke="none" stroke-width="1" fill="none" fill-rule="evenodd" transform="translate(-631.000000, -309.000000)">
        <g id="1" transform="translate(631.000000, 309.000000)" fill="#767676" fill-rule="nonzero">
            <path d="M28.5301457,9.97254518 C26.9257002,4.03643481 21.5743472,-0.0588444808 15.4997309,0.000639579722 C12.5678522,-1.972932e-05 9.72173342,1.00281343 7.4229779,2.84649262 C4.34948331,5.2827499 2.70377349,8.54428934 2.27543805,12.5382286 L0,12.5382286 L3.5965147,18.8557483 L7.2215851,12.4818902 L5.03482,12.4818902 C5.22869814,8.15448818 8.82220698,4.04787199 13.2408251,3.02616659 C17.9146511,1.92887021 22.7350033,4.13745454 25.0083452,8.41779758 C27.2816871,12.6981406 26.4451976,17.9905395 22.9662938,21.3376854 C21.1997061,23.0622448 18.8895807,24.1006482 16.4420689,24.2703301 C13.4241828,24.5063425 10.7865382,23.5181357 8.4539888,21.5295407 L6.68954741,23.4937731 C10.6617949,27.4526912 17.3603599,28.1317979 22.371133,25.159564 C27.5832989,22.062472 30.1187441,15.8104267 28.5301457,9.97254518 Z" id="Shape"></path>
            <path d="M15.2654646,9.94886411 C13.9566991,9.94886411 12.6479337,9.94886411 11.3391682,9.94886411 C11.2161095,9.94886411 11.0351408,9.9337499 10.9786786,10.0078095 C10.6543827,10.4234502 10.3590419,10.8647851 10,11.3756453 L15.996578,11.3756453 C15.8995788,12.3701602 15.3798368,13.0049569 14.6009476,13.443269 C13.8220584,13.881581 12.9910503,14.0100518 12.1325349,14.0478373 C11.6258226,14.0659743 11.1191103,14.0478373 10.5790998,14.0478373 C10.5790998,14.4030212 10.5559358,14.7446023 10.5877863,15.0801377 C10.6034379,15.2794216 10.6755015,15.4693451 10.7948144,15.6257606 C12.5842327,17.6812928 14.3818549,19.7287642 16.187681,21.7681747 C16.2687549,21.8618827 16.3845749,21.9843078 16.4859173,21.9873307 C17.1909713,22.0069791 17.8960253,21.9979106 18.7429587,21.9979106 C18.6234437,21.7960355 18.4939359,21.6007977 18.3549618,21.4129908 C16.6861893,19.4451209 15.0150039,17.4802739 13.3414056,15.5184497 C13.2371677,15.3960246 13.1474072,15.2599967 13.0243485,15.0937405 C15.4638063,14.8488903 17.4834167,14.0931799 18.1826797,11.3726225 C18.6980784,11.3726225 19.1961042,11.3726225 19.6912345,11.3726225 C19.8113977,11.3726225 19.9807844,11.363554 20.0430376,11.2849601 C20.3571993,10.8768765 20.6438536,10.4461215 20.994209,9.94584126 L18.1450382,9.94584126 L17.4284022,8.41023775 C18.1971571,8.41023775 18.9499868,8.41023775 19.7013688,8.41023775 C19.851648,8.41492706 19.9982184,8.36104802 20.1125296,8.25909567 C20.4020795,7.88577473 20.6670176,7.48071396 21,7.00159357 C17.6629376,7.00159357 14.4344564,7.00159357 11.2059753,7.00159357 C11.1226583,6.99322006 11.039391,7.01805702 10.9728876,7.07111893 C10.670308,7.4837368 10.3807581,7.90844605 10.0304027,8.40872633 C10.9613056,8.40872633 11.767702,8.40872633 12.5784417,8.40872633 C13.3891814,8.40872633 14.1970255,8.57195977 14.8948407,9.04503448 C15.2118979,9.25965623 15.4739405,9.56949749 15.7548039,9.83701897 L15.6780732,9.95793263 L15.2654646,9.94886411 Z" id="Shape"></path>
        </g>
    </g>
</svg>