<?xml version="1.0" encoding="utf-8"?>
<!-- Generator: Adobe Illustrator 22.0.1, SVG Export Plug-In . SVG Version: 6.00 Build 0)  -->
<svg version="1.1" id="Layer_1" xmlns="http://www.w3.org/2000/svg" xmlns:xlink="http://www.w3.org/1999/xlink" x="0px" y="0px"
	 viewBox="0 0 28 33" style="enable-background:new 0 0 28 33;" xml:space="preserve">
<style type="text/css">
	.st0{fill:#767676;}
</style>
<title>Group 3</title>
<desc>Created with Sketch.</desc>
<g>
	<path class="st0" d="M25.6,18.4c0,0.1,0,0.2,0,0.3c0,1.3,0,2.6,0,3.9c0,0.7-0.3,1-1,1c-4.3,0-8.6,0-12.9,0c0,0-0.1,0-0.2,0
		c1.6-2.4,1.7-4.9,0.2-7.3c-1.6-2.4-3.9-3.3-6.7-2.9c0-0.1,0-0.2,0-0.3c0-1.6,0-3.2,0-4.8c0-0.7,0.3-1,1-1c6.2,0,12.4,0,18.5,0
		c0.7,0,1,0.3,1,1c0,1.2,0,2.4,0,3.6c0,0.5,0,0.5-0.5,0.5c-1.4,0-2.8,0-4.3,0c-1.4,0-2.5,0.9-2.9,2.3c-0.3,1.3,0.2,2.6,1.4,3.3
		c0.5,0.3,1,0.4,1.5,0.4c1.4,0,2.9,0,4.3,0C25.3,18.4,25.4,18.4,25.6,18.4z M17,8.9c0-0.3,0-0.5,0-0.8c-0.3,0-0.5,0-0.8,0
		c0,0.3,0,0.5,0,0.8C16.4,8.9,16.7,8.9,17,8.9z M20.4,8.9c0-0.3,0-0.6,0-0.8c-0.3,0-0.6,0-0.8,0c0,0.3,0,0.5,0,0.8
		C19.9,8.9,20.1,8.9,20.4,8.9z M23,21.8c0,0.3,0,0.6,0,0.8c0.3,0,0.6,0,0.8,0c0-0.3,0-0.5,0-0.8C23.5,21.8,23.3,21.8,23,21.8z
		 M19.6,21.8c0,0.3,0,0.6,0,0.8c0.3,0,0.6,0,0.8,0c0-0.3,0-0.5,0-0.8C20.1,21.8,19.8,21.8,19.6,21.8z M23.9,20.5c0-0.3,0-0.5,0-0.8
		c-0.3,0-0.6,0-0.8,0c0,0.3,0,0.5,0,0.8C23.3,20.5,23.6,20.5,23.9,20.5z M5.9,9.8c0,0.3,0,0.6,0,0.8c0.3,0,0.5,0,0.8,0
		c0-0.3,0-0.6,0-0.8C6.4,9.8,6.2,9.8,5.9,9.8z M22.1,21.9c-0.3,0-0.6,0-0.8,0c0,0.3,0,0.5,0,0.8c0.3,0,0.5,0,0.8,0
		C22.1,22.4,22.1,22.1,22.1,21.9z M17.8,22.7c0.3,0,0.5,0,0.8,0c0-0.3,0-0.6,0-0.8c-0.3,0-0.5,0-0.8,0
		C17.8,22.1,17.8,22.4,17.8,22.7z M16.9,22.7c0-0.3,0-0.5,0-0.8c-0.3,0-0.6,0-0.8,0c0,0.3,0,0.6,0,0.8
		C16.4,22.7,16.7,22.7,16.9,22.7z M15.2,21.9c-0.3,0-0.6,0-0.8,0c0,0.3,0,0.6,0,0.8c0.3,0,0.5,0,0.8,0
		C15.2,22.4,15.2,22.1,15.2,21.9z M12.7,22.7c0.3,0,0.5,0,0.8,0c0-0.3,0-0.6,0-0.8c-0.3,0-0.5,0-0.8,0
		C12.7,22.1,12.7,22.4,12.7,22.7z M6.7,8.9c0-0.3,0-0.6,0-0.8c-0.3,0-0.5,0-0.8,0c0,0.3,0,0.5,0,0.8C6.2,8.9,6.4,8.9,6.7,8.9z
		 M8.4,8.9c0-0.3,0-0.6,0-0.8c-0.3,0-0.6,0-0.8,0c0,0.3,0,0.6,0,0.8C7.9,8.9,8.1,8.9,8.4,8.9z M9.3,8.9c0.3,0,0.6,0,0.8,0
		c0-0.3,0-0.5,0-0.8c-0.3,0-0.6,0-0.8,0C9.3,8.4,9.3,8.7,9.3,8.9z M5.9,11.5c0,0.3,0,0.6,0,0.8c0.3,0,0.5,0,0.8,0c0-0.3,0-0.5,0-0.8
		C6.4,11.5,6.2,11.5,5.9,11.5z M23.9,10.7c-0.3,0-0.6,0-0.8,0c0,0.3,0,0.5,0,0.8c0.3,0,0.5,0,0.8,0C23.9,11.2,23.9,11,23.9,10.7z
		 M23.9,8.9c0-0.3,0-0.6,0-0.8c-0.3,0-0.5,0-0.8,0c0,0.3,0,0.5,0,0.8C23.3,8.9,23.6,8.9,23.9,8.9z M22.2,8.1c-0.3,0-0.6,0-0.8,0
		c0,0.3,0,0.6,0,0.8c0.3,0,0.6,0,0.8,0C22.2,8.6,22.2,8.4,22.2,8.1z M17.9,8.9c0.3,0,0.5,0,0.8,0c0-0.3,0-0.5,0-0.8
		c-0.3,0-0.6,0-0.8,0C17.9,8.4,17.9,8.7,17.9,8.9z M15.3,8.9c0-0.3,0-0.6,0-0.8c-0.3,0-0.6,0-0.8,0c0,0.3,0,0.6,0,0.8
		C14.7,8.9,15,8.9,15.3,8.9z M12.7,8.1c0,0.3,0,0.5,0,0.8c0.3,0,0.5,0,0.8,0c0-0.3,0-0.5,0-0.8C13.3,8.1,13,8.1,12.7,8.1z M11,8.9
		c0.3,0,0.5,0,0.8,0c0-0.3,0-0.5,0-0.8c-0.3,0-0.6,0-0.8,0C11,8.4,11,8.7,11,8.9z"/>
	<path class="st0" d="M6.4,25.3c-3.1,0-5.6-2.5-5.6-5.6c0-3.1,2.5-5.6,5.6-5.6c3.1,0,5.6,2.5,5.6,5.6C12,22.8,9.5,25.3,6.4,25.3z
		 M4.3,20.4c0.2,0.1,0.3,0.2,0.4,0.3c0.7,0.7,1.5,1.4,2.2,2.2C7,23,7.1,23,7.1,23c0.2-0.2,0.5-0.4,0.6-0.5c-0.7-0.7-1.3-1.4-1.9-2.1
		c0.9-0.3,1.2-0.6,1.6-1.7c0.4,0,0.7,0,1.1,0c0-0.3,0-0.6,0-0.8c-0.3,0-0.6,0-0.9,0c-0.1,0-0.2,0-0.2-0.1c-0.1-0.2-0.2-0.5-0.3-0.8
		c0.5,0,1,0,1.5,0c0-0.3,0-0.6,0-0.8c-1.4,0-2.8,0-4.2,0c0,0.3,0,0.6,0,0.8c0.4,0,0.9,0,1.3,0.1C6,17.2,6.4,17.5,6.5,18
		c-0.7,0-1.4,0-2.1,0c0,0.3,0,0.6,0,0.9c0.7,0,1.4,0,2.2,0c-0.1,0.2-0.2,0.3-0.3,0.4c-0.3,0.3-0.7,0.4-1.1,0.4c-0.3,0-0.6,0-0.9,0
		C4.3,20,4.3,20.2,4.3,20.4z"/>
	<path class="st0" d="M27.3,12.7c0,1.4,0,2.7,0,4c0,0.1-0.1,0.2-0.2,0.3c-0.5,0.3-1,0.5-1.5,0.5c-1.6,0-3.2,0-4.8,0
		c-1.2,0-2.1-1-2.1-2.2c0-1.2,0.9-2.1,2.2-2.1c1.1,0,2.2,0,3.3,0C25.2,13.2,26.3,13.3,27.3,12.7z M20.9,14.1c-0.7,0-1.4,0.6-1.4,1.4
		c0,0.7,0.6,1.3,1.4,1.3c0.7,0,1.4-0.6,1.4-1.4C22.3,14.7,21.7,14.1,20.9,14.1z"/>
	<path class="st0" d="M26.3,23.5c0-0.4,0.1-0.8,0.1-1.2c0-1.3,0-2.7,0-4c0.3-0.1,0.6-0.2,0.9-0.3c0,0.2,0,0.4,0,0.5
		c0,1.4,0,2.7,0,4.1C27.3,23.3,26.9,23.6,26.3,23.5z"/>
	<path class="st0" d="M26.5,12.2c0-0.3,0-0.5,0-0.8c0-0.9,0-1.8,0-2.8c0-0.5-0.1-0.9-0.1-1.4c0.5-0.1,1,0.3,1,0.9c0,1.1,0,2.3,0,3.4
		c0,0.2-0.1,0.3-0.2,0.4C26.9,12,26.7,12.1,26.5,12.2z"/>
	<path class="st0" d="M21.4,15.5c0,0.3-0.2,0.5-0.5,0.5c-0.3,0-0.5-0.2-0.5-0.5c0-0.3,0.2-0.5,0.5-0.5C21.2,15,21.4,15.2,21.4,15.5z
		"/>
</g>
</svg>
