<?xml version="1.0" encoding="UTF-8"?>
<svg width="16px" height="25px" viewBox="0 0 16 25" version="1.1" xmlns="http://www.w3.org/2000/svg" xmlns:xlink="http://www.w3.org/1999/xlink">
    <!-- Generator: Sketch 48.2 (47327) - http://www.bohemiancoding.com/sketch -->
    <title>Group 4 Copy</title>
    <desc>Created with Sketch.</desc>
    <defs></defs>
    <g id="Admin--Dashboard" stroke="none" stroke-width="1" fill="none" fill-rule="evenodd" transform="translate(-275.000000, -1182.000000)">
        <g id="Group-4-Copy" transform="translate(275.000000, 1182.000000)" fill="#767676" fill-rule="nonzero">
            <path d="M6.85498239e-06,24.9936709 C-0.000506077374,24.6659041 0.0277675319,24.3387167 0.0845067202,24.0158228 C0.213648024,23.5174051 0.59788326,23.2689873 1.12560883,23.1946203 L1.12560883,22.9920886 C1.12560883,22.2009494 1.11285414,21.4208861 1.12560883,20.6344937 C1.12694736,19.2574363 1.67784739,17.93697 2.65776677,16.9620253 C3.56813324,16.039557 4.48487706,15.1234177 5.39683787,14.2009494 C6.32951647,13.2272538 6.31113509,11.6934933 5.3553851,10.7420886 C4.47531104,9.8528481 3.58248227,8.97468354 2.7024082,8.08386076 C1.78979868,7.20539888 1.24055754,6.02042712 1.16227859,4.76107595 C1.10807113,3.8528481 1.13517486,2.93987342 1.12720317,2.02848101 C1.12720317,1.95253165 1.12720317,1.87816456 1.12720317,1.79113924 C0.832173636,1.76214929 0.556248806,1.63305428 0.345978001,1.42563291 C0.147034197,1.22589335 0.0329005538,0.958008844 0.0271105853,0.67721519 C0.0271105853,0.455696203 0.0271105853,0.235759494 0.0271105853,0 L15.6149442,0 C15.6149442,0.523734177 15.7201705,1.06329114 15.249841,1.47943038 C15.0449591,1.65531366 14.7894781,1.76271201 14.5196346,1.78639241 L14.5196346,1.99683544 C14.5196346,2.74578059 14.5196346,3.49314346 14.5196346,4.23892405 C14.5427409,5.71358166 13.9493965,7.13187855 12.8806561,8.15664557 C12.0292801,9.00316456 11.1858758,9.85759494 10.3297168,10.7041139 C9.84344242,11.1646823 9.5661557,11.8012721 9.56124632,12.4683544 C9.54087708,13.1229298 9.79285263,13.756974 10.2579716,14.221519 C11.0918099,15.0601266 11.9208652,15.903481 12.7658638,16.7294304 C13.6857963,17.6281646 14.2884558,18.6835443 14.4638328,19.9620253 C14.4925007,20.1617802 14.5084756,20.3631274 14.511663,20.5648734 C14.511663,21.3702532 14.511663,22.1740506 14.511663,22.9778481 L14.511663,23.1787975 C14.6671662,23.2226402 14.819952,23.2754731 14.9692377,23.3370253 C15.3692233,23.5156667 15.6210619,23.9161856 15.6069725,24.3512658 C15.6069725,24.5648734 15.6069725,24.778481 15.6069725,25 L6.85498239e-06,24.9936709 Z M13.4896929,22.6993671 C13.4896929,22.0126582 13.4896929,21.3417722 13.4896929,20.6708861 C13.5104677,19.7245715 13.189867,18.8020298 12.5857038,18.0696203 C12.0436292,17.4367089 11.4329981,16.8528481 10.8478763,16.2531646 C10.3695752,15.7674051 9.8785194,15.3037975 9.41297297,14.8037975 C8.49782349,13.8291139 8.28418232,12.2136076 8.86292668,11.0063291 C9.13555832,10.4351266 9.57400102,10.0079114 10.004472,9.56962025 C10.7585935,8.80379747 11.5286583,8.05379747 12.279591,7.28639241 C12.9440593,6.642595 13.3555714,5.78484358 13.4402684,4.86708861 C13.5056363,4.02373418 13.4737495,3.17246835 13.4849099,2.32436709 C13.4849099,2.31329114 13.4753438,2.30221519 13.4673722,2.28639241 L2.17946564,2.28639241 C2.17946564,3.06487342 2.15873926,3.8306962 2.17946564,4.59335443 C2.19931778,5.44947959 2.51382463,6.27307344 3.07070007,6.92721519 C3.50754843,7.44462025 3.99700991,7.91772152 4.47212236,8.40348101 C5.02695167,8.97151899 5.59931868,9.52373418 6.14936497,10.096519 C7.4466655,11.4660826 7.42698688,13.6066868 6.10472353,14.9525316 C5.21508344,15.8433544 4.319066,16.7262658 3.43580326,17.6234177 C2.73270061,18.3370253 2.27512587,19.1835443 2.19859769,20.1882911 C2.14439023,20.8924051 2.16511661,21.6123418 2.15395625,22.3132911 C2.15395625,22.4367089 2.15395625,22.5617089 2.15395625,22.6977848 L13.4896929,22.6993671 Z" id="Shape"></path>
            <path d="M12.59375,4 C12.4569244,4.33807333 12.2577188,4.64586244 12.0070776,4.90645755 C11.343414,5.60130306 10.6705116,6.2866734 10.0053082,6.98309811 C9.65730828,7.3494712 9.31238801,7.71742348 8.98902526,8.10590528 C8.67454673,8.50825616 8.44300191,8.97190425 8.30842367,9.46875 C8.20987502,9.23187085 8.12826442,9.01867961 8.0312556,8.81022596 C7.82614864,8.37804654 7.5512655,7.9845449 7.21822926,7.64635973 C6.34053037,6.74306057 5.46796422,5.83449743 4.60053082,4.9206703 C4.34534875,4.65551946 4.14156454,4.34309907 4,4 L12.59375,4 Z" id="Shape"></path>
            <path d="M3.02289676,22.34375 C2.97741465,22.1058942 2.978983,22.1029935 3.22521372,22.0420792 C4.41245353,21.7520111 5.56518967,21.3778233 6.60970977,20.7686804 C6.9406313,20.5757851 7.23704917,20.3335783 7.55071887,20.1058748 C7.59933767,20.072517 7.64481978,20.0333578 7.68873354,20 C8.95595912,21.1051593 10.5243076,21.6258315 12.1491167,22.0420792 C12.3922107,22.1044438 12.3984841,22.1044438 12.353002,22.34375 L3.02289676,22.34375 Z" id="Shape"></path>
            <path d="M7.78626515,16.0000721 C7.99447145,15.9972199 8.19486278,16.0791278 8.34126811,16.2269239 C8.48767344,16.3747199 8.5674657,16.5756571 8.56226039,16.7834386 C8.56552553,17.2087275 8.22404096,17.5567865 7.79800042,17.5624124 C7.58718992,17.5655539 7.38394743,17.4840539 7.23390305,17.3362102 C7.08385867,17.1883664 6.9995847,16.9865668 7.00000154,16.7761174 C6.99998823,16.5687661 7.08310627,16.3700328 7.23081786,16.2242409 C7.37852945,16.0784489 7.57854863,15.9977247 7.78626515,16.0000721 Z" id="Shape"></path>
        </g>
    </g>
</svg>