<?xml version="1.0" encoding="utf-8"?>
<!-- Generator: Adobe Illustrator 22.0.1, SVG Export Plug-In . SVG Version: 6.00 Build 0)  -->
<svg version="1.1" id="Layer_1" xmlns="http://www.w3.org/2000/svg" xmlns:xlink="http://www.w3.org/1999/xlink" x="0px" y="0px"
	 viewBox="0 0 28 33" style="enable-background:new 0 0 28 33;" xml:space="preserve">
<style type="text/css">
	.st0{fill:#767676;}
</style>
<title>Group 3</title>
<desc>Created with Sketch.</desc>
<path id="Shape_1_" class="st0" d="M25.7,29.3c-0.8-0.1-1.7-0.2-2.5-0.3c-0.6-0.1-0.9,0.1-1.1,0.7c-0.3,0.9-0.8,1.8-1.3,2.6
	c-0.4,0.8-0.9,0.8-1.4,0.1c-1.1-1.8-2.2-3.7-3.3-5.5c-0.1-0.2-0.2-0.4,0-0.6c0,0,0.1-0.1,0.1-0.1c0.3-0.4,0.5-1,0.9-1.2
	c0.4-0.2,0.9,0.3,1.3,0.5c0.5,0.2,1,0.4,1.6,0.4c1.1,0,1.8-0.5,2.1-1.6c0.2-0.6,0.2-1.2,0.3-1.9c0-0.2,0-0.5,0.3-0.5
	c0.3-0.1,0.5,0.1,0.6,0.3c0.4,0.6,0.7,1.1,1.1,1.7c0.8,1.3,1.5,2.5,2.3,3.8c0.2,0.4,0.5,0.7,0.3,1.2C26.6,29.5,26.1,29.2,25.7,29.3z
	"/>
<path id="Shape_2_" class="st0" d="M1,28.7c0-0.2,0-0.4,0.1-0.5c1.1-1.9,2.3-3.7,3.4-5.6c0.2-0.3,0.3-0.7,0.8-0.6
	c0.4,0.1,0.2,0.5,0.3,0.8c0.1,0.5,0.1,1.1,0.3,1.6c0.4,1.2,1.6,1.8,2.8,1.4c0.6-0.2,1.2-0.5,1.9-0.7c0.2-0.1,0.4-0.1,0.6,0.1
	c1,1.3,1,1.3,0.2,2.7c-0.9,1.4-1.8,2.9-2.6,4.3c-0.1,0.1-0.1,0.2-0.2,0.3c-0.5,0.6-0.9,0.6-1.3-0.1c-0.5-0.9-0.9-1.8-1.3-2.7
	c-0.3-0.7-0.7-0.7-1.4-0.6c-1,0.2-2,0.2-3,0.2C1.3,29.3,1,29.2,1,28.7z"/>
<g>
	<path class="st0" d="M27,12c-0.5-0.3-1-0.7-1.4-1c-0.4-0.3-0.5-0.6-0.3-1.1c0.3-0.5,0.6-1.1,0.8-1.7c0.5-1.5-0.3-2-1.3-2.2
		c-0.6-0.1-1.2-0.2-1.8-0.2c-0.6,0-0.9-0.3-1-0.9c0-0.5-0.1-1-0.1-1.5c-0.2-1.8-1.2-2.1-2.7-1.5c-0.5,0.2-0.9,0.4-1.4,0.6
		c-0.5,0.2-0.9,0.2-1.2-0.3c-0.4-0.5-0.8-1-1.2-1.5c-0.8-0.9-1.8-0.9-2.6-0.1c-0.6,0.5-1,1.2-1.5,1.8c-0.3,0.3-0.5,0.4-0.9,0.2
		C9.7,2.3,9,2,8.4,1.8C7.3,1.4,6.4,1.9,6.2,2.9c-0.1,0.5-0.1,1-0.1,1.5c-0.1,0.9,0,1.4-1.4,1.4c-0.5,0-1,0-1.4,0.1
		C2,6.2,1.4,7,1.9,8.1c0.3,0.6,0.5,1.2,0.8,1.8c0.2,0.4,0.1,0.8-0.3,1.1c-0.6,0.5-1.3,0.9-1.9,1.5c-0.7,0.7-0.7,1.4,0,2
		c0.5,0.5,1,1,1.6,1.3c0.8,0.6,0.9,0.7,0.4,1.6c-0.3,0.6-0.6,1.2-0.7,1.9c-0.2,0.9,0.1,1.4,1,1.7c0.7,0.2,1.3,0.2,2,0.3
		c0.6,0,1.1,0.2,1.2,0.9c0.1,0.7,0,1.3,0.2,2c0.3,1,1.2,1.5,2.2,1.1c0.7-0.3,1.4-0.6,2.1-0.9c0.3-0.1,0.5-0.1,0.7,0.2
		c0.3,0.5,0.7,0.9,1.1,1.4c0.5,0.5,0.9,1.2,1.8,1.1c0.6,0.1,1-0.3,1.4-0.7c0.5-0.5,0.9-1.1,1.3-1.7c0.2-0.3,0.4-0.3,0.7-0.2
		c0.7,0.3,1.5,0.6,2.2,0.9c1,0.4,1.8-0.1,2-1.1c0.2-0.7,0.2-1.4,0.3-2.1c0-0.4,0.2-0.7,0.6-0.7c0.7-0.1,1.4-0.2,2-0.2
		c1.2-0.1,1.7-0.8,1.5-1.9c-0.2-0.8-0.6-1.6-0.9-2.3c-0.2-0.3-0.1-0.5,0.2-0.7c0.6-0.4,1.2-0.8,1.7-1.2C28.3,14,28.3,12.9,27,12z
		 M14,23c-5.5,0-10-4.3-10-9.6C4,8.3,8.6,4,14.1,4c5.4,0,10,4.4,9.9,9.5C24,18.7,19.5,23,14,23z"/>
	<polygon class="st0" points="18.6,8.2 14,12.8 9.4,8.2 8.2,9.4 12.8,14 8.2,18.6 9.4,19.8 14,15.2 18.6,19.8 19.8,18.6 15.2,14 
		19.8,9.4 	"/>
</g>
</svg>
