<?xml version="1.0" encoding="UTF-8"?>
<svg width="11px" height="15px" viewBox="0 0 11 15" version="1.1" xmlns="http://www.w3.org/2000/svg" xmlns:xlink="http://www.w3.org/1999/xlink">
    <!-- Generator: Sketch 48.2 (47327) - http://www.bohemiancoding.com/sketch -->
    <title>Shape</title>
    <desc>Created with Sketch.</desc>
    <defs></defs>
    <g id="Admin--Dashboard" stroke="none" stroke-width="1" fill="none" fill-rule="evenodd" transform="translate(-1000.000000, -454.000000)">
        <path d="M1005.26546,456.948864 C1003.9567,456.948864 1002.64793,456.948864 1001.33917,456.948864 C1001.21611,456.948864 1001.03514,456.93375 1000.97868,457.00781 C1000.65438,457.42345 1000.35904,457.864785 1000,458.375645 L1005.99658,458.375645 C1005.89958,459.37016 1005.37984,460.004957 1004.60095,460.443269 C1003.82206,460.881581 1002.99105,461.010052 1002.13253,461.047837 C1001.62582,461.065974 1001.11911,461.047837 1000.5791,461.047837 C1000.5791,461.403021 1000.55594,461.744602 1000.58779,462.080138 C1000.60344,462.279422 1000.6755,462.469345 1000.79481,462.625761 C1002.58423,464.681293 1004.38185,466.728764 1006.18768,468.768175 C1006.26875,468.861883 1006.38457,468.984308 1006.48592,468.987331 C1007.19097,469.006979 1007.89603,468.997911 1008.74296,468.997911 C1008.62344,468.796036 1008.49394,468.600798 1008.35496,468.412991 C1006.68619,466.445121 1005.015,464.480274 1003.34141,462.51845 C1003.23717,462.396025 1003.14741,462.259997 1003.02435,462.09374 C1005.46381,461.84889 1007.48342,461.09318 1008.18268,458.372622 C1008.69808,458.372622 1009.1961,458.372622 1009.69123,458.372622 C1009.8114,458.372622 1009.98078,458.363554 1010.04304,458.28496 C1010.3572,457.876876 1010.64385,457.446122 1010.99421,456.945841 L1008.14504,456.945841 L1007.4284,455.410238 C1008.19716,455.410238 1008.94999,455.410238 1009.70137,455.410238 C1009.85165,455.414927 1009.99822,455.361048 1010.11253,455.259096 C1010.40208,454.885775 1010.66702,454.480714 1011,454.001594 C1007.66294,454.001594 1004.43446,454.001594 1001.20598,454.001594 C1001.12266,453.99322 1001.03939,454.018057 1000.97289,454.071119 C1000.67031,454.483737 1000.38076,454.908446 1000.0304,455.408726 C1000.96131,455.408726 1001.7677,455.408726 1002.57844,455.408726 C1003.38918,455.408726 1004.19703,455.57196 1004.89484,456.045034 C1005.2119,456.259656 1005.47394,456.569497 1005.7548,456.837019 L1005.67807,456.957933 L1005.26546,456.948864 Z" id="Shape" fill="#767676" fill-rule="nonzero"></path>
    </g>
</svg>