<?xml version="1.0" encoding="UTF-8"?>
<svg width="32px" height="32px" viewBox="0 0 32 32" version="1.1" xmlns="http://www.w3.org/2000/svg" xmlns:xlink="http://www.w3.org/1999/xlink">
    <!-- Generator: Sketch 48.2 (47327) - http://www.bohemiancoding.com/sketch -->
    <title>transaction</title>
    <desc>Created with Sketch.</desc>
    <defs></defs>
    <g id="Admin--Dashboard" stroke="none" stroke-width="1" fill="none" fill-rule="evenodd" transform="translate(-989.000000, -377.000000)">
        <g id="transaction" transform="translate(989.000000, 377.000000)" fill="#767676" fill-rule="nonzero">
            <path d="M13.6153846,22 C13.2548077,22 12.984375,22 12.7439904,22 C10.0396635,22 7.36538462,22 4.66105769,22 C4,22 4,22 4,21.3746898 C4,17.7121588 4,14.0198511 4,10.3573201 C4,10.2382134 4,10.1191067 4.03004808,10 C12.3533654,10 20.6766827,10 29,10 C29,13.9900744 29,17.9503722 29,21.9702233 C25.7548077,21.9702233 22.4795673,21.9702233 19.1742788,21.9702233 C19.2944712,21.82134 19.3846154,21.7022333 19.4747596,21.5831266 C21.7584135,19.0818859 21.5480769,14.6153846 19.0240385,12.3523573 C17.3112981,10.8039702 14.9074519,10.9528536 13.3449519,12.7096774 C11.1814904,15.1215881 11.1514423,19.1414392 13.2848558,21.5831266 C13.375,21.6724566 13.4651442,21.7915633 13.6153846,22 Z M27.1670673,14.5856079 C27.1670673,13.8114144 27.1370192,13.0372208 27.1670673,12.292804 C27.1670673,11.9354839 27.0769231,11.8461538 26.7163462,11.8461538 C25.484375,11.8759305 24.2524038,11.8461538 22.9903846,11.8461538 C22.4795673,11.8461538 22.4795673,11.8461538 22.4795673,12.382134 C22.4795673,12.471464 22.4795673,12.5310174 22.5096154,12.6501241 C23.7415865,12.6501241 24.9435096,12.6501241 26.2355769,12.6501241 C26.2355769,13.3052109 26.2355769,13.9305211 26.2355769,14.5856079 C26.5961538,14.5856079 26.8365385,14.5856079 27.1670673,14.5856079 Z M22.5396635,20.0049628 C24.1021635,20.0049628 25.6346154,20.0049628 27.1670673,20.0049628 C27.1670673,19.1414392 27.1670673,18.337469 27.1670673,17.5037221 C26.8665865,17.5037221 26.5961538,17.5037221 26.265625,17.5037221 C26.265625,18.0992556 26.265625,18.6352357 26.265625,19.2605459 C25.0036058,19.2605459 23.7716346,19.2605459 22.5396635,19.2605459 C22.5396635,19.528536 22.5396635,19.7667494 22.5396635,20.0049628 Z M10.5504808,12.6501241 C10.5504808,12.4416873 10.5504808,12.3225806 10.5504808,12.2034739 C10.5504808,11.9652605 10.4603365,11.8461538 10.1899038,11.8461538 C8.83774038,11.8461538 7.515625,11.8461538 6.16346154,11.8461538 C6.10336538,11.8461538 6.04326923,11.8759305 5.98317308,11.8759305 C5.98317308,12.7692308 5.98317308,13.662531 5.98317308,14.5558313 C6.22355769,14.5558313 6.46394231,14.5558313 6.734375,14.5558313 C6.734375,14.1091811 6.734375,13.6923077 6.734375,13.2754342 C6.734375,12.6501241 6.734375,12.6501241 7.36538462,12.6501241 C8.41706731,12.6501241 9.43870192,12.6501241 10.5504808,12.6501241 Z M10.5204327,19.2307692 C9.22836538,19.2307692 7.99639423,19.2307692 6.734375,19.2307692 C6.734375,18.6352357 6.734375,18.0694789 6.734375,17.5037221 C6.46394231,17.5037221 6.22355769,17.5037221 5.98317308,17.5037221 C5.98317308,18.3672457 5.98317308,19.1712159 5.98317308,20.0049628 C7.515625,20.0049628 9.01802885,20.0049628 10.5204327,20.0049628 C10.5204327,19.7667494 10.5204327,19.528536 10.5204327,19.2307692 Z" id="Shape"></path>
            <path d="M31.9977542,23 C32.0275473,23.9745223 31.7594097,24.8630573 31.2827206,25.6656051 C30.4187217,27.0987261 29.1376198,28.044586 27.4096219,28.388535 C27.022312,28.4745223 26.6350021,28.4458599 26.2178992,28.4458599 C20.8849401,28.4458599 15.5519811,28.4458599 10.2488151,28.4458599 C10.1296429,28.4458599 10.0104706,28.4458599 9.83171219,28.4745223 C9.83171219,29.6210191 9.83171219,30.7675159 9.83171219,32 C6.49488866,29.5923567 3.24744433,27.2420382 0,24.8917197 C0,24.8630573 0.0297930672,24.8343949 0.0297930672,24.8057325 C0.148965336,24.8057325 0.268137605,24.8057325 0.357516807,24.8057325 C8.99750631,24.8057325 17.6077027,24.8057325 26.2476922,24.8057325 C27.4394149,24.8057325 27.9756901,24.3471338 28.1544485,23.2006369 C28.1544485,23.1433121 28.1842416,23.0859873 28.1842416,23 C29.4653435,23 30.7166523,23 31.9977542,23 Z" id="Shape"></path>
            <path d="M31.9107807,7.15974441 C30.2750929,7.15974441 28.6096654,7.15974441 26.9739777,7.15974441 C19.8364312,7.15974441 12.7286245,7.15974441 5.59107807,7.15974441 C4.6394052,7.15974441 3.98513011,7.67731629 3.89591078,8.59744409 C3.866171,8.91373802 3.71747212,9 3.42007435,9 C2.28996283,9 1.1598513,9 0,9 C0.0594795539,7.90734824 0.29739777,6.95846645 0.862453532,6.12460064 C2.02230483,4.39936102 3.59851301,3.45047923 5.76951673,3.45047923 C11.0929368,3.45047923 16.4460967,3.45047923 21.7695167,3.45047923 C21.8884758,3.45047923 22.0371747,3.45047923 22.1858736,3.45047923 C22.1858736,2.30031949 22.1858736,1.17891374 22.1858736,0.0862619808 C22.2156134,0.0575079872 22.2453532,0.0287539936 22.2750929,0 C25.5464684,2.32907348 28.7583643,4.71565495 32,7.04472843 C31.9405204,7.07348243 31.9107807,7.13099042 31.9107807,7.15974441 Z" id="Shape"></path>
        </g>
    </g>
</svg>