<?xml version="1.0" encoding="utf-8"?>
<!-- Generator: Adobe Illustrator 22.0.1, SVG Export Plug-In . SVG Version: 6.00 Build 0)  -->
<svg version="1.1" id="Layer_1" xmlns="http://www.w3.org/2000/svg" xmlns:xlink="http://www.w3.org/1999/xlink" x="0px" y="0px"
	 viewBox="0 0 79.8 78.1" style="enable-background:new 0 0 79.8 78.1;" xml:space="preserve">
<style type="text/css">
	.st0{fill:#81C784;}
	.st1{fill:#FEFEFE;}
</style>
<path id="Shape_9_" class="st0" d="M40,61.6c-2,0.2-2.9-1.3-3.9-2.4c-0.9-1-1.7-2-2.5-3c-0.5-0.7-0.9-0.7-1.5-0.4
	c-1.5,0.7-3.1,1.3-4.6,1.9c-2.3,0.9-4.3-0.2-4.9-2.5c-0.4-1.5-0.2-3-0.5-4.4c-0.2-1.7-1.2-2-2.6-2.1c-1.5-0.1-3.1-0.1-4.5-0.6
	c-2-0.6-2.6-1.8-2.3-3.7c0.3-1.5,1-2.8,1.6-4.2c0.9-2,0.9-2.3-1-3.5c-1.3-0.9-2.5-1.9-3.6-3c-1.5-1.5-1.4-3,0.1-4.6
	c1.2-1.3,2.8-2.2,4.2-3.3c0.9-0.7,1.1-1.5,0.6-2.5c-0.6-1.3-1.1-2.7-1.7-4c-1.2-2.4,0.2-4.3,2.9-4.9c1.1-0.2,2.1-0.3,3.2-0.3
	c3.1,0,2.9-1.1,3.2-3.1c0.2-1.1,0.1-2.2,0.3-3.3c0.4-2.4,2.4-3.5,4.8-2.6c1.5,0.6,3,1.2,4.5,1.9c0.9,0.4,1.5,0.1,2.1-0.6
	c1.1-1.3,2-2.8,3.3-3.9c1.9-1.8,4.2-1.7,5.8,0.3c0.9,1.1,1.9,2.3,2.7,3.4c0.8,1.1,1.7,1.1,2.8,0.6c1-0.5,2-1,3-1.4
	c3.4-1.4,5.6-0.6,6,3.4c0.1,1.1,0.2,2.2,0.3,3.3c0.1,1.3,0.8,2,2.2,1.9c1.3-0.1,2.7,0.1,4,0.4c2.4,0.5,4.2,1.6,3,5
	c-0.5,1.3-1,2.6-1.7,3.8c-0.6,1.1-0.3,1.8,0.6,2.4c1.1,0.8,2.1,1.6,3.2,2.3c2.8,2,2.9,4.4,0.3,6.5c-1.2,1-2.5,1.9-3.9,2.7
	c-0.7,0.4-0.8,0.8-0.4,1.5c0.8,1.7,1.7,3.4,2.1,5.2c0.5,2.6-0.7,4.1-3.4,4.3c-1.5,0.1-3,0.4-4.6,0.5c-1,0.1-1.4,0.7-1.4,1.6
	c0,1.6-0.2,3.2-0.6,4.7c-0.5,2.3-2.2,3.2-4.4,2.4c-1.7-0.6-3.3-1.2-5-1.9c-0.7-0.3-1.2-0.3-1.7,0.4c-0.9,1.3-1.9,2.6-3,3.8
	C42.3,60.9,41.4,61.7,40,61.6z"/>
<path id="Shape_8_" class="st0" d="M66.1,67c-1.8-0.2-3.7-0.4-5.7-0.6c-1.3-0.2-2,0.2-2.5,1.5c-0.8,2-1.8,4-2.8,5.9
	c-0.9,1.8-2,1.9-3,0.2c-2.5-4.1-5-8.2-7.4-12.3c-0.3-0.5-0.4-0.9,0.1-1.3c0.1-0.1,0.1-0.1,0.2-0.2c0.7-0.9,1.1-2.1,2-2.6
	c0.9-0.5,1.9,0.7,2.9,1c1.2,0.4,2.3,0.8,3.6,0.9c2.4,0.1,4.1-1.2,4.8-3.5c0.4-1.4,0.5-2.8,0.6-4.2c0-0.4-0.1-1,0.6-1.2
	c0.7-0.1,1.1,0.3,1.3,0.7c0.8,1.3,1.6,2.6,2.4,3.9c1.7,2.8,3.4,5.7,5.1,8.5c0.5,0.8,1.2,1.6,0.6,2.7S67,66.7,66.1,67z"/>
<path id="Shape_7_" class="st0" d="M10.8,65.6c0-0.4,0.1-0.9,0.3-1.2c2.5-4.2,5.1-8.3,7.6-12.5c0.4-0.6,0.7-1.6,1.8-1.3
	c0.9,0.3,0.5,1.2,0.6,1.8c0.2,1.2,0.3,2.5,0.7,3.7c0.9,2.8,3.5,4,6.4,3.1c1.4-0.4,2.8-1.1,4.2-1.6c0.5-0.2,0.9-0.3,1.3,0.3
	c2.2,3,2.3,3,0.4,6.1c-1.9,3.2-4,6.4-5.9,9.6c-0.1,0.2-0.3,0.4-0.4,0.6c-1.2,1.4-2,1.3-2.8-0.3c-1-2-2.1-4-2.9-6
	c-0.6-1.5-1.6-1.7-3.1-1.4c-2.2,0.4-4.4,0.5-6.6,0.5C11.4,66.9,10.7,66.7,10.8,65.6z"/>
<path id="Shape_6_" class="st1" d="M39.8,52.8c-12.4,0-22.3-9.7-22.3-21.5c0-11.4,10.4-21.1,22.5-21c12.1,0.1,22.3,9.8,22.2,21.3
	C62.2,43.3,52.1,52.8,39.8,52.8z"/>
<path id="Shape_5_" class="st0" d="M39.9,12.1c-11.4-0.3-19.3,9.8-19.3,19c0.1,10.9,8.5,19.6,19.2,19.6c5.2,0,10.1-2.1,13.7-5.8
	c3.6-3.7,5.6-8.6,5.6-13.8C59.1,21,50.4,11.8,39.9,12.1z M52.1,26.7c-4.8,4.7-9.5,9.5-14.3,14.2c-0.9,0.9-1.7,0.9-2.6,0.2
	c-2.9-2.3-5.3-5-7.9-7.7c-0.7-0.7-0.9-1.7,0-2.5c0.8-0.7,1.7-0.5,2.5,0.2c1.9,1.8,3.7,3.6,5.6,5.5c0.8,0.8,1.2,0.7,1.9-0.1
	c3.8-3.9,7.7-7.8,11.6-11.6c0.4-0.4,0.9-0.8,1.3-1.2c0.5-0.4,1.3-0.5,1.8-0.1c0.6,0.3,0.8,0.8,0.8,1.6
	C52.9,25.7,52.5,26.2,52.1,26.7z"/>
</svg>
