<?xml version="1.0" encoding="utf-8"?>
<!-- Generator: Adobe Illustrator 22.0.1, SVG Export Plug-In . SVG Version: 6.00 Build 0)  -->
<svg version="1.1" id="Layer_1" xmlns="http://www.w3.org/2000/svg" xmlns:xlink="http://www.w3.org/1999/xlink" x="0px" y="0px"
	 viewBox="0 0 79.8 78.1" style="enable-background:new 0 0 79.8 78.1;" xml:space="preserve">
<style type="text/css">
	.st0{fill:#79B404;}
</style>
<path class="st0" d="M69.3,39.4c0,0.5,0,0.9,0,1.4c0,0.2-0.1,0.4-0.1,0.7C69,42.7,69,44,68.8,45.3c-1.4,7.5-5.1,13.6-11.2,18.2
	c-4.3,3.3-9.2,5.2-14.6,5.8c-0.8,0.1-1.6,0.2-2.4,0.3c-0.5,0-0.9,0-1.4,0c-0.2,0-0.4-0.1-0.6-0.1c-1.3-0.1-2.6-0.2-3.9-0.4
	c-7.2-1.3-13.1-4.8-17.7-10.5c-5.5-6.9-7.5-14.9-6-23.6c1.2-6.8,4.4-12.5,9.7-17c7.1-6,15.3-8.3,24.4-6.7
	c7.7,1.3,13.9,5.3,18.5,11.6c3.1,4.2,5,9,5.5,14.2C69.1,37.8,69.2,38.6,69.3,39.4z M52.4,51.3c0.3-0.1,0.5-0.1,0.7-0.2
	c1.3-0.3,2.4-1,2.7-2.4c0.2-1.3-0.1-2.4-1.3-3.2c-0.5-0.3-0.2-0.5,0.1-0.7c2-1,1.6-4.2,0-5.2c-0.6-0.4-0.6-0.4,0-0.9
	c1.7-1.4,1.8-3.5,0.2-4.9c-0.7-0.6-1.5-0.9-2.5-0.9c-2.8,0-5.6,0-8.4,0c-1.1,0-1.4-0.3-1.1-1.4c0.5-1.6,1.1-3.2,1.5-4.7
	c0.5-1.7,0.9-3.4,0.6-5.1c-0.3-1.5-1.1-2.7-2.5-3.3c-1.1-0.5-2-0.2-2.3,1c-0.3,1.1-0.5,2.2-0.7,3.2c-0.4,2-1.1,3.7-2.5,5.2
	c-1.3,1.3-2.4,2.8-3.3,4.4c-0.6,1.2-1.1,2.3-1.7,3.5c-0.6,1.3-1.6,1.8-2.9,1.8c-1.3,0-2.6,0-3.9,0c-1.1,0-1.4,0.4-1.4,1.5
	c0,4.6,0,9.2,0,13.7c0,0.8,0.1,1.2,1.2,1.3c0.5,0.1,1,0,1.6,0c1.4,0.1,2.9,0.1,4.3,0.4c3.4,0.7,6.8,1,10.2,1.1c3.3,0.1,6.7,0.1,10,0
	c1.9,0,2.9-1.9,1.9-3.5C52.8,51.9,52.6,51.7,52.4,51.3z"/>
</svg>
