<?xml version="1.0" encoding="utf-8"?>
<!-- Generator: Adobe Illustrator 22.0.1, SVG Export Plug-In . SVG Version: 6.00 Build 0)  -->
<svg version="1.1" id="Layer_1" xmlns="http://www.w3.org/2000/svg" xmlns:xlink="http://www.w3.org/1999/xlink" x="0px" y="0px"
	 viewBox="0 0 79.8 78.1" style="enable-background:new 0 0 79.8 78.1;" xml:space="preserve">
<style type="text/css">
	.st0{fill:#EF5350;}
</style>
<path class="st0" d="M40.2,5.4c18.2,0,33,14.7,33,33c0,18.2-14.9,33.1-33.1,33.1c-18.3-0.1-33-14.8-33-33C7.2,20.1,22,5.4,40.2,5.4z
	 M60.6,18.9C50.8,8.5,33.3,6.6,21.3,17.5c-12,10.8-11,27.2-4.8,36C31.2,42,45.8,30.4,60.6,18.9z M64.1,23.4
	C49.4,35,34.7,46.5,20,58.1C29.2,67.7,45.3,70,57.2,61C69.7,51.5,71.5,34.9,64.1,23.4z"/>
<path class="st0" d="M30.4,39.8c0-2.1,0-4.1,0-6.1c0-3.6,0-7.2,0-10.8c0-1.6,1-2.7,2.5-2.6c1.1,0,2.1,0.8,2.3,1.9
	c0.1,0.5,0.1,0.9,0.1,1.4c0,2.7,0,5.4,0,8c0,0.4,0,0.8,0.5,0.9c0.5,0.1,0.8-0.2,0.9-0.8c0-1.7,0-3.4,0-5.1c0-2.6,0-5.3,0-7.9
	c0-1.7,1.3-2.7,2.8-2.5c0.9,0.2,1.7,0.9,1.9,1.8c0.1,0.3,0.1,0.6,0.1,0.9c0,3.9,0,7.9,0,11.8c0,0.3-0.1,0.7-0.4,0.9
	c-3.4,2.6-6.8,5.3-10.2,7.9C30.7,39.6,30.6,39.6,30.4,39.8z"/>
<path class="st0" d="M42.6,30.3c0-2.2,0-4.2,0-6.2c0-0.9,0-1.7,0-2.6c0-1.3,1-2.4,2.3-2.4c1.3,0,2.4,0.9,2.5,2.2c0.1,1.7,0,3.3,0,5
	c0,0.2-0.1,0.4-0.2,0.5C45.7,27.9,44.2,29,42.6,30.3z"/>
<path class="st0" d="M29.5,40.7c-1.6,1.2-3.1,2.4-4.7,3.7c-0.8-0.8-1.6-1.6-2.3-2.5c-0.5-0.7-0.4-1.4,0.3-2c1-0.9,2.2-1.1,3.5-0.8
	C27.5,39.3,28.6,39.8,29.5,40.7z"/>
<path class="st0" d="M52.8,22.4c-1.3,1.1-2.7,2.2-4.2,3.3c0-1.1-0.2-2,0.3-3C49.7,21.2,51.8,21,52.8,22.4z"/>
<path class="st0" d="M31.6,51.4C38.9,45.6,46,40,53.3,34.2c0,0.4,0,0.6,0,0.8c0,4,0,8,0,12c0,3.4-1.3,6.1-3.8,8.4
	c-0.2,0.2-0.4,0.6-0.4,0.9c0,1.4,0,2.8,0,4.3c-4.7,0-9.4,0-14.2,0c0-0.9,0-1.9,0-2.8c0.1-1.4-0.4-2.5-1.3-3.5
	C32.8,53.4,32.2,52.4,31.6,51.4z"/>
</svg>
