<?xml version="1.0" encoding="utf-8"?>
<!-- Generator: Adobe Illustrator 22.0.1, SVG Export Plug-In . SVG Version: 6.00 Build 0)  -->
<svg version="1.1" id="Layer_1" xmlns="http://www.w3.org/2000/svg" xmlns:xlink="http://www.w3.org/1999/xlink" x="0px" y="0px"
	 viewBox="0 0 79.8 78.1" style="enable-background:new 0 0 79.8 78.1;" xml:space="preserve">
<style type="text/css">
	.st0{fill:#EF5350;}
</style>
<path class="st0" d="M72.4,37.9c-0.1,19.2-15.7,33.7-33.8,33.7C20.4,71.5,5.1,56.7,5.1,37.8c0-18.5,15.1-33.5,33.7-33.5
	C57,4.2,72.3,18.9,72.4,37.9z M44.2,39.8c0.3-0.4,0.6-0.7,0.9-1c3.6-3.8,7.3-7.7,10.9-11.5c1.5-1.6,1.7-3.8,0.4-5.4
	c-1.6-2.1-4.5-2.3-6.4-0.3c-3.7,3.8-7.3,7.7-11,11.6c-0.2,0.2-0.3,0.5-0.4,0.7c-1.1-1.2-2-2.1-3-3.1c-2.8-3-5.7-6-8.5-9
	c-0.8-0.9-1.8-1.5-3-1.5c-1.7-0.1-3.2,0.8-3.9,2.3c-0.7,1.5-0.5,3.3,0.7,4.6c3,3.2,6,6.4,9,9.6c1,1,1.9,2,2.9,3.1
	c-0.2,0.2-0.3,0.4-0.5,0.5c-3.4,3.6-6.8,7.2-10.2,10.8c-0.8,0.8-1.2,1.7-1.3,2.8c-0.1,1.7,0.9,3.3,2.5,4c1.6,0.7,3.4,0.3,4.7-1
	c3.3-3.5,6.7-7,10-10.6c0.2-0.2,0.3-0.4,0.5-0.7c0.4,0.4,0.6,0.7,0.9,1c3.2,3.4,6.5,6.8,9.7,10.2c0.9,1,2.1,1.5,3.4,1.4
	c1.7-0.1,3-1.1,3.6-2.7c0.6-1.6,0.2-3.1-1-4.4c-2.4-2.6-4.8-5.1-7.3-7.7C46.6,42.3,45.4,41.1,44.2,39.8z"/>
</svg>
