<?xml version="1.0" encoding="utf-8"?>
<!-- Generator: Adobe Illustrator 22.0.1, SVG Export Plug-In . SVG Version: 6.00 Build 0)  -->
<svg version="1.1" id="Layer_1" xmlns="http://www.w3.org/2000/svg" xmlns:xlink="http://www.w3.org/1999/xlink" x="0px" y="0px"
	 viewBox="0 0 79.8 97" style="enable-background:new 0 0 79.8 97;" xml:space="preserve">
<style type="text/css">
	.st0{fill:#FBB03B;}
</style>
<path class="st0" d="M10.5,89.9c0-1.6,0-3.2,0-4.9c0.3-0.9,1-1.3,2-1.2c1.2,0,2.4,0,3.7,0c0.3,0,0.6,0,1,0c0-0.2,0-0.3,0-0.4
	c0.1-1.5,0.2-3,0.3-4.5c0.5-4.3,1.8-8.4,3.7-12.3c1.4-2.9,3.2-5.5,5-8.2c1.3-1.9,2.6-3.7,3.6-5.8c1.4-3.1,1.3-6.1-0.9-8.8
	c-1-1.2-2-2.4-3-3.5c-4.4-4.8-6.9-10.5-8-16.9c-0.5-3-0.7-6-0.8-9c0-0.2,0-0.4,0-0.7c-0.2,0-0.4,0-0.5,0c-1.3,0-2.7,0-4,0
	c-1,0-1.7-0.3-2-1.2c0-1.6,0-3.2,0-4.9c19.3,0,38.6,0,58,0c0,1.5,0,2.9,0,4.4c0,1.1-0.6,1.7-1.7,1.7c-1.3,0-2.7,0-4,0
	c-0.1,0-0.3,0-0.5,0c0,0.2,0,0.4,0,0.5c0,3.2-0.3,6.4-0.8,9.5c-1.1,6.1-3.5,11.5-7.6,16.2c-1.2,1.3-2.3,2.7-3.4,4
	c-1.1,1.4-1.8,3-1.8,4.9c0,1.7,0.5,3.2,1.3,4.6c1.1,1.8,2.2,3.6,3.4,5.4c1.7,2.6,3.5,5.2,4.8,8c2.2,4.4,3.4,9.1,3.8,14
	c0.1,1,0.1,1.9,0.2,3c0.2,0,0.3,0,0.5,0c1.3,0,2.6,0,3.9,0c1.3,0,1.9,0.6,1.9,1.8c0,1.3,0,2.5,0,3.8c0,0.1,0,0.3,0,0.5
	c-0.2,0-0.4,0-0.6,0c-18.9,0-37.8,0-56.8,0C10.8,89.9,10.6,89.9,10.5,89.9z M57.9,83.8c-0.1-1.5-0.2-2.9-0.3-4.3
	c-0.5-4.5-1.7-8.7-3.7-12.8c-1.5-3-3.3-5.7-5.1-8.4c-1.3-1.8-2.6-3.7-3.5-5.7c-1.4-3.1-1.2-6,0.9-8.7c1-1.3,2.1-2.5,3.1-3.7
	c3.5-3.9,5.9-8.3,7.2-13.3c1.1-4.3,1.5-8.6,1.5-13c0-0.1,0-0.1,0-0.2c-12.2,0-24.5,0-36.7,0c0,0.2,0,0.3,0,0.5
	c0,3.2,0.3,6.4,0.8,9.5c1.1,6.2,3.5,11.6,7.7,16.3c1.1,1.3,2.3,2.6,3.3,3.9c1.2,1.6,1.9,3.3,1.8,5.4c-0.1,1.5-0.6,2.8-1.3,4.1
	c-1.2,2.1-2.6,4.1-3.9,6.1c-2.1,3.2-4.1,6.4-5.5,9.9c-1.6,4-2.5,8.2-2.7,12.5c0,0.6,0,1.2,0,1.9c0.6,0,1.3,0,1.9,0
	c0.3,0,0.4-0.1,0.4-0.3c0.2-0.4,0.4-0.8,0.6-1.2c1.1-1.7,2.6-2.9,4.4-3.9c2.5-1.4,5.1-2.7,7.6-4c1.2-0.6,2-1.5,2.5-2.7
	c0.2-0.4,0.4-0.8,0.5-1.2c0.3,0.6,0.6,1.2,0.9,1.8c0.4,0.8,1,1.4,1.7,1.9c0.7,0.4,1.4,0.8,2.1,1.2c1.9,1,3.8,1.9,5.6,2.9
	c2.3,1.3,4.3,2.8,5.3,5.4c0,0.1,0.2,0.2,0.2,0.2C56.2,83.8,57,83.8,57.9,83.8z"/>
<path class="st0" d="M53,30.5c-0.8,1-1.6,2.1-2.5,3c-2.5,2.8-5,5.6-7.5,8.3c-1.7,1.8-2.5,4-2.7,6.5c-0.1,0.8-0.2,1.6-0.3,2.4
	c0,0.1,0,0.1-0.1,0.2c-0.2-1.2-0.4-2.4-0.5-3.6c-0.2-2-1-3.6-2.3-5.1c-2.4-2.6-4.8-5.2-7.1-7.8c-1-1.1-1.9-2.3-2.9-3.5
	c-0.1-0.2-0.2-0.3-0.3-0.6c8.7,5.6,17.5,5.6,26.2,0C53,30.4,53,30.4,53,30.5z"/>
</svg>
