<?xml version="1.0" encoding="utf-8"?>
<!-- Generator: Adobe Illustrator 22.0.1, SVG Export Plug-In . SVG Version: 6.00 Build 0)  -->
<svg version="1.1" id="Layer_1" xmlns="http://www.w3.org/2000/svg" xmlns:xlink="http://www.w3.org/1999/xlink" x="0px" y="0px"
	 viewBox="0 0 79.8 78.1" style="enable-background:new 0 0 79.8 78.1;" xml:space="preserve">
<style type="text/css">
	.st0{fill:#EF5350;}
</style>
<path class="st0" d="M55.1,29.1c-1.7-1.8-3.1-3.1-4.4-4.6c-0.3-0.4-0.4-1.1-0.4-1.6c-0.1-1.7,0-3.3,0-5c0-1.4-0.6-2-2.1-2
	c-11.3,0-22.6,0-33.9,0c-1.9,0-2.1,1.1-2.1,2.6c0,7.5,0,14.9,0,22.4c0,6.6,0,13.2,0,19.9c0,2.6,0.3,2.9,2.8,2.9
	c10.8,0,21.6,0,32.5,0c2.5,0,3.1-0.3,2.7-2.7c-0.6-4.1,2.6-5.6,4.8-8.1c0.1,0.7,0.2,1,0.2,1.4c0,3,0.1,6,0,9
	c-0.1,3.5-2.3,5.7-5.7,5.7c-12.1,0-24.3,0-36.4,0c-3.4,0-5.7-2.2-5.8-5.6c0-15.6-0.1-31.2,0-46.8c0-3.6,2.3-5.7,5.9-5.7
	c12.1,0,24.1,0,36.2,0c3.2,0,5.6,2,5.7,4.9C55.2,19.9,55.1,24.2,55.1,29.1z"/>
<path class="st0" d="M49.1,40.8c-2.7-2.7-5.3-5.2-7.8-7.8c-2.3-2.3-2.4-4.9-0.5-6.9c1.9-1.9,4.7-1.7,6.9,0.5
	c2.6,2.5,5.1,5.1,7.7,7.8c2.7-2.7,5.4-5.3,8-8c1.4-1.4,3.1-2,5-1.4c3.3,1.1,4.1,5.1,1.6,7.6c-2.6,2.7-5.3,5.2-8.1,8
	c1.4,1.4,2.7,2.7,4,4c1.3,1.3,2.7,2.7,4,4c2,2,2.1,4.8,0.3,6.6c-1.9,1.9-4.6,1.8-6.6-0.2c-2.7-2.6-5.3-5.3-8.1-8.1
	c-2.5,2.5-4.9,4.9-7.3,7.3c-2.7,2.7-5.3,3.1-7.4,1c-2.1-2.1-1.8-4.7,0.9-7.4C44.2,45.7,46.6,43.3,49.1,40.8z"/>
</svg>
