<?xml version="1.0" encoding="utf-8"?>
<!-- Generator: Adobe Illustrator 22.0.1, SVG Export Plug-In . SVG Version: 6.00 Build 0)  -->
<svg version="1.1" id="Layer_1" xmlns="http://www.w3.org/2000/svg" xmlns:xlink="http://www.w3.org/1999/xlink" x="0px" y="0px"
	 viewBox="0 0 79.8 78.1" style="enable-background:new 0 0 79.8 78.1;" xml:space="preserve">
<style type="text/css">
	.st0{fill:#5097FF;}
</style>
<path class="st0" d="M74.9,58.1c-0.6,2.1-1.3,4.1-2.9,5.7c-2,2-4.3,3.1-7.1,3.1c-11.6,0-23.1,0.1-34.7,0c-5.3,0-9.7-4.2-10-9.5
	c-0.2-3.8,0-7.5,0-11.2c0.4-0.3,0.8-0.5,1.1-0.8c1.1-0.9,2.6-0.8,3.8,0c1,0.6,1.2,1.3,1.2,2.4c-0.1,2.8,0,5.6,0,8.4
	c0,3,1.7,4.7,4.7,4.7c11.1,0,22.2,0,33.2,0c3,0,4.6-1.7,4.7-4.7c0-11.1,0-22.2,0-33.2c0-3-1.6-4.7-4.7-4.7c-11.1,0-22.2,0-33.2,0
	c-3,0-4.6,1.7-4.6,4.7c0,2.8,0,5.6,0,8.5c0,0.5,0.1,1.4-0.2,1.6c-0.8,0.6-1.9,1.3-2.8,1.3c-1,0-2-0.8-3-1.3
	c-0.1-0.1-0.1-0.4-0.1-0.7c0-3.3-0.1-6.7,0-10c0.1-5.7,4.5-10.1,10.2-10.1c11.4,0,22.8,0,34.2,0c5,0,9,3.3,10.1,8.2
	c0,0.2,0.1,0.4,0.2,0.6C74.9,33.3,74.9,45.7,74.9,58.1z"/>
<path class="st0" d="M4.2,38.7c0.9-1.8,2.4-2.3,4.3-2.3c12.6,0.1,25.2,0,37.8,0c0.3,0,0.7,0,1.3,0c-0.4-0.4-0.6-0.7-0.9-0.9
	c-1.6-1.6-3.1-3.1-4.7-4.7c-1.5-1.5-1.6-3.3-0.2-4.6c1.3-1.3,3.1-1.2,4.5,0.3c3.5,3.5,7.1,7,10.6,10.6c1.6,1.6,1.6,3.3,0,4.9
	c-3.5,3.5-7,7.1-10.6,10.6c-1.5,1.5-3.3,1.6-4.5,0.3c-1.3-1.3-1.2-3.1,0.3-4.6c1.8-1.8,3.6-3.6,5.3-5.6c-0.4,0-0.8,0-1.2,0
	c-12.6,0-25.1,0-37.7,0c-1.9,0-3.4-0.4-4.3-2.3C4.2,39.8,4.2,39.3,4.2,38.7z"/>
</svg>
