<?xml version="1.0" encoding="utf-8"?>
<!-- Generator: Adobe Illustrator 22.0.1, SVG Export Plug-In . SVG Version: 6.00 Build 0)  -->
<svg version="1.1" id="Layer_1" xmlns="http://www.w3.org/2000/svg" xmlns:xlink="http://www.w3.org/1999/xlink" x="0px" y="0px"
	 viewBox="0 0 79.8 78.1" style="enable-background:new 0 0 79.8 78.1;" xml:space="preserve">
<style type="text/css">
	.st0{fill:#EF5350;}
	.st1{fill:#E50000;}
	.st2{fill:#E70000;}
	.st3{fill:#FBFBFB;}
	.st4{fill:#FFFFFF;}
	.st5{fill:#FAFAFA;}
</style>
<path class="st0" d="M40,11.6c-15.2,0-27.6,12.4-27.6,27.6c0,15.3,12.3,27.6,27.6,27.6c15.2,0,27.6-12.3,27.6-27.6
	C67.6,24.1,55.2,11.7,40,11.6z M54,56.9c-5,3.9-10.7,5.5-17.1,4.7c-9.9-1.3-17.6-8.8-19.3-18.7c-1.1-6.6,0.5-12.5,4.6-17.8
	c0.2-0.3,0.4-0.3,0.6,0c2,2.1,4.1,4.1,6.1,6.1c0.1,0.1,0.3,0.2,0.4,0.3c0.1,0,0.2,0.1,0.2,0.3c0.1,0.3,0,0.5,0,0.8
	c0,4.8,0,9.6,0,14.5c0,2.6,1,4.8,2.7,6.7c1.5,1.5,1.2,0.9,1.3,3.1c0,0.8,0,1.5,0,2.3c0,0.4,0.2,0.6,0.6,0.6c3.7,0,7.5,0,11.2,0
	c0.6,0,0.6-0.1,0.6-0.6c0-1.1,0-2.3,0-3.4c0-0.4,0.1-0.8,0.4-1c1-0.8,1.7-1.8,2.3-2.8c0.1-0.1,0.2-0.3,0.3-0.3c0.1,0,0.1,0,0.2,0.1
	c1.5,1.6,3.1,3.1,4.7,4.7C54.4,56.5,54.4,56.6,54,56.9z M57.6,53.3c-0.1,0.1-0.2,0.4-0.4,0.4c-0.2-0.1-0.3-0.2-0.4-0.3
	c-2.1-2.1-4.2-4.2-6.2-6.2c-0.2-0.2-0.4-0.3-0.4-0.6c0-0.3,0-0.6,0-0.9c0-6,0-11.9,0-17.9c0-0.2,0-0.4,0-0.7
	c-0.1-0.8-0.7-1.4-1.5-1.5c-0.9,0-1.6,0.5-1.7,1.4c0,0.3,0,0.5,0,0.8c0,3.1,0,6.2,0,9.3c0,0.2,0,0.5,0,0.7c-0.1,0.2-0.2,0.4-0.5,0.4
	c-0.3,0-0.4-0.1-0.5-0.4c-0.1-0.2,0-0.5,0-0.7c0-4.4,0-8.9,0-13.3c0-0.2,0-0.4,0-0.7c-0.1-1-0.8-1.7-1.7-1.7c-0.9,0-1.6,0.7-1.6,1.7
	c0,3.7,0,7.5,0,11.2c0,0.9,0,1.8,0,2.7c0,0.2,0,0.4,0,0.6c-0.1,0.3-0.2,0.5-0.6,0.5c-0.3,0-0.4-0.3-0.4-0.5c0-0.2,0-0.4,0-0.6
	c0-5.3,0-10.5,0-15.8c0-0.5-0.1-0.9-0.2-1.4c-0.3-0.6-0.8-1-1.5-1c-0.7,0-1.3,0.4-1.5,1.1c-0.1,0.4-0.1,0.8-0.1,1.2
	c0,4.1,0,8.2,0,12.4c0,0.3,0,0.6-0.1,0.9c-0.1,0.2-0.2,0.2-0.3,0c-0.2-0.2-0.5-0.4-0.6-0.7c-0.1-0.3,0-0.5,0-0.8c0-3.2,0-6.4,0-9.6
	c0-0.5-0.1-1-0.5-1.4c-0.5-0.5-1-0.6-1.7-0.4c-0.6,0.2-1,0.7-1.1,1.3c0,0.2,0,0.4,0,0.7c0,1.9,0,3.8,0,5.7c0,0.3,0,0.5,0,0.8
	c-0.1,0.1-0.1,0.3-0.3,0.1c-0.1-0.1-0.2-0.2-0.3-0.3c-2.5-2.5-4.9-4.9-7.4-7.4c-0.5-0.5-0.5-0.5,0.1-0.9c1.9-1.4,3.9-2.6,6.1-3.4
	c11.7-4.4,25.2,1.9,29.2,13.8C63.9,39.6,62.6,46.8,57.6,53.3z"/>
<path class="st1" d="M50.4,46.7c1.3,1.3,2.7,2.7,4,4c1,1,1.9,1.9,2.9,2.9c-0.3,0.1-0.3-0.2-0.4-0.3c-5.7-5.7-11.3-11.3-17-17
	c-0.6-0.6-1.2-1.2-1.7-1.8c0,0,0-0.1,0-0.1c0,0,0,0,0,0c0.3,0,0.4,0.2,0.5,0.3c0.9,0.9,1.9,1.9,2.8,2.8c0.1,0.1,0.2,0.2,0.3,0.3
	c2.7,2.7,5.5,5.5,8.2,8.2C50,46.3,50.2,46.5,50.4,46.7z"/>
<path class="st2" d="M49.4,51.5c0,0-0.1,0-0.1,0c-0.2-0.1-0.3-0.2-0.4-0.3C43.9,46.1,39,41.2,34,36.2c-0.1-0.1-0.2-0.2-0.3-0.3
	c0,0,0-0.1,0-0.1c0.2,0,0.3,0.1,0.5,0.3c5,5,10,10,15,15C49.3,51.1,49.4,51.2,49.4,51.5z"/>
<path class="st1" d="M38.1,34.5c0,0,0,0.1,0,0.1c-0.1-0.1-0.2-0.2-0.3-0.3c-4-4-8-8-12-12c-0.4-0.4-0.4-0.7,0.2-0.9
	c-0.4,0.3-0.4,0.5,0,0.9c2.5,2.4,4.9,4.9,7.4,7.4c0.1,0.1,0.2,0.2,0.4,0.3c0.2,0,0.3,0.1,0.4,0.3c1,1,1.9,1.9,2.9,2.9
	c0.1,0.1,0.2,0.3,0.3,0.4C37.5,34,37.8,34.2,38.1,34.5C38.1,34.4,38.1,34.5,38.1,34.5z"/>
<path class="st3" d="M33.7,35.8c0,0,0,0.1,0,0.1c0.3,0.7,0.2,1.4,0.1,2.1c0,0.3-0.2,0.4-0.5,0.4c-0.3,0-0.4-0.2-0.4-0.4
	c0-0.9-0.1-1.9,0.1-2.8c0-0.1,0.1-0.1,0.2,0C33.3,35.4,33.5,35.6,33.7,35.8z"/>
<path class="st2" d="M33.1,35.2C33.1,35.2,33.1,35.1,33.1,35.2c-0.3,0-0.4-0.2-0.5-0.3c-0.9-0.9-1.7-1.7-2.6-2.6
	c-0.1-0.1-0.3-0.3-0.4-0.5c0-0.1-0.1-0.1-0.1-0.2c0.2,0,0.3,0.1,0.4,0.2c1,1,2,2,3,3C33,34.9,33.1,35,33.1,35.2z"/>
<path class="st4" d="M38.1,34.5C38.1,34.5,38.1,34.4,38.1,34.5c0-2.9,0-5.7,0-8.5c0-1.8,0-3.6,0-5.4c0-1.4,1.2-2.3,2.4-1.8
	c0.6,0.2,1,0.7,1.1,1.4c0,0.3,0,0.5,0,0.8c0,5.5,0,10.9,0,16.4c0,0.3-0.2,0.8,0.3,0.8c0.5,0,0.4-0.5,0.4-0.8c0-4.7,0-9.3,0-14
	c0-1.2,0.7-2,1.7-2c1-0.1,1.8,0.7,1.9,1.6c0,0.2,0,0.4,0,0.6c0,4.6,0,9.2,0,13.8c0,0.2,0,0.3,0,0.5c0,0.2,0.2,0.3,0.4,0.3
	c0.2,0,0.3-0.1,0.3-0.3c0-0.2,0-0.3,0-0.5c0-3.3,0-6.6,0-9.9c0-1.2,0.8-2,2-1.9c0.8,0.1,1.5,0.7,1.6,1.6c0,0.2,0,0.3,0,0.5
	c0,6.3,0,12.6,0,19c0,0.1,0,0.2,0,0.4c-0.5-0.5-0.9-0.9-1.4-1.4c-2.4-2.4-4.7-4.7-7.1-7.1c-0.1-0.1-0.2-0.3-0.3-0.4
	c-0.1-0.1-0.1-0.2-0.1-0.3c0-5.6,0-11.2,0-16.8c0-0.2-0.1-0.3,0.1-0.5c0,0,0,0.1-0.1,0c0,0,0,0,0,0c0,0.2,0,0.3,0,0.5
	c0,5.4,0,10.9,0,16.3c0,0.2,0.2,0.4-0.1,0.5C40.2,36.6,39.2,35.6,38.1,34.5z"/>
<path class="st4" d="M37.3,33.7c-1.2-1.2-2.4-2.4-3.6-3.6c0-2.3,0-4.7,0-7c0-1,0.7-1.8,1.6-1.9c1.1-0.1,2,0.7,2,1.8
	c0,1.8,0,3.6,0,5.4C37.3,30.1,37.3,31.9,37.3,33.7z"/>
<path class="st5" d="M50.6,46.7c0-6.5,0-13.1,0-19.6c0,0,0,0,0.1,0C50.6,33.6,50.6,40.2,50.6,46.7C50.6,46.7,50.6,46.7,50.6,46.7z"
	/>
<path class="st4" d="M29.6,31.8c1.2,1.1,2.3,2.2,3.4,3.4c0,0.9,0,1.8,0,2.7c0,0.3,0.1,0.5,0.4,0.5c0.3,0,0.4-0.2,0.4-0.5
	c0-0.7,0-1.3,0-2c0.1,0.1,0.2,0.1,0.3,0.2c5,5,10,10,15,15c0.1,0.1,0.2,0.2,0.3,0.3c-0.7,1.3-1.6,2.5-2.7,3.4
	c-0.2,0.2-0.2,0.4-0.2,0.6c0,1.3,0,2.7,0,4c0,0.3,0,0.5-0.4,0.5c-4,0-7.9,0-11.9,0c-0.3,0-0.4-0.1-0.4-0.4c0-1.3,0-2.7,0-4
	c0-0.3-0.1-0.5-0.3-0.7c-2.4-2.1-3.6-4.7-3.7-7.8c0-5,0-10,0-15C29.6,31.9,29.6,31.8,29.6,31.8z"/>
<path class="st5" d="M46.2,60.1c-4.1,0-8.3,0-12.4,0c0,0,0,0,0-0.1C37.9,60.1,42.1,60.1,46.2,60.1C46.2,60.1,46.2,60.1,46.2,60.1z"
	/>
</svg>
