<?xml version="1.0" encoding="UTF-8"?>
<svg width="37px" height="37px" viewBox="0 0 37 37" version="1.1" xmlns="http://www.w3.org/2000/svg" xmlns:xlink="http://www.w3.org/1999/xlink">
    <!-- Generator: Sketch 48.2 (47327) - http://www.bohemiancoding.com/sketch -->
    <title>3</title>
    <desc>Created with Sketch.</desc>
    <defs></defs>
    <g id="Sign-In-Page" stroke="none" stroke-width="1" fill="none" fill-rule="evenodd" transform="translate(-221.000000, -810.000000)">
        <g id="3" transform="translate(221.000000, 810.000000)" fill="#FFFFFF" fill-rule="nonzero">
            <path d="M28.6623941,8.08898776 C29.1810164,8.08898776 29.6996387,8.08898776 30.2182611,8.08898776 C31.3592302,8.08898776 32.3964748,8.08898776 33.5374439,8.08898776 C35.7156577,8.08898776 37.2715246,10.1179088 36.9603512,12.2536151 C36.5454534,15.0300334 36.1305555,17.9132369 35.6119332,20.6896552 C35.3007598,22.7185762 33.8486173,24 31.8778525,24 C28.3512207,24 24.9283134,24 21.4016816,24 C20.9867837,24 20.5718859,23.8932147 20.156988,23.679644 C19.7420902,23.5728587 19.5346412,23.1457175 19.1197434,23.0389321 C18.80857,22.9321468 18.3936721,23.2525028 17.9787743,23.2525028 C16.8378052,23.2525028 15.8005605,23.2525028 14.6595914,23.2525028 C13.6223468,23.2525028 13,22.5050056 13,21.5439377 C13,17.9132369 13,14.2825362 13,10.6518354 C13,9.69076752 13.6223468,9.05005562 14.6595914,8.9432703 C15.8005605,8.9432703 16.9415296,8.9432703 18.0824987,8.9432703 C18.3936721,8.9432703 18.80857,9.15684093 19.0160189,9.26362625 C19.2234678,9.37041157 19.4309168,9.47719689 19.6383657,9.37041157 C20.4681614,9.05005562 21.1942327,8.62291435 21.8165795,7.98220245 C22.5426507,7.23470523 22.9575486,6.38042269 22.9575486,5.2057842 C22.9575486,3.9243604 22.9575486,2.6429366 22.9575486,1.25472747 C22.9575486,0.507230256 23.1649975,0.186874305 23.8910687,0.0800889878 C24.61714,-0.0266963293 25.2394868,-0.0266963293 25.965558,0.0800889878 C27.521425,0.400444939 28.5586696,1.68186874 28.6623941,3.39043382 C28.7661186,4.67185762 28.7661186,5.84649611 28.7661186,7.12791991 C28.6623941,7.55506118 28.6623941,7.76863181 28.6623941,8.08898776 Z M24.7208644,2.10901001 C24.7208644,3.17686318 24.7208644,4.24471635 24.7208644,5.31256952 C24.7208644,7.23470523 23.9947932,8.83648498 22.5426507,10.0111235 C21.8165795,10.5450501 20.9867837,10.9721913 20.156988,11.3993326 C19.8458146,11.5061179 19.7420902,11.6129032 19.7420902,11.9332592 C19.7420902,14.7096774 19.7420902,17.4860957 19.7420902,20.1557286 C19.7420902,21.650723 20.6756103,22.3982202 21.9203039,22.3982202 C25.1357623,22.3982202 28.2474962,22.3982202 31.4629546,22.3982202 C31.774128,22.3982202 32.0853014,22.3982202 32.3964748,22.2914349 C33.329995,22.0778643 33.8486173,21.5439377 34.0560662,20.5828699 C34.4709641,17.8064516 34.8858619,15.1368187 35.3007598,12.3604004 C35.3007598,12.0400445 35.4044843,11.7196885 35.4044843,11.3993326 C35.1970353,10.4382647 34.4709641,9.90433815 33.5374439,9.90433815 C31.774128,9.90433815 30.0108121,9.90433815 28.3512207,9.90433815 C27.521425,9.90433815 27.2102516,9.5839822 27.2102516,8.72969967 C27.2102516,7.23470523 27.2102516,5.73971079 27.2102516,4.24471635 C26.8990782,2.6429366 26.0692825,1.89543938 24.7208644,2.10901001 Z" id="Shape"></path>
            <path d="M9.12264949,34.0759967 C9.33236557,33.8656751 9.43722361,33.7605142 9.54208165,33.6553534 C11.4295264,31.8676193 13.2121131,30.0798853 15.0995578,28.2921512 C15.4141319,27.9766687 15.8335641,27.7663471 16.2529962,27.7663471 C20.7618919,27.7663471 25.3756457,27.7663471 29.8845414,27.7663471 C31.457412,27.7663471 32.6108505,27.1353821 33.3448568,25.6631305 C33.5545728,25.1373264 33.974005,25.0321655 34.4982952,25.2424872 C34.9177274,25.4528089 35.1274434,25.8734522 34.9177274,26.3992563 C34.1837211,28.2921512 32.2962764,29.5540811 30.0942575,29.5540811 C25.6902198,29.5540811 21.2861821,29.5540811 16.8821445,29.5540811 C16.4627123,29.5540811 16.1481382,29.659242 15.8335641,29.9747244 C13.5266872,32.1831018 11.3246683,34.3914792 9.01779145,36.5998566 C8.70321733,36.9153391 8.38864321,37.1256607 7.96921105,36.9153391 C7.54977889,36.7050174 7.44492085,36.3895349 7.44492085,35.8637308 C7.44492085,33.9708359 7.44492085,32.077941 7.44492085,30.1850461 C7.44492085,29.9747244 7.44492085,29.8695636 7.44492085,29.659242 C6.60605653,29.659242 5.87205025,29.659242 5.13804397,29.659242 C2.51659296,29.659242 0.524290201,27.9766687 0.10485804,25.4528089 C0,25.0321655 0,24.7166831 0,24.4012006 C0,19.3534808 0,14.3057611 0,9.15288056 C0,6.10321655 2.0971608,4 5.13804397,4 C10.1712299,4 15.2044158,4 20.2376017,4 C20.4473178,4 20.6570339,4 20.86675,4.10516083 C21.2861821,4.31548248 21.3910402,4.63096497 21.2861821,5.05160828 C21.1813241,5.47225159 20.86675,5.68257324 20.4473178,5.68257324 C18.6647311,5.68257324 16.9870025,5.68257324 15.2044158,5.68257324 C11.8489585,5.68257324 8.49350125,5.68257324 5.13804397,5.68257324 C3.04088316,5.68257324 1.5728706,7.049664 1.5728706,9.25804138 C1.5728706,14.3057611 1.5728706,19.3534808 1.5728706,24.2960397 C1.5728706,26.2940955 2.93602512,27.7663471 5.03318593,27.7663471 C5.97690829,27.7663471 7.02548869,27.7663471 7.96921105,27.7663471 C8.70321733,27.7663471 9.01779145,28.0818295 9.01779145,28.8179553 C9.01779145,30.2902069 9.01779145,31.8676193 9.01779145,33.3398709 C9.12264949,33.6553534 9.12264949,33.7605142 9.12264949,34.0759967 Z" id="Shape"></path>
        </g>
    </g>
</svg>