<?xml version="1.0" encoding="UTF-8"?>
<svg width="39px" height="43px" viewBox="0 0 39 43" version="1.1" xmlns="http://www.w3.org/2000/svg" xmlns:xlink="http://www.w3.org/1999/xlink">
    <!-- Generator: Sketch 48.2 (47327) - http://www.bohemiancoding.com/sketch -->
    <title>Group</title>
    <desc>Created with Sketch.</desc>
    <defs></defs>
    <g id="Sign-In-Page" stroke="none" stroke-width="1" fill="none" fill-rule="evenodd" transform="translate(-220.000000, -578.000000)">
        <g id="Group" transform="translate(220.000000, 578.000000)" fill="#FFFFFF" fill-rule="nonzero">
            <path d="M38.0014225,35.4697555 C37.2247511,34.8129012 36.2261735,34.2655226 35.227596,33.8276197 C32.3428165,32.6233868 29.3470839,32.185484 26.2403983,31.8570568 C25.2418208,31.7475811 24.3541963,31.6381054 23.3556188,31.5286296 C24.0213371,30.4338725 24.6870555,29.3391153 25.3527738,28.3538338 C27.571835,24.6316594 29.7908962,20.909485 31.2332859,16.8588835 C32.0099573,14.7788448 32.4537696,12.5893305 32.0099573,10.2903404 C30.6785206,3.72179734 24.4651494,-0.766707082 17.6970128,0.10909866 C11.4836415,0.984904401 6.60170697,6.56816601 6.82361309,12.8082819 C6.93456615,14.8883206 7.71123755,16.8588835 8.48790896,18.7199707 C10.374111,22.9895237 12.7041252,26.9306495 15.1450925,30.7622996 C15.2560455,30.9812511 15.4779516,31.2002025 15.5889047,31.5286296 C13.9246088,31.7475811 12.371266,31.8570568 10.8179232,32.0760082 C8.26600284,32.4044354 5.60312945,32.951814 3.27311522,34.0465712 C2.38549075,34.484474 1.49786629,35.0318526 0.832147937,35.5792312 C-0.277382646,36.5645127 -0.277382646,37.7687456 0.832147937,38.8635027 C1.49786629,39.4108813 2.16358464,39.9582599 2.94025605,40.2866871 C5.60312945,41.6003957 8.59886202,42.1477743 11.5945946,42.4762014 C15.2560455,42.9141043 19.0284495,43.1330557 22.8008535,42.9141043 C26.1294452,42.6951529 29.458037,42.3667257 32.6756757,41.49092 C34.5618777,40.9435414 36.4480797,40.3961628 38.0014225,39.0824542 C39.3328592,37.987697 39.3328592,36.5645127 38.0014225,35.4697555 Z M9.7083926,19.2673493 C8.82076814,17.4062621 8.04409673,15.5451749 7.71123755,13.5746119 C7.26742532,10.071389 8.48790896,7.00606888 10.9288762,4.48812737 C13.2588905,2.07966158 16.14367,0.984904401 18.140825,0.984904401 C25.685633,0.984904401 30.6785206,5.47340883 31.2332859,11.4945733 C31.455192,13.5746119 30.7894737,15.4356991 30.1237553,17.2967863 C28.5704125,21.3473879 26.3513514,25.0695623 24.0213371,28.7917367 C22.9118065,30.6528239 21.6913229,32.4044354 20.4708393,34.2655226 C20.1379801,34.8129012 18.9174964,34.8129012 18.4736842,34.2655226 C15.3669986,29.448591 12.2603129,24.5221837 9.7083926,19.2673493 Z M15.2560455,35.0318526 C14.4793741,35.2508041 13.7027027,35.4697555 13.0369844,35.7981826 C12.1493599,36.2360855 12.1493599,37.1118913 13.0369844,37.5497941 C13.8136558,37.987697 14.8122333,38.2066484 15.6998578,38.4255999 C18.5846373,38.8635027 21.4694168,38.8635027 24.2432432,38.2066484 C24.7980085,38.0971727 25.3527738,37.8782213 25.9075391,37.5497941 C26.7951636,37.0024155 26.7951636,36.2360855 25.9075391,35.7981826 C25.0199147,35.3602798 23.9103841,35.1413283 22.9118065,34.9223769 C22.4679943,34.8129012 21.913229,34.8129012 21.3584637,34.7034255 C21.5803698,34.2655226 21.6913229,33.8276197 22.2460882,33.8276197 C25.2418208,34.0465712 28.1266003,34.2655226 31.0113798,35.0318526 C31.5661451,35.2508041 32.2318634,35.4697555 32.7866287,35.6887069 C33.341394,35.9076584 33.8961593,36.1266098 33.8961593,36.7834641 C33.8961593,37.4403184 33.341394,37.6592698 32.7866287,37.8782213 C31.7880512,38.2066484 30.7894737,38.6445513 29.6799431,38.8635027 C25.5746799,39.7393085 21.3584637,39.9582599 17.1422475,39.7393085 C14.3684211,39.6298328 11.4836415,39.4108813 8.70981508,38.754027 C7.71123755,38.5350756 6.82361309,38.2066484 5.93598862,37.7687456 C5.60312945,37.5497941 5.04836415,37.1118913 5.04836415,36.7834641 C5.04836415,36.4550369 5.49217639,36.0171341 5.93598862,35.7981826 C7.48933144,34.9223769 9.15362731,34.5939497 10.8179232,34.3749983 C12.7041252,34.1560469 14.5903272,33.9370954 16.4765292,33.718144 C17.1422475,33.6086683 17.4751067,33.8276197 17.6970128,34.484474 C16.8093883,34.7034255 16.0327169,34.8129012 15.2560455,35.0318526 Z M18.6955903,36.0171341 C18.6955903,36.1266098 18.8065434,36.2360855 18.9174964,36.3455612 C19.4722617,37.1118913 19.6941679,37.1118913 20.1379801,36.3455612 C20.5817923,35.6887069 21.0256046,35.4697555 21.802276,35.6887069 C22.8008535,35.9076584 23.799431,36.0171341 24.7980085,36.2360855 C25.1308677,36.3455612 25.3527738,36.4550369 25.685633,36.5645127 C24.2432432,38.0971727 15.0341394,38.0971727 13.3698435,36.4550369 C14.1465149,36.2360855 14.8122333,36.0171341 15.5889047,35.7981826 C16.254623,35.6887069 16.9203414,35.5792312 17.5860597,35.5792312 C18.029872,35.4697555 18.4736842,35.5792312 18.6955903,36.0171341 Z M37.3357041,38.5350756 C36.6699858,39.0824542 35.7823613,39.520357 35.0056899,39.8487842 C32.3428165,40.9435414 29.458037,41.3814442 26.5732575,41.7098714 C23.3556188,42.0382985 20.1379801,42.1477743 17.0312945,42.0382985 C12.5931721,41.8193471 8.26600284,41.3814442 4.16073969,39.8487842 C3.27311522,39.520357 2.49644381,39.0824542 1.83072546,38.5350756 C0.832147937,37.7687456 0.832147937,36.7834641 1.83072546,36.0171341 C2.71834993,35.3602798 3.6059744,34.8129012 4.60455192,34.484474 C7.15647226,33.4991926 9.81934566,33.0612897 12.4822191,32.8423383 C13.5917496,32.7328625 14.8122333,32.6233868 16.0327169,32.5139111 C16.254623,32.5139111 16.4765292,32.6233868 16.6984353,32.7328625 C16.6984353,32.8423383 16.6984353,32.8423383 16.5874822,32.951814 C15.4779516,33.0612897 14.257468,33.1707654 13.1479374,33.2802411 C10.9288762,33.4991926 8.82076814,33.8276197 6.71266003,34.7034255 C6.04694168,35.0318526 5.27027027,35.3602798 4.71550498,35.9076584 C3.93883357,36.5645127 3.93883357,37.4403184 4.71550498,37.987697 C5.60312945,38.6445513 6.60170697,39.0824542 7.6002845,39.4108813 C9.93029872,40.1772113 12.371266,40.5056385 14.7012802,40.6151142 C17.1422475,40.7245899 19.6941679,40.8340657 22.1351351,40.7245899 C25.4637269,40.6151142 28.6813656,40.2866871 31.7880512,39.3014056 C32.5647226,39.0824542 33.230441,38.754027 33.8961593,38.3161241 C35.116643,37.4403184 35.227596,36.2360855 33.8961593,35.4697555 C32.7866287,34.8129012 31.6770982,34.2655226 30.4566145,34.0465712 C28.0156472,33.6086683 25.4637269,33.3897168 23.0227596,32.951814 C22.9118065,32.951814 22.8008535,32.951814 22.5789474,32.7328625 C22.8008535,32.6233868 22.9118065,32.4044354 23.1337127,32.5139111 C27.3499289,32.7328625 31.455192,33.1707654 35.4495021,34.8129012 C36.2261735,35.1413283 36.8918919,35.5792312 37.4466572,36.0171341 C38.3342817,36.7834641 38.3342817,37.7687456 37.3357041,38.5350756 Z" id="Shape"></path>
            <path d="M27,11.5012222 C27,7.53758254 23.6552253,4.00244444 19.6630749,4.00244444 C15.5630286,3.89531905 12.110358,7.32333175 12.002462,11.5012222 C11.8945661,15.4648619 15.3472367,18.8928746 19.555179,19 C23.5473294,19 27,15.5719873 27,11.5012222 Z M13,11.5528455 C13,7.85365854 15.7479675,5 19.5528455,5 C23.1463415,5 26,7.85365854 26,11.4471545 C26,15.1463415 23.1463415,18 19.5528455,18 C15.9593496,17.8943089 13,15.1463415 13,11.5528455 Z" id="Shape"></path>
        </g>
    </g>
</svg>