<?xml version="1.0" encoding="UTF-8"?>
<svg width="39px" height="41px" viewBox="0 0 39 41" version="1.1" xmlns="http://www.w3.org/2000/svg" xmlns:xlink="http://www.w3.org/1999/xlink">
    <!-- Generator: Sketch 48.2 (47327) - http://www.bohemiancoding.com/sketch -->
    <title>Group</title>
    <desc>Created with Sketch.</desc>
    <defs></defs>
    <g id="Sign-In-Page" stroke="none" stroke-width="1" fill="none" fill-rule="evenodd" transform="translate(-220.000000, -497.000000)">
        <g id="Group" transform="translate(220.000000, 497.000000)" fill="#FFFFFF" fill-rule="nonzero">
            <path d="M24.2991858,39.5455597 C24.1926104,39.5455597 24.086035,39.5455597 23.9794596,39.5455597 C18.7572662,39.7640474 13.5350728,39.6548035 8.31287934,38.9993407 C6.07479644,38.6716092 3.94328892,38.234634 1.81178139,37.4699273 C1.49205527,37.3606835 1.38547989,37.2514397 1.38547989,36.9237082 C1.59863064,34.4111006 2.34465828,32.2262243 3.73013817,30.1505919 C4.36959042,29.2766414 5.11561806,28.5119347 6.07479644,28.0749594 C6.60767332,27.8564718 7.1405502,27.6379842 7.67342708,27.3102528 C10.0180854,26.2178146 12.3627436,25.1253765 14.6008265,24.0329384 C14.9205527,23.9236946 15.027128,23.9236946 15.2402788,24.0329384 C17.4783617,25.6715956 20.2493215,25.999327 22.5939797,24.0329384 C22.8071305,23.9236946 22.9137059,23.9236946 23.1268566,24.0329384 C23.7663089,24.3606698 24.4057611,24.7976451 25.1517888,25.1253765 C25.3649395,25.2346203 25.5780903,25.2346203 25.6846657,25.2346203 C25.8978164,25.1253765 26.0043918,24.9068889 26.1109672,24.6884013 C26.2175425,24.3606698 26.0043918,24.1421822 25.6846657,24.0329384 C25.0452134,23.705207 24.5123365,23.3774755 23.8728843,23.0497441 C23.9794596,22.9405003 23.9794596,22.8312565 24.086035,22.8312565 C25.0452134,21.7388183 25.6846657,20.6463802 26.2175425,19.2262107 C26.4306933,18.461504 26.8569948,17.8060411 27.2832963,17.1505782 C28.4556254,15.6211649 29.0950777,13.8732639 28.9885023,11.9068752 C28.8819269,11.2514124 28.7753516,10.7051933 28.2424747,10.2682181 C28.1358993,10.1589742 28.0293239,9.94048662 28.0293239,9.8312428 C28.0293239,8.84804849 28.0293239,7.974098 27.9227486,6.99090369 C27.9227486,6.00770938 27.6030224,5.02451507 26.8569948,4.36905219 C26.7504194,4.25980838 26.643844,4.15056457 26.643844,4.04132076 C26.2175425,2.51190739 25.2583642,1.52871308 23.7663089,0.873250203 C21.3150752,-0.109944107 18.7572662,-0.21918792 16.1994572,0.327031141 C12.6824698,1.20098164 10.4443869,3.82283313 10.2312361,7.53712275 C10.1246607,8.62956087 10.2312361,9.72199899 10.1246607,10.8144371 C10.1246607,10.9236809 10.1246607,11.1421686 10.0180854,11.1421686 C9.3786331,11.6883876 9.27205773,12.4530943 9.27205773,13.217801 C9.16548235,14.965702 9.80493461,16.4951154 10.764113,17.8060411 C11.4035652,18.6799916 11.8298668,19.5539421 12.2561683,20.5371364 C12.5758944,21.4110869 13.2153466,22.1757936 13.7482235,23.0497441 C13.0021959,23.3774755 12.1495929,23.8144508 11.4035652,24.251426 C9.3786331,25.1253765 7.46027633,25.999327 5.43534418,26.8732775 C4.4761658,27.3102528 3.73013817,27.8564718 3.09068591,28.7304223 C1.06575376,31.3522738 0.106575376,34.3018567 0,37.6884149 C0,38.0161464 0.106575376,38.3438778 0.532876881,38.4531216 C1.06575376,38.6716092 1.59863064,38.8900969 2.02493215,38.9993407 C4.9024673,39.982535 7.88657784,40.3102664 10.8706884,40.6379979 C15.2402788,41.0749731 19.6098692,41.0749731 23.9794596,40.8564855 C24.086035,40.8564855 24.2991858,40.8564855 24.4057611,40.7472417 C24.7254873,40.6379979 24.8320626,40.4195102 24.8320626,40.0917788 C24.8320626,39.7640474 24.6189119,39.5455597 24.2991858,39.5455597 Z M13.1087713,18.8984792 C13.0021959,18.5707478 12.7890451,18.2430163 12.5758944,18.0245287 C11.2969899,16.6043592 10.5509622,14.8564582 10.6575376,12.8900695 C10.6575376,12.5623381 10.6575376,12.3438505 11.0838391,12.2346067 C11.4035652,12.1253629 11.5101406,11.7976314 11.5101406,11.4699 C11.5101406,10.2682181 11.5101406,9.06653612 11.5101406,7.86485418 C11.616716,6.00770938 12.1495929,4.36905219 13.5350728,3.05812645 C14.4942512,2.07493214 15.6665803,1.63795689 17.0520602,1.41946926 C18.970417,1.09173783 20.7821984,1.20098164 22.5939797,1.63795689 C23.4465828,1.85644451 24.1926104,2.29341976 24.7254873,2.94888263 C25.0452134,3.38585788 25.3649395,3.82283313 25.3649395,4.36905219 C25.3649395,4.58753982 25.4715149,4.80602744 25.5780903,4.91527125 C26.2175425,5.46149032 26.4306933,6.11695319 26.5372687,6.99090369 C26.5372687,8.19258562 26.5372687,9.28502374 26.643844,10.4867057 C26.643844,11.1421686 26.8569948,11.3606562 27.4964471,11.3606562 C27.6030224,12.5623381 27.4964471,13.6547762 27.0701455,14.7472144 C26.643844,15.6211649 26.2175425,16.3858715 25.5780903,17.0413344 C25.4715149,17.259822 25.2583642,17.4783097 25.2583642,17.6967973 C24.7254873,19.4446983 23.9794596,21.0833555 22.7005551,22.3942812 C19.9295953,25.3438641 16.6257587,24.1421822 14.9205527,22.1757936 C14.0679497,21.1925993 13.5350728,20.1001612 13.1087713,18.8984792 Z" id="Shape"></path>
            <path d="M31.5,26 C27.1985294,26 24,29.3088235 24,33.6102941 C24,37.8014706 27.3088235,41 31.5,41 C35.6911765,41 39,37.6911765 39,33.5 C39,29.3088235 35.6911765,26 31.5,26 Z M31.5,39.7867647 C28.0808824,39.7867647 25.2132353,36.9191176 25.2132353,33.5 C25.2132353,30.1911765 28.1911765,27.2132353 31.5,27.2132353 C34.9191176,27.2132353 37.7867647,30.1911765 37.7867647,33.6102941 C37.7867647,36.9191176 34.9191176,39.7867647 31.5,39.7867647 Z" id="Shape"></path>
            <path d="M36.0021489,32.3181818 C35.1151701,32.3181818 34.2281913,32.3181818 33.3412125,32.3181818 C33.1194678,32.3181818 32.8977231,32.3181818 32.5651061,32.3181818 C32.5651061,31.9772727 32.5651061,31.6363636 32.5651061,31.2954545 C32.5651061,30.5 32.5651061,29.5909091 32.5651061,28.7954545 C32.5651061,28.3409091 32.3433614,28 31.899872,28 C31.4563826,28 31.2346379,28.3409091 31.2346379,28.7954545 C31.2346379,28.9090909 31.2346379,29.1363636 31.2346379,29.25 C31.2346379,30.2727273 31.2346379,31.2954545 31.2346379,32.3181818 C31.0128932,32.3181818 30.9020209,32.3181818 30.7911485,32.3181818 C29.7932974,32.3181818 28.7954463,32.3181818 27.6867228,32.3181818 C27.2432334,32.3181818 26.9106164,32.6590909 27.0214887,33 C27.0214887,33.3409091 27.3541057,33.6818182 27.7975951,33.6818182 C28.2410845,33.6818182 28.6845739,33.6818182 29.1280633,33.6818182 C29.7932974,33.6818182 30.5694038,33.6818182 31.3455103,33.6818182 C31.3455103,33.9090909 31.3455103,34.0227273 31.3455103,34.1363636 C31.3455103,35.1590909 31.3455103,36.1818182 31.3455103,37.2045455 C31.3455103,37.6590909 31.567255,38 32.0107444,38 C32.4542337,38 32.6759784,37.6590909 32.6759784,37.2045455 C32.6759784,36.6363636 32.6759784,35.9545455 32.6759784,35.3863636 C32.6759784,34.8181818 32.6759784,34.25 32.6759784,33.6818182 C32.8977231,33.6818182 33.0085955,33.6818182 33.1194678,33.6818182 C34.117319,33.6818182 35.1151701,33.6818182 36.1130212,33.6818182 C36.667383,33.6818182 37,33.4545455 37,33 C36.8891277,32.5454545 36.5565106,32.3181818 36.0021489,32.3181818 Z" id="Shape"></path>
        </g>
    </g>
</svg>