<?xml version="1.0" encoding="UTF-8"?>
<svg width="42px" height="36px" viewBox="0 0 42 36" version="1.1" xmlns="http://www.w3.org/2000/svg" xmlns:xlink="http://www.w3.org/1999/xlink">
    <!-- Generator: Sketch 48.2 (47327) - http://www.bohemiancoding.com/sketch -->
    <title>2</title>
    <desc>Created with Sketch.</desc>
    <defs></defs>
    <g id="Sign-In-Page" stroke="none" stroke-width="1" fill="none" fill-rule="evenodd" transform="translate(-218.000000, -658.000000)">
        <g id="2" transform="translate(218.000000, 658.000000)" fill="#FFFFFF" fill-rule="nonzero">
            <path d="M39.7,10.2 C27.2,10.2 14.7,10.2 2.2,10.2 C2.2,10.4 2.2,10.5 2.2,10.7 C2.2,16.5 2.2,22.3 2.2,28 C2.2,29.6 3.1,30.5 4.7,30.5 C6.1,30.5 7.6,30.5 9,30.5 C9.6,30.5 10,30.8 10,31.3 C10,31.8 9.6,32.1 9,32.1 C7.6,32.1 6.1,32.1 4.7,32.1 C2.5,32.1 0.7,30.3 0.7,28.1 C0.7,20.1 0.7,12.2 0.7,4.2 C0.7,1.9 2.5,0.1 4.8,0.1 C15.6,0.1 26.5,0.1 37.3,0.1 C39.5,0.1 41.3,1.9 41.3,4.1 C41.3,12.1 41.3,20.1 41.3,28.1 C41.3,30.3 39.5,32.1 37.3,32.1 C36.1,32.1 34.9,32.1 33.7,32.1 C33.1,32.1 32.7,31.8 32.7,31.3 C32.7,30.8 33.1,30.6 33.7,30.6 C35,30.6 36.2,30.6 37.5,30.6 C38.9,30.6 39.8,29.7 39.8,28.3 C39.8,22.4 39.8,16.5 39.8,10.6 C39.7,10.4 39.7,10.3 39.7,10.2 Z M39.7,8.6 C39.7,7.1 39.7,5.6 39.7,4.2 C39.7,2.4 38.9,1.6 37.1,1.6 C32,1.6 26.9,1.6 21.8,1.6 C16.1,1.6 10.5,1.6 4.8,1.6 C3,1.6 2.2,2.4 2.2,4.2 C2.2,5.5 2.2,6.8 2.2,8.2 C2.2,8.3 2.2,8.5 2.2,8.6 C14.7,8.6 27.2,8.6 39.7,8.6 Z" id="Shape"></path>
            <path d="M21.3,21.9 C23.5,21.9 25.6,21.9 27.8,21.9 C29.7,21.9 31.1,23.3 31.1,25.2 C31.1,27.7 31.1,30.2 31.1,32.7 C31.1,34.5 29.7,35.9 27.9,35.9 C23.6,35.9 19.3,35.9 15,35.9 C13.1,35.9 11.7,34.5 11.7,32.6 C11.7,30.1 11.7,27.7 11.7,25.2 C11.7,23.3 13.1,21.9 15,21.9 C17,21.9 19.2,21.9 21.3,21.9 Z M13.1,28.9 C13.1,30.2 13.1,31.5 13.1,32.8 C13.1,33.9 13.6,34.4 14.7,34.4 C16.4,34.4 18.1,34.4 19.9,34.4 C22.6,34.4 25.3,34.4 28,34.4 C28.9,34.4 29.5,34 29.5,33.2 C29.6,31.8 29.5,30.4 29.5,28.9 C24.1,28.9 18.6,28.9 13.1,28.9 Z M13.1,25 C18.6,25 24,25 29.5,25 C29.5,24 29,23.4 28,23.4 C26.1,23.4 24.1,23.4 22.2,23.4 C19.7,23.4 17.2,23.4 14.6,23.4 C13.7,23.4 13.1,24 13.1,25 Z M29.5,26.6 C24,26.6 18.6,26.6 13.1,26.6 C13.1,26.9 13.1,27.1 13.1,27.3 C18.6,27.3 24,27.3 29.5,27.3 C29.5,27.1 29.5,26.9 29.5,26.6 Z" id="Shape"></path>
            <path d="M21,18.2 C22.4,16.7 23.9,15.2 25.4,13.7 C25.5,13.6 25.6,13.5 25.8,13.4 C26.1,13.2 26.5,13.2 26.8,13.5 C27.1,13.8 27.1,14.1 26.9,14.5 C26.8,14.6 26.7,14.7 26.6,14.8 C25,16.5 23.3,18.2 21.7,19.9 C21.1,20.5 20.8,20.5 20.2,19.9 C19.2,18.9 18.2,17.8 17.2,16.8 C16.8,16.4 16.8,15.9 17.1,15.6 C17.5,15.2 17.9,15.3 18.3,15.8 C19.2,16.4 20.1,17.3 21,18.2 Z" id="Shape"></path>
            <path d="M5.3,6.4 C4.5,6.4 3.7,5.6 3.8,4.9 C3.8,4.1 4.6,3.4 5.4,3.4 C6.1,3.4 6.9,4.2 6.9,4.9 C6.9,5.6 6.1,6.4 5.3,6.4 Z" id="Shape"></path>
            <path d="M10,6.4 C9.2,6.4 8.5,5.6 8.5,4.8 C8.5,4 9.3,3.3 10.1,3.3 C10.8,3.3 11.6,4.1 11.6,4.8 C11.5,5.6 10.7,6.4 10,6.4 Z" id="Shape"></path>
            <path d="M14.7,3.3 C15.5,3.3 16.3,4.1 16.2,4.8 C16.2,5.6 15.4,6.3 14.6,6.3 C13.9,6.3 13.1,5.5 13.1,4.8 C13.1,4.1 13.9,3.3 14.7,3.3 Z" id="Shape"></path>
        </g>
    </g>
</svg>