<?xml version="1.0" encoding="UTF-8"?>
<svg width="38px" height="42px" viewBox="0 0 38 42" version="1.1" xmlns="http://www.w3.org/2000/svg" xmlns:xlink="http://www.w3.org/1999/xlink">
    <!-- Generator: Sketch 48.2 (47327) - http://www.bohemiancoding.com/sketch -->
    <title>Group</title>
    <desc>Created with Sketch.</desc>
    <defs></defs>
    <g id="Sign-In-Page" stroke="none" stroke-width="1" fill="none" fill-rule="evenodd" transform="translate(-220.000000, -732.000000)">
        <g id="Group" transform="translate(220.000000, 732.000000)" fill="#FFFFFF" fill-rule="nonzero">
            <path d="M20.895425,35.5007697 C20.5556385,35.5007697 20.1025897,35.5007697 19.7628032,35.5007697 C19.7628032,35.1546751 19.7628032,35.0393102 19.7628032,34.8085804 C19.7628032,31.8090936 19.7628032,28.9249716 19.7628032,25.9254848 C19.7628032,24.1950116 18.8567057,23.3874574 17.2710352,23.3874574 C15.6853646,23.3874574 14.099694,23.3874574 12.5140234,23.3874574 C12.0609747,23.3874574 11.607926,23.3874574 11.1548772,23.3874574 C11.1548772,21.5416194 11.1548772,19.8111462 11.1548772,18.080673 C11.607926,18.080673 12.0609747,18.1960379 12.5140234,18.1960379 C14.5527427,18.1960379 16.7047242,18.1960379 18.7434435,18.1960379 C18.9699679,18.1960379 19.1964923,18.1960379 19.4230166,18.080673 C20.3291141,17.8499433 21.0086872,16.9270242 20.7821628,16.0041052 C20.6689007,14.9658213 19.8760654,14.273632 18.8567057,14.273632 C17.0445108,14.273632 15.2323158,14.273632 13.4201209,14.273632 C12.85381,14.273632 12.5140234,14.1582671 12.1742369,13.6968076 C11.3814016,12.8892535 10.5885663,11.9663344 9.79573102,11.2741452 C9.00289574,10.5819559 8.21006045,10.0051315 7.07743861,10.0051315 C4.92545712,9.88976661 3.11326218,11.7356047 3,13.9275374 C3,17.5038486 3,21.0801599 3,24.6564711 C3,24.8872009 3,25.0025657 3,25.2332955 C3.33978655,27.3098633 4.92545712,28.578877 6.96417643,28.578877 C9.45594447,28.578877 11.9477125,28.578877 14.4394806,28.578877 C14.6660049,28.578877 14.7792671,28.578877 15.0057915,28.578877 C15.0057915,28.8096067 15.0057915,29.0403365 15.0057915,29.1557014 C15.0057915,32.0398234 15.0057915,34.9239453 15.0057915,37.6927024 C15.0057915,39.077081 15.9118889,40 17.2710352,40 C18.403657,40 19.5362788,40 20.5556385,40 C21.9147847,40 22.9341443,39.077081 22.9341443,37.8080673 C23.2739309,36.5390536 22.2545712,35.5007697 20.895425,35.5007697 Z M20.895425,38.7309863 C19.8760654,38.7309863 18.7434435,38.7309863 17.7240839,38.7309863 C16.9312486,38.7309863 16.591462,38.3848917 16.591462,37.5773375 C16.591462,34.4624858 16.591462,31.3476341 16.591462,28.2327824 C16.591462,27.4252282 16.4781999,27.1944984 15.5721024,27.1944984 C12.85381,27.1944984 10.1355176,27.1944984 7.41722517,27.1944984 C5.60503023,27.1944984 4.47240839,26.0408497 4.47240839,24.1950116 C4.47240839,22.4645384 4.47240839,20.8494301 4.47240839,19.1189569 C4.47240839,19.1189569 4.47240839,19.1189569 4.47240839,19.1189569 C4.47240839,17.3884837 4.47240839,15.6580106 4.47240839,14.0429022 C4.47240839,12.8892535 4.92545712,12.0816993 5.94481678,11.5048749 C6.96417643,10.9280505 7.8702739,11.1587803 8.66310919,11.8509695 C9.45594447,12.5431588 10.2487798,13.350713 10.9283529,14.1582671 C12.1742369,15.5426457 12.1742369,15.5426457 13.9864318,15.5426457 C15.5721024,15.5426457 17.0445108,15.5426457 18.6301814,15.5426457 C18.7434435,15.5426457 18.8567057,15.5426457 18.8567057,15.5426457 C19.3097545,15.5426457 19.5362788,15.7733754 19.5362788,16.2348349 C19.5362788,16.6962945 19.3097545,16.9270242 18.8567057,16.9270242 C17.9506083,16.9270242 17.0445108,16.9270242 16.1384133,16.9270242 C14.8925293,16.9270242 13.7599075,16.9270242 12.5140234,16.9270242 C11.9477125,16.9270242 11.4946638,16.8116593 11.1548772,16.3501998 C11.041615,16.2348349 10.9283529,16.1194701 10.7018285,16.0041052 C10.2487798,15.7733754 9.79573102,15.8887403 9.68246884,16.4655647 C9.68246884,16.5809296 9.68246884,16.8116593 9.68246884,16.9270242 C9.68246884,19.1189569 9.68246884,21.4262545 9.68246884,23.6181872 C9.68246884,24.4257413 9.79573102,24.6564711 10.7018285,24.6564711 C12.85381,24.6564711 14.8925293,24.6564711 17.0445108,24.6564711 C18.0638704,24.6564711 18.2903948,24.8872009 18.2903948,25.9254848 C18.2903948,29.1557014 18.2903948,32.5012829 18.2903948,35.7314995 C18.2903948,36.5390536 18.5169192,36.7697834 19.1964923,36.7697834 C19.7628032,36.7697834 20.2158519,36.7697834 20.7821628,36.7697834 C21.461736,36.7697834 21.8015225,37.115878 21.8015225,37.6927024 C21.9147847,38.3848917 21.5749981,38.7309863 20.895425,38.7309863 Z" id="Shape"></path>
            <path d="M37.2405063,19 C35.7777778,19 34.4275668,19 32.9648383,19 C28.6891702,19 24.3009845,19 20.0253165,19 C18.9001406,19 18,19.9633508 18,21.0471204 C18,22.1308901 18.7876231,23.0942408 19.9127989,23.0942408 C20.137834,23.0942408 20.2503516,23.0942408 20.4753868,23.0942408 C22.7257384,23.0942408 24.97609,23.0942408 27.2264416,23.0942408 C27.2264416,23.3350785 27.2264416,23.5759162 27.2264416,23.8167539 C27.2264416,29.5968586 27.2264416,35.2565445 27.2264416,41.0366492 C27.2264416,41.7591623 27.4514768,42 28.1265823,42 C31.0520394,42 34.0900141,42 37.0154712,42 C37.8030942,42 37.9156118,41.7591623 37.9156118,41.0366492 C37.9156118,33.9319372 37.9156118,26.947644 37.9156118,19.8429319 C38.140647,19.2408377 37.9156118,19 37.2405063,19 Z M36.790436,40.6753927 C34.0900141,40.6753927 31.3895921,40.6753927 28.5766526,40.6753927 C28.5766526,40.434555 28.5766526,40.3141361 28.5766526,40.0732984 C28.5766526,34.2931937 28.5766526,28.6335079 28.5766526,22.8534031 C28.5766526,22.0104712 28.464135,21.7696335 27.676512,21.7696335 C25.2011252,21.7696335 22.7257384,21.7696335 20.3628692,21.7696335 C20.137834,21.7696335 20.0253165,21.7696335 19.8002813,21.7696335 C19.4627286,21.6492147 19.2376934,21.408377 19.350211,21.0471204 C19.4627286,20.8062827 19.6877637,20.565445 19.9127989,20.4450262 C20.0253165,20.4450262 20.137834,20.4450262 20.2503516,20.4450262 C25.6511955,20.4450262 30.9395218,20.4450262 36.3403657,20.4450262 C36.4528833,20.4450262 36.6779184,20.4450262 36.790436,20.4450262 C36.790436,27.1884817 36.790436,33.9319372 36.790436,40.6753927 Z" id="Shape"></path>
            <path d="M12.5728529,28.5533082 C12.3483376,28.5533082 12.23608,28.5533082 12.0115648,28.5533082 C9.09286681,28.5533082 6.06191121,28.5533082 3.14321322,28.5533082 C2.58192514,28.5533082 2.02063707,28.5533082 1.34709138,28.5533082 C1.34709138,28.2054337 1.34709138,27.9735173 1.34709138,27.741601 C1.34709138,22.1756085 1.34709138,16.4936579 1.34709138,10.9276654 C1.34709138,10.3478745 1.12257615,10 0.67354569,10 C0.22451523,10 0,10.2319164 0,10.8117072 C0,16.8415324 0,22.8713576 0,28.9011827 C0,29.5969318 0.22451523,29.8288481 0.785803305,29.8288481 C1.79612184,29.8288481 2.80644037,29.8288481 3.81675891,29.8288481 C4.04127414,29.8288481 4.15353175,29.8288481 4.37804698,29.8288481 C4.37804698,31.1043881 4.37804698,32.2639698 4.37804698,33.4235516 C4.37804698,34.0033425 4.26578937,34.2352588 3.70450129,34.351217 C2.91869799,34.5831334 2.13289468,34.9310079 1.57160661,35.5107988 C1.12257615,35.8586733 0.89806092,36.6703805 0.561288075,37.2501714 C0.336772845,37.7140041 0.336772845,38.1778368 0.67354569,38.5257114 C1.01031853,38.8735859 1.45934899,38.8735859 1.90837945,38.6416695 C2.2451523,38.4097532 2.46966753,37.8299623 2.2451523,37.4820878 C2.02063707,37.0182551 2.13289468,36.7863387 2.46966753,36.6703805 C3.36772845,35.8586733 4.4903046,35.6267569 5.83739598,35.5107988 C5.72513836,36.0905897 5.61288075,36.5544224 5.50062313,37.0182551 C5.38836552,37.4820878 5.38836552,37.8299623 5.72513836,38.1778368 C6.06191121,38.5257114 6.62319928,38.5257114 6.95997213,38.1778368 C7.29674497,37.8299623 7.40900259,37.4820878 7.18448736,37.0182551 C7.07222974,36.5544224 6.95997213,36.0905897 6.84771451,35.5107988 C8.08254828,35.6267569 9.20512443,35.8586733 10.1031853,36.5544224 C10.4399582,36.7863387 10.6644734,37.0182551 10.4399582,37.5980459 C10.215443,37.9459205 10.3277006,38.4097532 10.6644734,38.7576277 C11.0012463,38.9895441 11.3380191,39.1055022 11.7870496,38.8735859 C12.1238224,38.6416695 12.3483376,38.293795 12.23608,37.8299623 C11.8993072,36.7863387 11.5625343,35.7427151 10.4399582,35.2788824 C9.87867012,35.0469661 9.31738204,34.8150497 8.75609397,34.5831334 C8.41932112,34.4671752 8.30706351,34.351217 8.30706351,34.0033425 C8.30706351,33.3075934 8.30706351,32.6118444 8.30706351,32.0320535 C8.30706351,31.3363044 8.30706351,30.7565135 8.30706351,30.0607645 C9.31738204,30.0607645 10.215443,30.0607645 11.1135039,30.0607645 C11.5625343,30.0607645 12.0115648,30.0607645 12.3483376,30.0607645 C12.5728529,30.0607645 12.7973681,29.71289 12.9096257,29.4809736 C13.1341409,28.7852245 12.9096257,28.5533082 12.5728529,28.5533082 Z M7.18448736,34.0033425 C6.7354569,34.0033425 6.28642644,34.0033425 5.94965359,34.0033425 C5.94965359,32.6118444 5.94965359,31.2203463 5.94965359,29.8288481 C6.39868405,29.8288481 6.7354569,29.8288481 7.18448736,29.8288481 C7.18448736,31.3363044 7.18448736,32.6118444 7.18448736,34.0033425 Z" id="Shape"></path>
            <path d="M8,10 C10.804878,10 13,7.68292683 13,5 C13,2.31707317 10.804878,0 8,0 C5.19512195,0 3,2.19512195 3,5 C3,7.80487805 5.31707317,10 8,10 Z M8,1.34146341 C9.95121951,1.34146341 11.6585366,2.92682927 11.6585366,5 C11.6585366,7.07317073 9.95121951,8.65853659 8,8.65853659 C6.04878049,8.65853659 4.46341463,6.95121951 4.46341463,5 C4.46341463,2.92682927 6.04878049,1.34146341 8,1.34146341 Z" id="Shape"></path>
            <path d="M23.9347463,19 C25.4537092,19 26.972672,19 28.3747915,19 C29.8937543,19 31.4127171,19 32.8148367,19 C33.3990531,19 33.6327397,18.7568532 33.8664263,18.1489862 C34.2169562,16.8116788 34.5674861,15.3527979 34.918016,14.0154905 C35.2685458,12.6781831 35.6190757,11.3408757 35.9696056,10.0035683 C36.0864489,9.51727464 35.8527623,9.15255444 35.5022324,9.03098104 C35.0348593,8.90940763 34.8011727,9.15255444 34.6843294,9.63884805 C34.6843294,9.76042145 34.5674861,9.88199485 34.5674861,10.0035683 C33.9832696,12.3134629 33.2822098,14.7449309 32.6979934,17.176399 C32.5811501,17.5411192 32.4643068,17.6626926 32.1137769,17.6626926 C29.4263812,17.6626926 26.6221421,17.6626926 23.9347463,17.6626926 C23.3505299,17.6626926 23,17.9058394 23,18.392133 C23.1168433,18.7568532 23.3505299,19 23.9347463,19 Z" id="Shape"></path>
            <path d="M34.2596122,24 C32.8251725,24 31.2711962,24 29.8367565,24 C29.3586099,24 29.1195366,24.0909091 29,24.4545455 C29,24.7272727 29.3586099,25 29.8367565,25 C30.5539763,25 31.2711962,25 31.988416,25 C32.7056359,25 33.4228557,25 34.2596122,25 C34.7377587,25 35.0963687,24.7272727 34.976832,24.4545455 C34.976832,24.0909091 34.6182221,24 34.2596122,24 Z" id="Shape"></path>
            <path d="M34.3662733,28 C33.6345088,28 32.9027442,28 32.0490189,28 C31.1952936,28 30.5854898,28 29.7317645,28 C29.2439215,28 29,28.1818182 29,28.4545455 C29,28.8181818 29.3658823,29 29.7317645,29 C31.1952936,29 32.7807835,29 34.2443126,29 C34.7321556,29 35.0980379,28.7272727 34.9760771,28.4545455 C35.0980379,28.1818182 34.7321556,28 34.3662733,28 Z" id="Shape"></path>
            <path d="M32,33 C32.72,33 33.56,33 34.28,33 C34.76,33 35,32.8333333 35,32.5 C35,32.1666667 34.76,32 34.28,32 C32.84,32 31.28,32 29.84,32 C29.36,32 29,32.1666667 29,32.5 C29,32.8333333 29.36,33 29.84,33 C30.56,33 31.28,33 32,33 Z" id="Shape"></path>
            <path d="M34.16,37 C32.72,37 31.28,37 29.84,37 C29.36,37 29.12,37.0909091 29,37.4545455 C29,37.7272727 29.24,38 29.84,38 C30.56,38 31.28,38 32,38 C32.72,38 33.44,38 34.16,38 C34.64,38 34.88,37.8181818 35,37.5454545 C35,37.2727273 34.76,37 34.16,37 Z" id="Shape"></path>
        </g>
    </g>
</svg>