<svg id="Layer_1" data-name="Layer 1" xmlns="http://www.w3.org/2000/svg" xmlns:xlink="http://www.w3.org/1999/xlink" viewBox="0 0 202.45 248.23"><defs><style>.cls-1{fill:#00bd04;}.cls-2{fill:#fefefe;}</style><symbol id="New_Symbol" data-name="New Symbol" viewBox="0 0 202.45 248.23"><g id="Facility-details-page"><path class="cls-1" d="M101.53,201.12c-6.38.65-9.31-4.24-12.75-8.13a97.84,97.84,0,0,1-8-10.09c-1.49-2.19-2.81-2.21-5-1.23-4.94,2.25-10,4.37-15,6.43-7.43,3-13.76-.56-15.84-8.34-1.31-4.9-.77-9.87-1.47-14.79-.8-5.57-4-6.52-8.47-6.87-4.93-.39-9.94-.46-14.68-2-6.38-2-8.52-5.93-7.33-12.43.91-4.93,3.08-9.38,5.18-13.84,3-6.5,2.82-7.58-3.15-11.8A75.41,75.41,0,0,1,3.47,108c-4.78-5.12-4.58-10,.33-15.22,4-4.25,8.93-7.35,13.52-10.86,3-2.33,3.52-4.88,2.08-8.2-1.9-4.39-3.51-8.91-5.56-13.22-3.8-8,.67-14.25,9.53-16.18a46.47,46.47,0,0,1,10.38-1.1C43.88,43.34,43,39.67,44,32.77c.54-3.57.44-7.24,1.07-10.86,1.4-8,7.7-11.75,15.42-8.8C65.42,15,70.28,17,75,19.28c3,1.41,4.82.44,6.78-1.84,3.68-4.26,6.5-9.19,10.59-13.14,6.19-6,13.42-5.76,18.85.93,3,3.72,6,7.51,8.69,11.47,2.45,3.6,5.4,3.79,8.94,2.14,3.29-1.53,6.52-3.19,9.86-4.58,10.9-4.53,18-2.07,19.35,11.48.36,3.61.66,7.23.92,10.86.32,4.43,2.72,6.75,7.09,6.47A45.75,45.75,0,0,1,179,44.32c7.62,1.72,13.44,5.26,9.68,16.55a91.37,91.37,0,0,1-5.5,12.7c-1.79,3.5-1,6,2,8.14,3.45,2.56,6.86,5.18,10.33,7.7,9,6.5,9.41,14.62.9,21.74a126.67,126.67,0,0,1-12.47,8.93c-2.26,1.46-2.53,2.74-1.42,5.14,2.62,5.66,5.42,11.29,6.66,17.48,1.71,8.55-2.17,13.57-10.9,14.43-4.93.48-9.83,1.24-14.75,1.8-3.31.38-4.41,2.37-4.45,5.46a83.2,83.2,0,0,1-1.92,15.72c-1.59,7.62-7,10.73-14.38,8.1-5.44-1.93-10.8-4.09-16.09-6.4-2.33-1-3.72-1-5.34,1.32-3,4.36-6.3,8.5-9.69,12.56C109,198.79,106.08,201.53,101.53,201.12Z"/><path class="cls-1" d="M189,220.29c-6.12-.7-12.54-1.33-18.94-2.19-4.37-.58-6.78.65-8.44,5.23-2.53,7-6.13,13.54-9.44,20.2-3,6-6.67,6.33-10.12.63-8.46-14-16.59-28.13-24.87-42.2-.92-1.56-1.33-3,.18-4.47a5.87,5.87,0,0,0,.63-.77c2.22-3.08,3.81-7.31,6.82-8.93s6.38,2.41,9.78,3.52c3.93,1.27,7.72,2.89,11.91,3,8.13.27,13.68-4,15.91-11.92,1.31-4.67,1.61-9.43,2.14-14.2.14-1.22-.27-3.57,2.07-4s3.53,1.06,4.48,2.56c2.74,4.31,5.28,8.76,7.87,13.17Q187.5,194.46,196,209c1.64,2.82,4,5.62,1.95,9.12S192.18,219.45,189,220.29Z"/><path class="cls-1" d="M4.13,215.44a6.69,6.69,0,0,1,1-4.14c8.38-14.22,16.68-28.49,25.09-42.7,1.28-2.16,2.32-5.36,5.76-4.28,3,.92,1.69,3.94,2.07,6.07.75,4.2.87,8.57,2.15,12.59,3,9.41,11.44,13.66,20.88,10.66,4.69-1.49,9.17-3.65,13.75-5.51,1.74-.71,2.83-1,4.37,1.12,7.36,10.16,7.58,10.11,1.4,20.72-6.39,11-13,21.85-19.45,32.77a17,17,0,0,1-1.31,2.08c-3.9,4.67-6.51,4.52-9.22-.89-3.4-6.77-6.86-13.56-9.62-20.61-2-5.23-5.37-5.71-10.12-4.93a118.42,118.42,0,0,1-21.77,1.72C6.18,220.05,3.8,219.24,4.13,215.44Z"/><path class="cls-2" d="M101,170.4c-38.57-.13-69.74-31.71-69.62-70.56.11-37.56,32.44-69.27,70.34-69S171.21,63,171.05,100.78C170.89,139.15,139.31,170.53,101,170.4Z"/><path class="cls-1" d="M101.27,41.76c-35-1-59.41,30.06-59.23,58.14.23,33.47,26.09,60,59.13,60.06a59.67,59.67,0,0,0,59.43-60C160.33,68.91,133.76,40.7,101.27,41.76Zm37.5,44.61q-22,21.75-44,43.5c-2.62,2.61-5.17,2.7-7.93.49-8.85-7.08-16.43-15.48-24.19-23.67-2.06-2.17-2.64-5.29.11-7.55,2.52-2.07,5.29-1.59,7.61.66,5.74,5.54,11.53,11,17.1,16.73,2.32,2.38,3.73,2,5.92-.22,11.77-12,23.69-23.78,35.57-35.64A50.47,50.47,0,0,1,133,77a5,5,0,0,1,5.63-.37c1.73.91,2.57,2.54,2.61,5C141.4,83.36,140.22,84.94,138.77,86.37Z"/></g></symbol></defs><title>certified</title><use id="New_Symbol-3" data-name="New Symbol" width="202.45" height="248.23" xlink:href="#New_Symbol"/></svg>