<?xml version="1.0" encoding="UTF-8"?>
<!DOCTYPE svg PUBLIC "-//W3C//DTD SVG 1.1//EN" "http://www.w3.org/Graphics/SVG/1.1/DTD/svg11.dtd">
<!-- Creator: CorelDRAW X5 -->
<svg xmlns="http://www.w3.org/2000/svg" xml:space="preserve" width="9.75522in" height="1.515in" style="shape-rendering:geometricPrecision; text-rendering:geometricPrecision; image-rendering:optimizeQuality; fill-rule:evenodd; clip-rule:evenodd"
viewBox="0 0 2.62993 0.408432"
 xmlns:xlink="http://www.w3.org/1999/xlink">
 <defs>
  <style type="text/css">
   <![CDATA[
    .fil1 {fill:#FEFEFE}
    .fil0 {fill:#FEFEFE;fill-rule:nonzero}
   ]]>
  </style>
 </defs>
 <g id="Layer_x0020_1">
  <metadata id="CorelCorpID_0Corel-Layer"/>
  <polygon class="fil0" points="2.616,0.339326 2.62993,0.408416 2.38701,0.408416 2.38701,0.408416 2.31792,0.408416 2.31792,1.69822e-005 2.38701,0.0487951 2.38701,0.339326 "/>
  <polygon class="fil0" points="2.18871,0.408416 2.18871,1.69822e-005 2.25747,0.0427855 2.2578,0.408416 "/>
  <path class="fil0" d="M1.96376 1.69822e-005c0.0204327,0 0.0403974,0.00455547 0.0598993,0.0136537 0.0195019,0.00909713 0.0367728,0.0230257 0.0518126,0.0417836 0.0150462,0.0187579 0.0272054,0.0423472 0.0364979,0.0707583 0.009285,0.0284186 0.0139275,0.0619425 0.0139275,0.100571 0,0.0386291 -0.0047359,0.0698275 -0.0142088,0.0936036 -0.00947286,0.0237687 -0.02182,0.0421593 -0.037054,0.055156 -0.0152277,0.013003 -0.0324986,0.0217319 -0.0518126,0.0261876 -0.019314,0.00445463 -0.0390038,0.00668567 -0.0590619,0.00668567l-0.161019 0 0 -0.408399 0.161019 0zm0.0674224 0.322037c0.00556697,-0.0048293 0.0102095,-0.0110469 0.0139275,-0.0186634 0.00371166,-0.00761119 0.00659226,-0.0157839 0.00863543,-0.0245138 0.00204317,-0.00872883 0.00343677,-0.0176455 0.00417443,-0.0267437 0.00074297,-0.00909713 0.0011187,-0.0179204 0.0011187,-0.0264625 0,-0.0341724 -0.00380507,-0.0611984 -0.0114226,-0.0810686 -0.00761756,-0.0198702 -0.015509,-0.034823 -0.0236827,-0.044852 -0.016339,-0.0204264 -0.036397,-0.0306422 -0.0601731,-0.0306422l-0.0941587 0 0 0.270218 0.0941587 0c0.0319488,0 0.0544194,-0.00575483 0.0674224,-0.0172719z"/>
  <path class="fil0" d="M1.58588 1.69822e-005c0.0204327,0 0.0403974,0.00455547 0.0598993,0.0136537 0.0195019,0.00909713 0.0367728,0.0230257 0.0518126,0.0417836 0.0150462,0.0187579 0.0272054,0.0423472 0.0364979,0.0707583 0.009285,0.0284186 0.0139275,0.0619425 0.0139275,0.100571 0,0.0386291 -0.0047359,0.0698275 -0.0142088,0.0936036 -0.00947286,0.0237687 -0.02182,0.0421593 -0.037054,0.055156 -0.0152277,0.013003 -0.0324986,0.0217319 -0.0518126,0.0261876 -0.019314,0.00445463 -0.0390038,0.00668567 -0.0590619,0.00668567l-0.161019 0 0 -0.408399 0.161019 0zm0.0674224 0.322037c0.00556697,-0.0048293 0.0102095,-0.0110469 0.0139275,-0.0186634 0.00371166,-0.00761119 0.00659226,-0.0157839 0.00863543,-0.0245138 0.00204423,-0.00872883 0.00343677,-0.0176455 0.00417443,-0.0267437 0.00074297,-0.00909713 0.0011187,-0.0179204 0.0011187,-0.0264625 0,-0.0341724 -0.00380507,-0.0611984 -0.0114226,-0.0810686 -0.00761756,-0.0198702 -0.015509,-0.034823 -0.0236816,-0.044852 -0.01634,-0.0204264 -0.0363981,-0.0306422 -0.0601742,-0.0306422l-0.0941587 0 0 0.270218 0.0941587 0c0.0319498,0 0.0544194,-0.00575483 0.0674224,-0.0172719z"/>
  <path class="fil0" d="M1.21134 0.408416c-0.0523688,0 -0.0926717,-0.0137407 -0.120903,-0.0412274 -0.0118843,-0.0118854 -0.0209815,-0.0257259 -0.0272999,-0.0415097 -0.00630994,-0.0157902 -0.00947286,-0.0327798 -0.00947286,-0.0509815l0 -0.27468 0.0685347 0.0471966 0 0.227484c0,0.0438267 0.0297114,0.0657475 0.0891415,0.0657475 0.0293494,0 0.051734,-0.00576545 0.0671411,-0.0172709 0.0154113,-0.0115086 0.0231191,-0.0280439 0.0231191,-0.049589l0 -0.225041 0.0685337 -0.0485265 0 0.273568c0,0.015596 -0.00278614,0.0313862 -0.00836053,0.047358 -0.00556697,0.0159707 -0.0146715,0.0304554 -0.0272999,0.0434584 -0.0126284,0.0129967 -0.0289748,0.0235882 -0.0490254,0.0317545 -0.0200581,0.00817373 -0.0447586,0.0122601 -0.0741081,0.0122601z"/>
  <g id="_385479528">
   <path id="_196259784" class="fil1" d="M0.132637 0.304724c-0.00208775,-0.00116328 -0.00181603,-0.000677164 -0.00535575,-0.000929774 -0.00162074,-0.000115691 -0.00352592,-0.000342827 -0.0052252,-0.000567841 -0.00336353,-0.000443659 -0.00675572,-0.00109323 -0.0101999,-0.00191156 -0.0153763,-0.00365435 -0.0309574,-0.0115171 -0.0428832,-0.0219282 -0.00675041,-0.00589387 -0.00932321,-0.0083807 -0.0143489,-0.0150133 -0.0080262,-0.0105937 -0.0137386,-0.0210526 -0.0176668,-0.0343624 -0.0015942,-0.00540457 -0.0027872,-0.012432 -0.0119321,-0.015787 -0.0118642,-0.00435274 -0.027509,0.00344207 -0.0246921,0.0223836 0.000826819,0.00556166 0.00204954,0.0129659 0.00359597,0.0187133 0.000851231,0.00316399 0.00126517,0.00608811 0.00266726,0.00928182l0.00270547 0.00889759c0.0105608,0.0305308 0.0286287,0.0590014 0.0539375,0.0820897 0.0466744,0.0425785 0.113737,0.0607357 0.163029,0.0496622 0.0232677,-0.00522732 0.0474598,-0.0144571 0.0692204,-0.031676 0.021527,-0.0170331 0.0376537,-0.0367919 0.041946,-0.064546 0.000298249,-0.0019296 0.000505219,-0.00332957 0.000741908,-0.00530056l0.000110384 -0.00469663c-0.00173112,8.8095e-005 -0.00904194,0.00435805 -0.0107359,0.00515621 -0.0221511,0.010444 -0.0436495,0.0166595 -0.067537,0.0190115 -0.0081334,0.000801346 -0.00811005,-0.000166638 -0.00907697,0.00272564 -0.00951426,0.0285003 -0.0423748,0.0443436 -0.071046,0.0376993 -0.0150515,-0.00348877 -0.0280768,-0.0128258 -0.0362718,-0.0247091 -0.00877341,-0.0127207 -0.00938371,-0.0204295 -0.0109822,-0.0341925z"/>
   <path id="_196257768" class="fil1" d="M0.15906 0.0149528c-0.00172157,0.00118238 -0.00143499,0.000725988 -0.00327756,0.0015751 -0.00197099,0.000907485 -0.000903239,0.000998764 -0.00318203,0.00119406 -0.00171414,0.00155493 -0.00563065,0.00300478 -0.00821725,0.00431241 -0.0323606,0.016357 -0.061503,0.0434478 -0.0804074,0.0754125 -0.00345906,0.00585036 -0.0083998,0.0162424 -0.0120053,0.0257152 -0.0132854,0.0349143 -0.0127918,0.104054 0.0139795,0.133484 0.00396427,0.00435805 0.0159144,0.0183004 0.0214092,0.0189797 0.000545552,-0.00263436 0.000476562,-0.00697755 0.000653813,-0.0101861 0.000192111,-0.00346755 0.000540245,-0.00681516 0.000938265,-0.0103984 0.00169185,-0.015216 0.00502672,-0.028599 0.010115,-0.043451 0.0123874,-0.0361465 0.0132567,-0.012829 0.00174279,-0.0353144 -0.0220015,-0.0429596 0.00999825,-0.0909979 0.0564721,-0.0893219 0.016737,0.000603928 0.0218285,0.00590661 0.0284833,0.00778102 0.00208244,-0.00219601 0.00508722,-0.00741165 0.00738087,-0.0102105 0.0154718,-0.0188799 0.0385357,-0.0327045 0.0623543,-0.0366051 0.040374,-0.00661349 0.0489214,0.0105672 0.0625846,-0.00183726 0.00619743,-0.0056264 0.00725245,-0.0139604 0.00482612,-0.0203584 -0.00308014,-0.00812597 -0.00967665,-0.0102901 -0.0187504,-0.0137959 -0.0386843,-0.0149422 -0.0884495,-0.0156321 -0.126726,-0.00326482 -0.00203892,0.00065912 -0.0177633,0.00628446 -0.0183736,0.00628977z"/>
   <path id="_386050152" class="fil1" d="M0.340258 0.245953c0.00533771,0.0072344 0.0102052,0.0259127 0.0113282,0.03574 0.0014074,0.012311 0.00100832,0.0254032 -0.00286362,0.0395313 -0.0115755,0.04224 -0.0336576,0.0432143 -0.0327395,0.0605542 0.000717497,0.0135412 0.0168208,0.0235819 0.0304002,0.0131909 0.0163411,-0.0125042 0.0323818,-0.0296392 0.0441642,-0.0473006 0.0180903,-0.027112 0.0287869,-0.0581586 0.032126,-0.0861144 0.00260464,-0.0218062 0.00200602,-0.0567809 -0.00517956,-0.0762436 -0.00031417,-0.000848047 -0.000476562,-0.00144348 -0.000663366,-0.00232762l-0.00192854 -0.00700302c-0.00683426,-0.0210409 -0.0160259,-0.0412582 -0.0308884,-0.0586171 -0.0271502,-0.031711 -0.0714302,-0.05948 -0.116107,-0.0573286 -0.00836053,0.000403326 -0.0315093,0.00580259 -0.0352157,0.0100725 0.0151683,0.0101394 0.0259859,0.017463 0.0380751,0.0294375 0.00534301,0.00529207 0.00998339,0.0103835 0.0145654,0.0159558 0.0178313,0.021683 0.00665595,0.0162838 0.022616,0.0158635 0.0260029,-0.000683532 0.0507151,0.0158964 0.0590396,0.04027 0.00701894,0.0205484 0.0041065,0.0430349 -0.010755,0.0603674 -0.00805379,0.00939326 -0.0131548,0.0107253 -0.0159739,0.0139519z"/>
   <path id="_385480680" class="fil1" d="M0.232686 0.331268c0.0158231,-0.0227009 0.00853566,-0.0524791 -0.0111743,-0.0657687 -0.0238928,-0.0161097 -0.0520535,-0.00921389 -0.0665213,0.0113515 -0.0161628,0.0229779 -0.00856007,0.0516396 0.0115988,0.0661381 0.0229121,0.0164791 0.0524091,0.00791581 0.0660967,-0.0117209z"/>
   <path id="_96040704" class="fil1" d="M0.265615 0.174617c-0.00881162,0.0234089 -0.00055192,0.0506812 0.0258543,0.0617238 0.0233653,0.00977005 0.0504232,-9.97702e-005 0.0618968,-0.0257333 0.0100312,-0.0224122 -0.000767382,-0.0520249 -0.0258193,-0.0619085 -0.0252758,-0.00997278 -0.05303,0.00227455 -0.0619318,0.025918z"/>
   <path id="_385484856" class="fil1" d="M0.137661 0.192268c0.0242229,0.00929667 0.0510739,-0.00210048 0.0608301,-0.024812 0.00979765,-0.022807 0.00160163,-0.0498458 -0.0224992,-0.0619106 -0.0585121,-0.0292879 -0.0964884,0.0644006 -0.0383309,0.0867226z"/>
  </g>
  <polygon class="fil0" points="0.925759,0.169613 0.925759,0.144005 0.925759,0.0487845 0.998938,0 0.998938,0.119612 0.998938,0.197976 0.998938,0.408432 0.925759,0.408174 0.925759,0.252526 0.723245,0.252526 0.723245,0.408174 0.650068,0.408432 0.650068,0.197976 0.650068,0.0848058 0.650068,0 0.723245,0.0487845 0.723245,0.109199 0.723245,0.169613 0.723245,0.179466 0.925759,0.179466 "/>
 </g>
</svg>
