<?xml version="1.0" encoding="utf-8"?>
<!-- Generator: Adobe Illustrator 22.0.1, SVG Export Plug-In . SVG Version: 6.00 Build 0)  -->
<svg version="1.1" xmlns="http://www.w3.org/2000/svg" xmlns:xlink="http://www.w3.org/1999/xlink" x="0px" y="0px"
	 viewBox="0 0 143.2 142.1" style="enable-background:new 0 0 143.2 142.1;" xml:space="preserve">
<style type="text/css">
	.st0{fill:#47484A;}
	.st1{fill:#939496;}
	.st2{fill:#FEFEFE;}
	.st3{fill:#6A97FF;}
	.st4{display:none;}
	.st5{display:inline;}
	.st6{fill:#7B7C7E;}
	.st7{fill:#FFFFFF;}
	.st8{fill:#2C2827;}
</style>
<g id="ëÎÓÈ_2">
	<text transform="matrix(1 0 0 1 400 200)" style="font-family:'MyriadPro-Regular'; font-size:12px;">Convenience</text>
	<title>certified copy 3</title>
	<desc>Created with Sketch.</desc>
	<g id="certified-copy-3_1_" transform="translate(323.000000, 478.000000)">
		<path id="Shape_9_" class="st0" d="M-247.1-363.2c-3.7,0.4-5.4-2.4-7.4-4.6c-1.7-1.8-3.2-3.7-4.6-5.7c-0.9-1.2-1.6-1.2-2.9-0.7
			c-2.9,1.3-5.8,2.5-8.7,3.6c-4.3,1.7-8-0.3-9.2-4.7c-0.8-2.8-0.4-5.6-0.9-8.3c-0.5-3.1-2.3-3.7-4.9-3.9c-2.9-0.2-5.8-0.3-8.5-1.1
			c-3.7-1.1-4.9-3.3-4.3-7c0.5-2.8,1.8-5.3,3-7.8c1.7-3.7,1.6-4.3-1.8-6.6c-2.4-1.7-4.7-3.6-6.7-5.7c-2.8-2.9-2.7-5.6,0.2-8.6
			c2.3-2.4,5.2-4.1,7.8-6.1c1.7-1.3,2-2.7,1.2-4.6c-1.1-2.5-2-5-3.2-7.4c-2.2-4.5,0.4-8,5.5-9.1c2-0.4,4-0.6,6-0.6
			c5.9,0.1,5.4-2,6-5.9c0.3-2,0.3-4.1,0.6-6.1c0.8-4.5,4.5-6.6,9-5c2.9,1.1,5.7,2.2,8.4,3.5c1.7,0.8,2.8,0.2,3.9-1
			c2.1-2.4,3.8-5.2,6.1-7.4c3.6-3.4,7.8-3.2,10.9,0.5c1.7,2.1,3.5,4.2,5,6.5c1.4,2,3.1,2.1,5.2,1.2c1.9-0.9,3.8-1.8,5.7-2.6
			c6.3-2.6,10.4-1.2,11.2,6.5c0.2,2,0.4,4.1,0.5,6.1c0.2,2.5,1.6,3.8,4.1,3.6c2.5-0.1,5.1,0.1,7.5,0.7c4.4,1,7.8,3,5.6,9.3
			c-0.9,2.5-1.9,4.9-3.2,7.2c-1,2-0.6,3.4,1.2,4.6c2,1.4,4,2.9,6,4.3c5.2,3.7,5.5,8.2,0.5,12.3c-2.3,1.8-4.7,3.5-7.2,5
			c-1.3,0.8-1.5,1.5-0.8,2.9c1.5,3.2,3.1,6.4,3.9,9.8c1,4.8-1.3,7.6-6.3,8.1c-2.9,0.3-5.7,0.7-8.6,1c-1.9,0.2-2.6,1.3-2.6,3.1
			c-0.1,3-0.5,5.9-1.1,8.9c-0.9,4.3-4.1,6-8.3,4.6c-3.2-1.1-6.3-2.3-9.3-3.6c-1.4-0.6-2.2-0.6-3.1,0.7c-1.7,2.5-3.7,4.8-5.6,7.1
			C-242.7-364.5-244.4-362.9-247.1-363.2z"/>
		<path id="Shape_8_" class="st1" d="M-198.1-353.4c-3.4-0.4-7-0.7-10.6-1.2c-2.5-0.3-3.8,0.4-4.7,2.9c-1.4,3.8-3.4,7.4-5.3,11.1
			c-1.7,3.3-3.7,3.5-5.7,0.3c-4.7-7.7-9.3-15.5-14-23.2c-0.5-0.9-0.7-1.6,0.1-2.5c0.1-0.1,0.2-0.3,0.4-0.4c1.2-1.7,2.1-4,3.8-4.9
			s3.6,1.3,5.5,1.9c2.2,0.7,4.3,1.6,6.7,1.6c4.6,0.1,7.7-2.2,8.9-6.5c0.7-2.6,0.9-5.2,1.2-7.8c0.1-0.7-0.2-2,1.2-2.2s2,0.6,2.5,1.4
			c1.5,2.4,3,4.8,4.4,7.2c3.2,5.3,6.4,10.7,9.5,16c0.9,1.5,2.2,3.1,1.1,5C-194.2-352.6-196.3-353.8-198.1-353.4z"/>
		<path id="Shape_7_" class="st1" d="M-301.8-356c-0.1-0.8,0.1-1.6,0.6-2.3c4.8-7.8,9.5-15.7,14.3-23.5c0.7-1.2,1.3-2.9,3.3-2.4
			c1.7,0.5,1,2.2,1.2,3.3c0.4,2.3,0.5,4.7,1.2,6.9c1.7,5.2,6.5,7.5,11.9,5.9c2.7-0.8,5.2-2,7.9-3c1-0.4,1.6-0.5,2.5,0.6
			c4.2,5.6,4.3,5.6,0.8,11.4c-3.7,6-7.4,12-11.1,18c-0.2,0.4-0.5,0.8-0.7,1.1c-2.2,2.6-3.7,2.5-5.3-0.5c-1.9-3.7-3.9-7.5-5.5-11.3
			c-1.1-2.9-3.1-3.1-5.8-2.7c-4.1,0.7-8.3,1-12.4,0.9C-300.6-353.5-302-353.9-301.8-356z"/>
		<path id="Shape_6_" class="st2" d="M-247.3-379.8c-23.2-0.1-41.9-18.1-41.9-40.3c0.1-21.5,19.5-39.6,42.3-39.5
			c22.8,0.2,41.8,18.4,41.7,40C-205.2-397.7-224.2-379.8-247.3-379.8z"/>
		<path id="Shape_5_" class="st3" d="M-247.3-453.3c-19.8-0.6-33.6,17.1-33.5,33c0.1,19,14.8,34.1,33.5,34.1c9,0,17.6-3.6,23.9-10
			c6.3-6.4,9.8-15,9.8-24C-213.9-437.9-228.9-453.9-247.3-453.3z M-226.1-428c-8.3,8.2-16.6,16.5-24.9,24.7
			c-1.5,1.5-2.9,1.5-4.5,0.3c-5-4-9.3-8.8-13.7-13.4c-1.2-1.2-1.5-3,0.1-4.3c1.4-1.2,3-0.9,4.3,0.4c3.3,3.1,6.5,6.2,9.7,9.5
			c1.3,1.4,2.1,1.1,3.4-0.1c6.7-6.8,13.4-13.5,20.1-20.2c0.7-0.7,1.5-1.4,2.3-2.1c0.9-0.7,2.2-0.8,3.2-0.2c1,0.5,1.5,1.4,1.5,2.8
			C-224.6-429.7-225.3-428.8-226.1-428z"/>
	</g>
</g>
<g id="ëÎÓÈ_3" class="st4">
	<g class="st5">
		<path class="st0" d="M71.3,120.6c-28.2,0-51.1-22.9-51.1-51.2s22.9-51.2,51.1-51.2s51.1,22.9,51.1,51.2
			C122.5,97.7,99.6,120.6,71.3,120.6z M118.2,70.7h-6.4c-0.1,5.4-1.1,10.4-2.7,15h6.2C117.1,80.9,118,75.8,118.2,70.7L118.2,70.7z
			 M114.3,88.2h-6.1c-2.5,6.4-6.1,12-9.7,16.5h3.7C107.4,100.1,111.5,94.5,114.3,88.2z M56.4,70.7c0.1,5.6,0.5,10.5,1.1,15H85
			c0.8-5,1.2-10,1.2-15L56.4,70.7z M86.2,68.2c-0.1-5.6-0.5-10.5-1.1-15H57.7c-0.8,5-1.2,10-1.3,15H86.2z M83.9,104.7h10.5
			c3.6-4.5,7.1-10,9.7-16.5H88.8C87.6,94.8,85.7,100.3,83.9,104.7L83.9,104.7z M84.5,88.2H58c1.2,6.7,2.9,12.2,4.7,16.5h17
			C81.5,100.3,83.3,94.8,84.5,88.2L84.5,88.2z M53.7,88.2H41c2.5,6.4,6.1,12,9.7,16.5h7.7C56.6,100.4,54.9,94.9,53.7,88.2z
			 M53.3,85.7c-0.7-4.5-1.1-9.5-1.1-15H37.3c0.2,5.4,1.2,10.4,2.8,15H53.3z M52.2,68.2c0.1-5.5,0.5-10.5,1.2-15H39.9
			c-1.6,4.8-2.5,9.9-2.6,15H52.2z M53.9,50.6c1.3-6.6,3.1-12.1,4.9-16.5h-8.4c-3.6,4.5-7.1,10-9.6,16.5H53.9z M58.1,50.6h26.6
			c-1.2-6.7-2.9-12.2-4.7-16.5h-17C61.2,38.5,59.4,44,58.1,50.6L58.1,50.6z M89,50.6h14.9c-2.5-6.4-6.1-12-9.7-16.5h-9.8
			C86.1,38.5,87.8,43.9,89,50.6L89,50.6z M89.4,53.1c0.7,4.5,1.1,9.5,1.1,15h17c-0.2-5.4-1.2-10.4-2.7-15H89.4z M90.5,70.7
			c0,5-0.5,10-1.2,15h15.6c1.6-4.8,2.5-9.9,2.6-15L90.5,70.7z M99.1,107.2h-2.7c-1.2,1.4-2.5,2.7-3.8,4.1
			C94.9,110.1,97.1,108.7,99.1,107.2z M85.2,114.2c2.1-1.8,4.5-4.2,7-7.1h-9.5c-1.9,4-3.7,6.9-5.1,8.7
			C80.2,115.6,82.8,115,85.2,114.2L85.2,114.2z M71.3,116.4c0.6,0,1.2,0,1.8,0c1.4-1.8,3.3-4.9,5.4-9.1H63.7
			c2.1,4.4,4.1,7.3,5.6,9.1C70,116.3,70.7,116.4,71.3,116.4L71.3,116.4z M60.7,115.1c1.3,0.3,2.7,0.6,4,0.8
			c-1.4-1.8-3.3-4.7-5.2-8.7h-6.7C55.2,110,57.9,112.7,60.7,115.1L60.7,115.1z M54.1,113.1c-2-1.9-3.9-3.8-5.7-5.9h-4.9
			C46.8,109.6,50.3,111.6,54.1,113.1z M40.4,104.7h5.9c-3.6-4.5-7.2-10.1-9.7-16.5h-8.3C31.1,94.5,35.2,100.1,40.4,104.7z
			 M27.4,85.7h8.4c-1.6-4.6-2.6-9.6-2.7-15h-8.5C24.6,75.9,25.6,81,27.4,85.7L27.4,85.7z M24.5,68.2H33c0.1-5.4,1.1-10.4,2.7-15
			h-8.3C25.6,58,24.6,63,24.5,68.2L24.5,68.2z M28.4,50.6h8.2c2.5-6.4,6.1-12,9.7-16.5h-5.9C35.3,38.7,31.1,44.3,28.4,50.6
			L28.4,50.6z M43.5,31.6h4.9c1.8-2.1,3.7-4,5.7-5.9C50.3,27.3,46.8,29.2,43.5,31.6L43.5,31.6z M60.5,23.7c-2.9,2.4-5.5,5.1-8,7.9
			h7.4c1.9-4,3.7-6.9,5.1-8.7C63.5,23.1,62,23.4,60.5,23.7L60.5,23.7z M71.3,22.5c-0.6,0-1.2,0-1.8,0c-1.4,1.8-3.3,4.9-5.4,9.1h14.7
			c-2.1-4.4-4.1-7.3-5.6-9.1C72.7,22.5,72,22.5,71.3,22.5z M85,24.5c-2.3-0.7-4.7-1.3-7.1-1.6c1.4,1.8,3.3,4.7,5.2,8.7h8.9
			C89.9,29.1,87.5,26.7,85,24.5L85,24.5z M92.6,27.6c1.3,1.3,2.6,2.7,3.8,4.1h2.8C97.1,30.1,94.9,28.7,92.6,27.6L92.6,27.6z
			 M102.2,34.1h-3.8c3.6,4.5,7.2,10.1,9.7,16.5h6.1C111.5,44.3,107.4,38.7,102.2,34.1L102.2,34.1z M115.3,53.1h-6.2
			c1.6,4.6,2.6,9.6,2.7,15h6.4C118,63,117.1,58,115.3,53.1z"/>
		<path class="st6" d="M71.3,120.6c-13.1,0-25-4.9-34.1-13.1l2.8-3.2l0.4,0.3h5.9c-1-1.3-2.1-2.7-3-4.1l2.5-2.9
			c1.5,2.4,3.1,4.8,4.9,7h7.7c-1.8-4.3-3.5-9.6-4.6-16.3l3.6-4.2c0.1,0.5,0.1,1,0.2,1.4H85c0.8-5,1.2-10,1.2-15H69l2.2-2.5h15
			c-0.1-5.6-0.5-10.5-1.1-15h-1l4.4-5.1c0.2,0.8,0.3,1.7,0.5,2.6h14.9c-1.8-4.7-4.2-8.9-6.8-12.5l2.4-2.7c3.3,4.3,6.4,9.4,8.7,15.3
			h6.1c-2.8-6.3-6.9-12-12.1-16.5h-1.7L104,30c11.3,9.4,18.4,23.5,18.4,39.4C122.5,97.7,99.6,120.6,71.3,120.6L71.3,120.6z
			 M118.2,70.7h-6.4c-0.1,5.4-1.1,10.4-2.7,15h6.2C117.1,80.9,118,75.8,118.2,70.7L118.2,70.7z M114.3,88.2h-6.1
			c-2.5,6.4-6.1,12-9.7,16.5h3.7C107.4,100.1,111.5,94.5,114.3,88.2z M83.9,104.7h10.5c3.6-4.5,7.1-10,9.7-16.5H88.8
			C87.6,94.8,85.7,100.3,83.9,104.7z M84.5,88.2H58c1.2,6.7,2.9,12.2,4.7,16.5h17C81.5,100.3,83.3,94.8,84.5,88.2z M89.4,53.1
			c0.7,4.5,1.1,9.5,1.1,15h17c-0.2-5.4-1.2-10.4-2.7-15H89.4z M90.5,70.7c0,5-0.5,10-1.2,15h15.6c1.6-4.8,2.5-9.9,2.6-15L90.5,70.7z
			 M99.1,107.2h-2.7c-1.2,1.4-2.5,2.7-3.8,4.1C94.9,110.1,97.1,108.7,99.1,107.2z M85.2,114.2c2.1-1.8,4.5-4.2,7-7.1h-9.5
			c-1.9,4-3.7,6.9-5.1,8.7C80.2,115.6,82.8,115,85.2,114.2L85.2,114.2z M71.3,116.4c0.6,0,1.2,0,1.8,0c1.4-1.8,3.3-4.9,5.4-9.1H63.7
			c2.1,4.4,4.1,7.3,5.6,9.1C70,116.3,70.7,116.4,71.3,116.4L71.3,116.4z M60.7,115.1c1.3,0.3,2.7,0.6,4,0.8
			c-1.4-1.8-3.3-4.7-5.2-8.7h-6.7C55.2,110,57.9,112.7,60.7,115.1L60.7,115.1z M54.1,113.1c-2-1.9-3.9-3.8-5.7-5.9h-4.9
			C46.8,109.6,50.3,111.6,54.1,113.1z M115.3,53.1h-6.2c1.6,4.6,2.6,9.6,2.7,15h6.4C118,63,117.1,58,115.3,53.1L115.3,53.1z"/>
		<path class="st3" d="M135.3,73.2c-2.1,0-3.7-1.7-3.7-3.8c0-2.1,1.7-3.8,3.7-3.8l0,0c2.1,0,3.7,1.7,3.7,3.8c0,0,0,0,0,0
			C139,71.5,137.3,73.2,135.3,73.2z M135.3,66.2c-1.8,0-3.2,1.5-3.2,3.3c0,0,0,0,0,0c0,1.8,1.5,3.3,3.2,3.3c1.8,0,3.2-1.5,3.2-3.3
			c0,0,0,0,0,0C138.5,67.6,137.1,66.2,135.3,66.2C135.3,66.2,135.3,66.2,135.3,66.2L135.3,66.2z M135.3,70.7c-0.7,0-1.2-0.6-1.2-1.3
			c0-0.7,0.6-1.2,1.3-1.2s1.2,0.6,1.2,1.3C136.5,70.1,135.9,70.7,135.3,70.7z M116,30.1c-3,0-5.5-2.5-5.5-5.5c0,0,0,0,0,0
			c0-3,2.5-5.5,5.5-5.5c0,0,0,0,0,0c3,0,5.5,2.5,5.5,5.5c0,0,0,0,0,0C121.5,27.7,119.1,30.1,116,30.1C116,30.1,116,30.1,116,30.1z
			 M116.1,22.5c-1.2,0-2.1,1-2.1,2.1c0,1.2,1,2.1,2.1,2.1c1.2,0,2.1-1,2.1-2.1C118.2,23.4,117.2,22.5,116.1,22.5z M26.6,108.2
			c3.3,0,6,2.7,6,6c0,0,0,0,0,0c0,3.3-2.7,6-6,6c0,0,0,0,0,0c-3.3,0-6-2.7-6-6C20.6,110.9,23.3,108.2,26.6,108.2L26.6,108.2z
			 M26.6,116.4c1.2,0,2.1-1,2.1-2.1c0-1.2-1-2.1-2.1-2.1s-2.1,1-2.1,2.1C24.5,115.4,25.4,116.4,26.6,116.4z M7.4,73.2
			c-2.1,0-3.7-1.7-3.7-3.8c0,0,0,0,0,0c0-2.1,1.7-3.8,3.7-3.8c0,0,0,0,0,0c2.1,0,3.7,1.7,3.7,3.8l0,0C11.2,71.5,9.5,73.2,7.4,73.2
			L7.4,73.2z M7.4,66.2c-1.8,0-3.2,1.5-3.2,3.3c0,0,0,0,0,0c0,1.8,1.5,3.3,3.2,3.3c0,0,0,0,0,0c1.8,0,3.2-1.5,3.2-3.3c0,0,0,0,0,0
			C10.7,67.6,9.2,66.2,7.4,66.2C7.4,66.2,7.4,66.2,7.4,66.2L7.4,66.2z M8.7,69.4c0-0.7-0.6-1.2-1.2-1.3s-1.2,0.6-1.3,1.2
			s0.6,1.2,1.2,1.3C8.1,70.7,8.7,70.1,8.7,69.4L8.7,69.4z"/>
		<path class="st6" d="M133.4,54c-0.7,0.2-1.4-0.2-1.5-0.9c-0.2-0.7,0.2-1.3,0.9-1.5c0.7-0.2,1.4,0.2,1.5,0.9
			C134.5,53.2,134.1,53.9,133.4,54z M126.1,102.5c-0.6-0.3-0.8-1.1-0.5-1.7c0.3-0.6,1.1-0.8,1.7-0.5c0,0,0,0,0,0
			c0.6,0.3,0.8,1.1,0.5,1.7C127.4,102.7,126.7,102.9,126.1,102.5C126.1,102.5,126.1,102.5,126.1,102.5L126.1,102.5z M127.3,38.5
			c-0.6,0.3-1.4,0.1-1.7-0.5c0,0,0,0,0,0c-0.3-0.6-0.1-1.4,0.5-1.7c0.6-0.3,1.4-0.1,1.7,0.5c0,0,0,0,0,0
			C128.1,37.4,127.9,38.1,127.3,38.5z M102.7,15c-0.6-0.3-0.8-1.1-0.5-1.7c0.3-0.6,1.1-0.8,1.7-0.5c0,0,0,0,0,0
			c0.6,0.3,0.8,1.1,0.5,1.7C104,15.2,103.3,15.4,102.7,15C102.7,15,102.7,15,102.7,15z M87.6,8.8c-0.7-0.2-1.1-0.9-0.9-1.5
			c0.2-0.7,0.9-1.1,1.5-0.9c0.7,0.2,1.1,0.9,0.9,1.5C88.9,8.5,88.2,8.9,87.6,8.8L87.6,8.8z M71.3,6.6c-0.7,0-1.2-0.6-1.2-1.3
			s0.6-1.2,1.3-1.2s1.2,0.6,1.2,1.3S72,6.6,71.3,6.6z M55.1,8.8c-0.7,0.2-1.4-0.2-1.5-0.9c-0.2-0.7,0.2-1.3,0.9-1.5
			c0.7-0.2,1.4,0.2,1.5,0.9C56.2,7.9,55.8,8.6,55.1,8.8z M40,15c-0.6,0.3-1.4,0.1-1.7-0.5c0,0,0,0,0,0c-0.3-0.6-0.1-1.4,0.5-1.7
			c0.6-0.3,1.4-0.1,1.7,0.5c0,0,0,0,0,0C40.8,13.9,40.6,14.7,40,15L40,15z M25.3,25c-0.5-0.5-0.5-1.3,0-1.8c0.5-0.5,1.3-0.5,1.8,0
			c0,0,0,0,0,0c0.5,0.5,0.5,1.3,0,1.8C26.5,25.5,25.7,25.5,25.3,25C25.3,25,25.3,25,25.3,25z M16.6,102.5c-0.6,0.3-1.4,0.1-1.7-0.5
			c0,0,0,0,0,0c-0.3-0.6-0.1-1.4,0.5-1.7c0.6-0.3,1.4-0.1,1.7,0.5c0,0,0,0,0,0C17.4,101.4,17.2,102.2,16.6,102.5L16.6,102.5z
			 M15.4,38.5c-0.6-0.3-0.8-1.1-0.5-1.7c0.3-0.6,1.1-0.8,1.7-0.5c0,0,0,0,0,0c0.6,0.3,0.8,1.1,0.5,1.7C16.7,38.6,16,38.8,15.4,38.5
			C15.4,38.5,15.4,38.5,15.4,38.5z M9.3,54c-0.7-0.2-1.1-0.9-0.9-1.5c0.2-0.7,0.9-1.1,1.5-0.9c0.7,0.2,1.1,0.9,0.9,1.5
			C10.6,53.8,9.9,54.2,9.3,54z M9.3,84.8c0.7-0.2,1.4,0.2,1.5,0.9c0.2,0.7-0.2,1.3-0.9,1.5c-0.7,0.2-1.4-0.2-1.5-0.9
			C8.2,85.6,8.6,85,9.3,84.8L9.3,84.8z M40,123.8c0.6,0.4,0.8,1.1,0.4,1.7c-0.3,0.5-1.1,0.7-1.6,0.4c-0.6-0.3-0.8-1.1-0.5-1.7
			C38.6,123.7,39.4,123.4,40,123.8C40,123.8,40,123.8,40,123.8z M55.1,130.1c0.7,0.2,1.1,0.8,0.9,1.5c-0.2,0.7-0.8,1.1-1.5,0.9
			c0,0,0,0-0.1,0c-0.7-0.2-1-0.9-0.8-1.6C53.8,130.3,54.5,129.9,55.1,130.1z M71.3,132.2c0.7,0,1.3,0.6,1.3,1.3s-0.6,1.3-1.3,1.3
			c-0.7,0-1.3-0.6-1.3-1.3S70.6,132.2,71.3,132.2L71.3,132.2z M87.6,130.1c0.7-0.1,1.3,0.3,1.5,1c0.1,0.6-0.2,1.3-0.8,1.5
			c-0.7,0.2-1.4-0.2-1.5-0.9S86.9,130.2,87.6,130.1L87.6,130.1z M102.7,123.8c0.6-0.3,1.4-0.1,1.7,0.5c0,0,0,0,0,0
			c0.3,0.6,0.1,1.4-0.5,1.7c-0.6,0.3-1.4,0.1-1.7-0.5C101.9,124.9,102.1,124.1,102.7,123.8L102.7,123.8z M117.4,113.8
			c0.5,0.5,0.5,1.3,0,1.8c-0.5,0.5-1.3,0.5-1.8,0c0,0,0,0,0,0c-0.5-0.5-0.5-1.3,0-1.8C116.1,113.3,116.9,113.3,117.4,113.8
			C117.4,113.8,117.4,113.8,117.4,113.8z M131.9,85.7c-0.2,0.7,0.2,1.4,0.9,1.5c0.7,0.2,1.4-0.2,1.5-0.9c0.2-0.7-0.2-1.4-0.9-1.5
			C132.7,84.6,132,85,131.9,85.7L131.9,85.7z"/>
		<path class="st7" d="M33.2,44.1c3.7,0,6.8,3,6.8,6.8c0,3.7-3,6.8-6.8,6.8s-6.8-3-6.8-6.8C26.4,47.1,29.4,44.1,33.2,44.1L33.2,44.1
			z"/>
		<path class="st3" d="M33.2,42.9c4.4,0,8,3.6,8,7.9c0,6.9-8,12.3-8,12.3s-8-5.5-8-12.3C25.2,46.5,28.8,42.9,33.2,42.9L33.2,42.9z
			 M28,51c0,2.9,2.3,5.2,5.2,5.2c0,0,0,0,0,0c2.9,0,5.2-2.3,5.2-5.2c0,0,0,0,0,0c0-2.9-2.3-5.2-5.2-5.2c0,0,0,0,0,0
			C30.3,45.9,28,48.2,28,51C28,51,28,51,28,51L28,51z"/>
		<path class="st7" d="M96.5,49.1c6,0,10.8,4.9,10.8,10.9c0,6-4.8,10.9-10.8,10.9c-6,0-10.8-4.9-10.8-10.9
			C85.7,54,90.6,49.1,96.5,49.1z"/>
		<path class="st3" d="M96.5,47.2c7,0,12.7,5.8,12.7,12.8c0,11.1-12.7,19.9-12.7,19.9s-12.7-8.9-12.7-19.9
			C83.8,53,89.5,47.2,96.5,47.2z M88.3,60.4c0,4.6,3.7,8.4,8.3,8.4c4.6,0,8.3-3.7,8.3-8.4s-3.7-8.4-8.3-8.4
			C92,52,88.3,55.8,88.3,60.4z"/>
		<path class="st7" d="M55.4,78.9c3.2,0,5.8,2.6,5.8,5.9c0,3.3-2.6,5.9-5.8,5.9s-5.8-2.6-5.8-5.9S52.2,78.9,55.4,78.9L55.4,78.9z"/>
		<path class="st8" d="M55.4,77.8c3.8,0,6.9,3.1,6.9,6.9c0,6-6.9,10.7-6.9,10.7s-6.9-4.8-6.9-10.7C48.5,80.9,51.6,77.8,55.4,77.8
			L55.4,77.8z M50.9,84.9c0,2.5,2,4.5,4.5,4.5c2.5,0,4.5-2,4.5-4.5c0-2.5-2-4.5-4.5-4.5C52.9,80.4,50.9,82.4,50.9,84.9L50.9,84.9z"
			/>
		<path class="st7" d="M82.5,98.3c2,0,3.7,1.7,3.7,3.7c0,2.1-1.6,3.7-3.7,3.7s-3.7-1.7-3.7-3.7C78.9,100,80.5,98.3,82.5,98.3z"/>
		<path class="st8" d="M82.5,97.6c2.4,0,4.3,2,4.3,4.4c0,3.8-4.3,6.8-4.3,6.8s-4.3-3-4.3-6.8C78.2,99.6,80.2,97.6,82.5,97.6
			L82.5,97.6z M79.7,102.1c0,1.6,1.3,2.9,2.8,2.9c1.5,0,2.8-1.3,2.8-2.9s-1.3-2.9-2.8-2.9C81,99.3,79.7,100.6,79.7,102.1L79.7,102.1
			z"/>
		<path class="st7" d="M89.4,19.9c2,0,3.7,1.7,3.7,3.7c0,2.1-1.6,3.7-3.7,3.7s-3.7-1.7-3.7-3.7S87.4,19.9,89.4,19.9L89.4,19.9z"/>
		<path class="st8" d="M89.4,19.2c2.4,0,4.3,2,4.3,4.4c0,3.8-4.3,6.8-4.3,6.8s-4.3-3-4.3-6.8C85.1,21.2,87.1,19.2,89.4,19.2z
			 M86.6,23.7c0,1.6,1.3,2.9,2.8,2.9c1.5,0,2.8-1.3,2.8-2.9s-1.3-2.9-2.8-2.9C87.9,20.8,86.6,22.1,86.6,23.7z"/>
		<path class="st7" d="M52,42.5c2,0,3.7,1.7,3.7,3.7S54,49.9,52,49.9c-2,0-3.7-1.7-3.7-3.7C48.3,44.1,50,42.5,52,42.5z"/>
		<path class="st8" d="M52,41.8c2.4,0,4.3,2,4.3,4.4C56.3,50,52,53,52,53s-4.3-3-4.3-6.8C47.7,43.8,49.6,41.8,52,41.8z M49.2,46.3
			c0,1.6,1.3,2.9,2.8,2.9c1.6,0,2.8-1.3,2.8-2.9c0-1.6-1.3-2.9-2.8-2.9C50.4,43.4,49.2,44.7,49.2,46.3L49.2,46.3z"/>
	</g>
</g>
</svg>
