<?xml version="1.0" encoding="utf-8"?>
<!-- Generator: Adobe Illustrator 22.0.1, SVG Export Plug-In . SVG Version: 6.00 Build 0)  -->
<svg version="1.1" id="Layer_2" xmlns="http://www.w3.org/2000/svg" xmlns:xlink="http://www.w3.org/1999/xlink" x="0px" y="0px"
	 viewBox="0 0 371.9 345.9" style="enable-background:new 0 0 371.9 345.9;" xml:space="preserve">
<style type="text/css">
	.st0{fill:#CCCCCC;}
	.st1{font-family:'Calibri-Bold';}
	.st2{font-size:30.7444px;}
</style>
<path class="st0" d="M125.2,296.7C52.8,266.3,19.4,184.3,49.8,111.9C79.7,40.8,162.4,7.2,233.5,37.2
	c71.8,30.3,105.4,112.2,75.4,183.8C278.8,292.7,196.5,326.6,125.2,296.7z M131.8,280.5c62.8,26.1,134.6-3.4,160.9-66.1
	c26.2-62.5-3.3-134.8-65.6-160.9c-63.2-26.4-135.2,3-161.5,65.9C39.4,182.3,69,254.3,131.8,280.5z"/>
<g>
	<path class="st0" d="M245.7,111.9c-21.3-26.2-61.5-39.9-99.3-24.2c-37.8,15.7-56.4,53.7-53.1,87.1L245.7,111.9z"/>
	<path class="st0" d="M112.6,221.8c21.3,26.2,61.5,39.9,99.3,24.2c37.8-15.7,56.4-53.7,53.1-87.1L112.6,221.8z"/>
</g>
<text transform="matrix(0.9245 -0.3813 0.3813 0.9245 105.1905 207.7312)" class="st0 st1 st2">No Records</text>
</svg>
