<svg id="Layer_1" data-name="Layer 1" xmlns="http://www.w3.org/2000/svg" viewBox="0 0 113.67 226.35"><defs><style>.cls-1{fill:#fff;}</style></defs><title>battery_charging_full - material</title><path d="M390.32,124.93V102.49h45.13v22.44c6.15,0,11.76,0,17.37,0,10.6.08,17,6.53,17,17.21q0,84.47,0,168.91c0,11-6.76,17.75-17.7,17.76q-39.24,0-78.46,0c-10.79,0-17.47-6.63-17.48-17.39q0-84.7,0-169.41c0-10.8,6.24-17,17-17.08C378.67,124.9,384.14,124.93,390.32,124.93Zm33.77,36.23-.93-.25L379,243.74h22.7v59.6l1.09.26,44.12-82.78H424.09Z" transform="translate(-356.17 -102.49)"/><path class="cls-1" d="M424.09,161.16v59.66h22.83L402.8,303.6l-1.09-.26v-59.6H379l44.15-82.83Z" transform="translate(-356.17 -102.49)"/></svg>