<?xml version="1.0" encoding="UTF-8"?>
<svg width="24px" height="24px" viewBox="0 0 24 24" version="1.1" xmlns="http://www.w3.org/2000/svg" xmlns:xlink="http://www.w3.org/1999/xlink">
    <!-- Generator: Sketch 47.1 (45422) - http://www.bohemiancoding.com/sketch -->
    <title>printer-tool</title>
    <desc>Created with Sketch.</desc>
    <defs></defs>
    <g id="Page-1" stroke="none" stroke-width="1" fill="none" fill-rule="evenodd">
        <g id="Facility---Deactive-Page" transform="translate(-1131.000000, -1496.000000)" fill-rule="nonzero" fill="#000000">
            <g id="Group-7" transform="translate(255.000000, 638.000000)">
                <g id="printer-tool" transform="translate(876.000000, 858.000000)">
                    <path d="M6.50005936,1.66672163 L18.4999406,1.66672163 L18.4999406,5 L20,5 L20,1.66672163 C20,0.747158654 19.3291851,0 18.4999406,0 L6.50005936,0 C5.67249669,0 5,0.747158654 5,1.66672163 L5,5 L6.50005936,5 L6.50005936,1.66672163 Z" id="Shape"></path>
                    <path d="M22.5001824,6 L1.50006492,6 C0.672499181,6 0,6.67225233 0,7.49991756 L0,14.9999505 C0,15.8291491 0.672449718,16.5000165 1.50006492,16.5000165 L4.50004637,16.5000165 L4.50004637,22.4999835 C4.50004637,23.3291821 5.17249609,24 6.00011129,24 L18.0000371,24 C18.8292846,24 19.500102,23.3291821 19.500102,22.4999835 L19.500102,16.5000165 L22.5001824,16.5000165 C23.3291331,16.5000165 24,15.8291491 24,14.9999505 L24,7.49991756 C24,6.67225233 23.3290836,6 22.5001824,6 Z M17.9999876,22.4999835 L6.00006183,22.4999835 L6.00006183,11.999967 L17.9999876,11.999967 L17.9999876,22.4999835 Z M21.000068,10.5000495 C20.17087,10.5000495 19.5000526,9.82913264 19.5000526,8.99998351 C19.5000526,8.1724172 20.17087,7.49991756 21.000068,7.49991756 C21.8293155,7.49991756 22.5001329,8.17236774 22.5001329,8.99998351 C22.5001824,9.82908317 21.8293155,10.5000495 21.000068,10.5000495 Z" id="Shape"></path>
                    <rect id="Rectangle-path" x="8" y="14" width="6" height="1"></rect>
                    <rect id="Rectangle-path" x="8" y="16" width="9" height="1"></rect>
                    <rect id="Rectangle-path" x="8" y="19" width="9" height="1"></rect>
                </g>
            </g>
        </g>
    </g>
</svg>