<svg id="Layer_1" data-name="Layer 1" xmlns="http://www.w3.org/2000/svg" viewBox="0 0 384.59 280.98"><title>wifi_icon_shutterstock</title><path d="M652.26,163.49c-3.45.09-8-3.41-12.11-8.19a210.19,210.19,0,0,0-75.63-56c-83.14-36.7-182.39-14.52-242.16,53.91-3.38,3.87-7.71,7.61-12.37,9.49-7.06,2.84-15-.87-19.06-7.23-4.22-6.63-3.76-14.56,1.52-20.89a243.81,243.81,0,0,1,57-49.78C452,19.73,587.87,40.15,666.7,132.41c4.32,5.06,7.11,10.42,5.54,17.31C670.4,157.78,663.64,163.36,652.26,163.49Z" transform="translate(-288.09 -46.86)"/><path d="M487.91,117.13c45.29,1.07,89.35,20.85,124.6,60,4.17,4.63,7.28,9.66,6.28,16.17-1.1,7.21-5.14,12.29-12.15,14.47-7.23,2.25-13.16-.16-18.62-5.29-9.8-9.2-19.13-19.27-30.16-26.75-57.6-39.06-135.14-29-181.67,22.81-1.11,1.24-2.2,2.5-3.32,3.73-6.87,7.52-17.27,8.48-24.64,2.3-7.54-6.33-8.5-17.13-1.88-25a173.52,173.52,0,0,1,48.21-40C420.76,124.87,450.53,117.09,487.91,117.13Z" transform="translate(-288.09 -46.86)"/><path d="M566.1,235.55c-.94,7.77-5.27,14.33-11.91,17s-13.84.92-19.32-4.2c-5.82-5.44-11.41-11.4-18.09-15.56-29.22-18.19-66-12.31-89.3,13.82-4.69,5.27-10.17,8.16-17.18,6.93-13.73-2.4-19.25-18.25-9.94-29,21.32-24.56,48.41-37.18,80.91-36.94,31.73.23,58.18,12.78,79,36.79C562.89,227.5,564.17,231.8,566.1,235.55Z" transform="translate(-288.09 -46.86)"/><path d="M480.25,257.8a35,35,0,1,1-34.88,35.05A34.79,34.79,0,0,1,480.25,257.8Z" transform="translate(-288.09 -46.86)"/></svg>