<?xml version="1.0" encoding="UTF-8"?>
<svg width="32px" height="16px" viewBox="0 0 32 16" version="1.1" xmlns="http://www.w3.org/2000/svg" xmlns:xlink="http://www.w3.org/1999/xlink">
    <!-- Generator: Sketch 47.1 (45422) - http://www.bohemiancoding.com/sketch -->
    <title>projector</title>
    <desc>Created with Sketch.</desc>
    <defs></defs>
    <g id="Page-1" stroke="none" stroke-width="1" fill="none" fill-rule="evenodd">
        <g id="Facility---Deactive-Page" transform="translate(-725.000000, -1445.000000)" fill-rule="nonzero" fill="#000000">
            <g id="Group-7" transform="translate(255.000000, 638.000000)">
                <g id="Group-26" transform="translate(435.000000, 805.000000)">
                    <g id="projector" transform="translate(35.000000, 2.000000)">
                        <ellipse id="Oval" cx="24" cy="7.5" rx="3" ry="3.5"></ellipse>
                        <path d="M28.3904722,1.49806271 C27.2820144,0.575833833 25.8740425,0 24.3201536,0 C22.7777844,0 21.3819724,0.566886359 20.2786344,1.47441582 L3.83928321,1.47441582 C1.72732545,1.47441582 0,3.20063911 0,5.30904733 L0,10.4218894 C0,12.5302976 1.72732545,14.2565209 3.83928321,14.2565209 L3.83928321,15.3608947 C3.83928321,15.7124026 4.12727745,16 4.47927041,16 L6.59634807,16 C6.94770105,16 7.23633527,15.7124026 7.23633527,15.3608947 L7.23633527,14.2558818 L24.7630247,14.2558818 L24.7630247,15.3602556 C24.7630247,15.7117635 25.051659,15.9993609 25.4030119,15.9993609 L27.5207296,15.9993609 C27.8727225,15.9993609 28.1607168,15.7117635 28.1607168,15.3602556 L28.1607168,14.2558818 C30.2726745,14.2558818 32,12.5296585 32,10.4212502 L32,5.30840823 C31.99936,3.27924905 30.3949121,1.62013182 28.3904722,1.49806271 Z M4.48759025,10.4212502 C4.48759025,10.7733972 3.99992,11.0603555 3.40473191,11.0603555 C2.81210376,11.0603555 2.32379352,10.7733972 2.32379352,10.4212502 L2.32379352,5.30840823 C2.32379352,4.95690034 2.81274375,4.66930298 3.40473191,4.66930298 C4.00055999,4.66930298 4.48759025,4.95690034 4.48759025,5.30840823 L4.48759025,10.4212502 Z M7.89680206,10.4212502 C7.89680206,10.7733972 7.41233175,11.0603555 6.81650367,11.0603555 C6.22259555,11.0603555 5.73556529,10.7733972 5.73556529,10.4212502 L5.73556529,5.30840823 C5.73556529,4.95690034 6.22323554,4.66930298 6.81650367,4.66930298 C7.41297174,4.66930298 7.89680206,4.95690034 7.89680206,5.30840823 L7.89680206,10.4212502 Z M11.3085738,10.4212502 C11.3085738,10.7733972 10.8196236,11.0603555 10.2276354,11.0603555 C9.63180736,11.0603555 9.1447771,10.7733972 9.1447771,10.4212502 L9.1447771,5.30840823 C9.1447771,4.95690034 9.63244735,4.66930298 10.2276354,4.66930298 C10.8202636,4.66930298 11.3085738,4.95690034 11.3085738,5.30840823 L11.3085738,10.4212502 Z M24.3201536,10.8641502 C21.8472431,10.8641502 19.8396032,8.86055522 19.8396032,6.39041342 C19.8396032,3.91963251 21.8472431,1.91667665 24.3201536,1.91667665 C26.7937041,1.91667665 28.800704,3.91963251 28.800704,6.39041342 C28.800704,8.86119433 26.7937041,10.8641502 24.3201536,10.8641502 Z" id="Shape"></path>
                    </g>
                </g>
            </g>
        </g>
    </g>
</svg>