<?xml version="1.0" encoding="UTF-8"?>
<svg width="20px" height="24px" viewBox="0 0 20 24" version="1.1" xmlns="http://www.w3.org/2000/svg" xmlns:xlink="http://www.w3.org/1999/xlink">
    <!-- Generator: Sketch 47.1 (45422) - http://www.bohemiancoding.com/sketch -->
    <title>policeman</title>
    <desc>Created with Sketch.</desc>
    <defs></defs>
    <g id="Page-1" stroke="none" stroke-width="1" fill="none" fill-rule="evenodd">
        <g id="Facility---Deactive-Page" transform="translate(-936.000000, -1441.000000)" fill-rule="nonzero" fill="#000000">
            <g id="Group-7" transform="translate(255.000000, 638.000000)">
                <g id="Group-25" transform="translate(644.000000, 803.000000)">
                    <g id="policeman" transform="translate(37.000000, 0.000000)">
                        <path d="M16.8384659,16.1970143 C14.6182559,15.3102806 13.9777104,15.0445598 13.7643583,15 C13.7214486,15 13.636445,15 13.5934809,15.0445598 L11.5866773,16.4629045 C11.5442027,16.5075208 11.5017281,16.5516287 11.5017281,16.6403529 C11.5017281,16.6845173 11.5017281,16.7732415 11.5442027,16.8178578 L12.5689778,17.881814 L11.4162894,19.0788283 C11.3306875,19.1677219 11.3306875,19.3006106 11.4162894,19.3893348 L12.4406293,20.7635716 L11.0318968,23.6899453 C10.9893677,23.7783872 10.9893677,23.8229469 11.0318968,23.9117276 C11.0748065,23.9558356 11.1598101,24 11.2027742,24 L19.7415874,24 C19.8697182,24 19.9552113,23.9117276 19.9552113,23.7783872 C20.0404869,22.7585954 20.3390601,17.6158108 16.8384659,16.1970143 Z" id="Shape"></path>
                        <path d="M7.55905035,20.7355288 L8.58371236,19.3675396 C8.66915072,19.2797572 8.62645873,19.1468473 8.58371236,19.0590087 L7.43092001,17.8678768 L8.45569079,16.8086996 C8.49821962,16.7648084 8.54102038,16.676464 8.49821962,16.6325728 C8.49821962,16.588232 8.45569079,16.4999438 8.41299881,16.4559964 L6.40631238,15.0441722 C6.36356601,15 6.27829081,15 6.23554444,15 C6.06477651,15.0441722 5.42450551,15.3089806 3.16161279,16.1913566 C-0.339293094,17.6471844 -0.0406123562,22.764696 0.0449347669,23.7794762 C0.0449347669,23.9121052 0.130373121,24 0.25828592,24 L8.79717229,24 L8.79717229,24 C8.88261064,24 8.92513947,23.9560526 8.96794022,23.9121614 C9.01068659,23.8678206 9.01068659,23.7795324 8.96794022,23.691469 L7.55905035,20.7355288 Z" id="Shape"></path>
                        <path d="M11.9141734,20.020208 L10.7572614,18.6327614 L11.8715331,17.5712498 C11.9141734,17.5305924 11.9141734,17.489987 11.9141734,17.4082563 C11.9141734,17.3264216 11.8715331,17.2858161 11.8715331,17.2446908 L10.6285215,16.061259 C10.5430225,15.9795803 10.414228,15.9795803 10.3286744,16.061259 L9.08549902,17.2446908 C8.9999454,17.3263696 8.9999454,17.4489137 9.08549902,17.5305404 L10.1999345,18.5914801 L9.0428587,19.9794986 C9,20.020104 9,20.1018347 9,20.1835135 L10.2858157,22.8772999 C10.328729,22.9589787 10.4142826,23 10.5001638,23 C10.5856628,23 10.6714894,22.9589787 10.7144573,22.8772999 L12,20.1835135 C12,20.1836175 12,20.1019387 11.9141734,20.020208 Z" id="Shape"></path>
                        <path d="M13.8316756,8.03111005 C12.7382632,7.37487311 11.098091,7 9.45807961,7 C7.81785389,7 6.17768174,7.37487311 5.08426936,8.03111005 C5.04205432,8.07804383 5,8.1249179 5,8.17179196 C5,8.21860632 5,8.31235445 5.04210789,8.35928823 C5.96751728,9.95312593 8.44877587,10 8.95326702,10 L8.95326702,10 L10.0465187,10 C10.5512777,10 13.0328042,9.90607273 13.95816,8.35928823 C14,8.31241416 14,8.21860632 14,8.17179196 C13.9158378,8.1249179 13.8739442,8.03111005 13.8316756,8.03111005 Z" id="Shape"></path>
                        <path d="M9.93990327,15 L9.93990327,15 L9.93990327,15 C12.7419111,14.9555911 15,12.5449455 15,9.55431205 C15,9.46498255 15,9.33113045 15,9.19710777 C15,9.10789199 14.9583937,9.01856249 14.8746483,9.01856249 C14.7910094,8.97375558 14.707264,9.01856249 14.6656577,9.06325567 C13.4525749,10.3576521 11.2361455,10.4917316 10.567088,10.4917316 L9.43785712,10.4917316 C8.76885292,10.4917316 6.55221049,10.4024021 5.33939399,9.06325567 C5.29752129,9.01856249 5.21404227,8.97381244 5.13040343,9.01856249 C5.04660477,9.06325567 5.00499844,9.10789199 5.00499844,9.19710777 C5.00499844,9.33107359 5.00499844,9.42017565 5.00499844,9.55431205 C4.87938035,12.5449455 7.13778893,14.9555343 9.93990327,15 Z" id="Shape"></path>
                        <path d="M4.09509035,5.9142358 C4.17907953,5.9571452 4.26285486,6 4.34695096,5.9571452 C5.10226548,5.52854257 7.45262591,4.80017469 9.5091044,4.80017469 C11.6073369,4.80017469 13.9580181,5.52859716 14.713493,5.9571452 C14.755247,5.9571452 14.7974287,6 14.7974287,6 C14.8392362,6 14.8814179,6 14.9232254,5.9571452 C15.4269466,5.48568777 15.80439,5.14295853 15.9306144,5.01439412 C16.0143897,4.92862992 16.0143897,4.8001201 15.9724218,4.7143559 C15.9306144,4.67139192 15.8884326,4.62848252 15.8466252,4.54293669 C15.6368394,4.32866268 15.342904,3.98560588 15.2171608,3.42860262 L15.1330112,3.12845523 C15.049022,2.35717795 15.0072146,2.05713974 14.2517931,1.97148472 L14.0420608,1.97148472 C13.2444041,1.88572052 11.9852615,1.75721071 10.977926,0.857150656 C10.1384084,0.0858733827 9.8030398,0 9.55117919,0 C9.29921165,0 8.96357571,0.0858733827 8.12421856,0.857150656 C7.1169365,1.75721071 5.85790077,1.88572052 5.06029762,1.97148472 L4.85040487,1.97148472 C4.09509035,2.05713974 4.01099425,2.35717795 3.88525106,3.08581879 L3.80115496,3.38574782 C3.67535831,3.94296945 3.38142292,4.24289848 3.17158363,4.50008189 C3.12977616,4.54293669 3.0878083,4.62848252 3.04578698,4.67139192 C2.9617978,4.7572653 3.00376566,4.88566593 3.0878083,4.97153932 C3.25567973,5.09993995 3.59131567,5.44299674 4.09509035,5.9142358 Z" id="Shape"></path>
                        <path d="M14.7917783,6.95466389 C14.8336562,6.90921197 14.8751095,6.86370216 14.9166158,6.77274043 L15,6.3181634 C15,6.22731747 14.9585467,6.09090383 14.8751095,6.09090383 C14.2916855,5.81836605 12.2082482,5 10.0001858,5 C7.75008625,5 5.70826146,5.81836605 5.12489053,6.09090383 C5.04171864,6.13635574 5,6.22731747 5,6.3181634 L5.08317189,6.77274043 C5.08317189,6.86370216 5.12483745,6.90915407 5.2083278,6.95466389 C5.24999337,6.95466389 5.24999337,7 5.29144662,7 C5.33316526,7 5.37483082,7 5.37483082,6.95466389 C6.58318516,6.3182213 8.20824819,5.95460599 10.0417452,5.95460599 C11.8333643,5.95460599 13.5000398,6.3182213 14.7082349,6.95466389 C14.6669409,6.95466389 14.7503251,6.95466389 14.7917783,6.95466389 Z" id="Shape"></path>
                    </g>
                </g>
            </g>
        </g>
    </g>
</svg>