<?xml version="1.0" encoding="UTF-8"?>
<svg width="34px" height="22px" viewBox="0 0 34 22" version="1.1" xmlns="http://www.w3.org/2000/svg" xmlns:xlink="http://www.w3.org/1999/xlink">
    <!-- Generator: Sketch 47.1 (45422) - http://www.bohemiancoding.com/sketch -->
    <title>minisplit</title>
    <desc>Created with Sketch.</desc>
    <defs></defs>
    <g id="Page-1" stroke="none" stroke-width="1" fill="none" fill-rule="evenodd">
        <g id="Facility---Deactive-Page" transform="translate(-1128.000000, -1442.000000)" fill-rule="nonzero" fill="#000000">
            <g id="Group-7" transform="translate(255.000000, 638.000000)">
                <g id="Group-24" transform="translate(838.000000, 804.000000)">
                    <g id="minisplit" transform="translate(35.000000, 0.000000)">
                        <path d="M3.18747082,13 L4.52523216,13 C4.52523216,13 4.68770033,12.2525174 4.88938496,11.3303522 C5.09013586,10.4086133 6.68080332,9.66070433 8.4407418,9.66070433 L25.971031,9.66070433 C27.731503,9.66070433 29.2568097,10.4086133 29.378194,11.3303522 L29.5973526,13 L30.8125292,13 C32.5724677,13 34,11.4790243 34,9.6037086 L34,3.2641068 C34,1.69821677 33.0002472,0.39342685 31.6474128,0 C31.7239783,0.320796388 31.7687971,0.654384833 31.7687971,0.999343997 L31.7687971,2.35786056 C31.7687971,4.60556728 30.0531439,6.43341023 27.9438588,6.43341023 L6.05600782,6.43341023 C3.94658935,6.43341023 2.2312029,4.60556728 2.2312029,2.35786056 L2.2312029,0.999343997 C2.2312029,0.654384833 2.27562154,0.320796388 2.35232039,1.00992265e-15 C0.999486059,0.393284716 0,1.69821677 0,3.2641068 L0,9.6037086 C0,11.4795928 1.42713217,13 3.18747082,13 Z" id="Shape"></path>
                        <path d="M4.55121893,5 L26.4487811,5 C27.8565158,5 29,3.82999918 29,2.39131028 L29,1.08717011 C29,0.697715674 28.9115161,0.331868672 28.7608399,0 L2.23916009,0 C2.08901774,0.331868672 2,0.697579215 2,1.08717011 L2,2.39144674 C2,3.82999918 3.14481879,5 4.55121893,5 Z M3.28561896,1.15485385 L27.3631147,1.15485385 C27.5394151,1.15485385 27.6820838,1.30100161 27.6820838,1.48099124 C27.6820838,1.66098087 27.5395486,1.80712863 27.3631147,1.80712863 L3.28561896,1.80712863 C3.10971884,1.80712863 2.96664986,1.66098087 2.96664986,1.48099124 C2.96664986,1.30100161 3.10905155,1.15485385 3.28561896,1.15485385 Z M3.28561896,3.19300783 L27.3631147,3.19300783 C27.5394151,3.19300783 27.6820838,3.33915559 27.6820838,3.51900876 C27.6820838,3.69899839 27.5395486,3.84514615 27.3631147,3.84514615 L3.28561896,3.84514615 C3.10971884,3.84514615 2.96664986,3.69899839 2.96664986,3.51900876 C2.96664986,3.33901913 3.10905155,3.19300783 3.28561896,3.19300783 Z" id="Shape"></path>
                        <path d="M26.8377383,10 C26.7484305,9.44783105 25.3089012,9 23.6220186,9 L8.45962333,9 C6.77401839,9 5.3151965,9.44771689 5.20327427,10 C5.09096875,10.5525114 5,11 5,11 L27,11 L26.8377383,10 Z" id="Shape"></path>
                        <path d="M7.18645564,21.8705652 C7.28553897,21.9575205 7.40766494,22 7.52935201,22 C7.67627624,22 7.82254212,21.9377781 7.92601452,21.8173273 C8.00721238,21.7220535 9.89868362,19.4755226 8.46444412,17.6513461 C7.66892454,16.6388267 8.25673121,16.0506582 8.38478243,15.9409658 C8.60697928,15.7578494 8.64307941,15.4274413 8.46389548,15.1997381 C8.28339484,14.9709258 7.95355596,14.9331047 7.72697004,15.1153338 C7.17756776,15.5578743 6.45238309,16.7951023 7.64324846,18.3107204 C8.53609574,19.4463526 7.14651507,21.1070442 7.13290894,21.1230156 C6.94417878,21.3437313 6.96777005,21.6785758 7.18645564,21.8705652 Z" id="Shape"></path>
                        <path d="M12.1863805,21.8705652 C12.2854657,21.9575205 12.4075939,22 12.5292832,22 C12.6763198,22 12.8224786,21.9377781 12.9259529,21.8173273 C13.0071522,21.7220535 14.8986578,19.4755226 13.464502,17.6513461 C12.668968,16.6388267 13.2567853,16.0506582 13.3848389,15.9409658 C13.6071495,15.7578494 13.6432503,15.4274413 13.4639534,15.1997381 C13.2834494,14.9709258 12.9537143,14.9331047 12.7270145,15.1153338 C12.1774925,15.5578743 11.4524044,16.7951023 12.6432914,18.3107204 C13.5361549,19.4463526 12.146549,21.1070442 12.1329426,21.1230156 C11.9440993,21.3437313 11.967691,21.6785758 12.1863805,21.8705652 Z" id="Shape"></path>
                        <path d="M19.1868049,21.8705652 C19.2855535,21.9575205 19.4080018,22 19.5293529,22 C19.6762689,22 19.822746,21.9377781 19.9262126,21.8173273 C20.0070767,21.7220535 21.898771,19.4755226 20.4643925,17.6513461 C19.669137,16.6388267 20.2569107,16.0506582 20.3849548,15.9409658 C20.6071391,15.7578494 20.6430178,15.4274413 20.4638439,15.1997381 C20.2834631,14.9709258 19.9538622,14.9331047 19.7269598,15.1153338 C19.1774787,15.5578743 18.4523347,16.7951023 19.6434624,18.3107204 C20.5359304,19.4463526 19.1467569,21.1070442 19.1329321,21.1230156 C18.9439931,21.3437313 18.967583,21.6785758 19.1868049,21.8705652 Z" id="Shape"></path>
                        <path d="M24.1867618,21.8705652 C24.2856225,21.9575205 24.4080737,22 24.5294277,22 C24.6763471,22 24.8228277,21.9377781 24.9261871,21.8173273 C25.0070531,21.7220535 26.8987924,19.4755226 25.4643798,17.6513461 C24.6691054,16.6388267 25.2570028,16.0506582 25.3849401,15.9409658 C25.6072395,15.7578494 25.643119,15.4274413 25.4638312,15.1997381 C25.2835558,14.9709258 24.9538373,14.9331047 24.7269296,15.1153338 C24.1774354,15.5578743 23.4523839,16.7951023 24.6434302,18.3107204 C25.5360291,19.4463526 24.1468226,21.1070442 24.1328877,21.1230156 C23.9440539,21.3437313 23.9676444,21.6785758 24.1867618,21.8705652 Z" id="Shape"></path>
                    </g>
                </g>
            </g>
        </g>
    </g>
</svg>