<?xml version="1.0" encoding="UTF-8"?>
<svg width="23px" height="22px" viewBox="0 0 23 22" version="1.1" xmlns="http://www.w3.org/2000/svg" xmlns:xlink="http://www.w3.org/1999/xlink">
    <!-- Generator: Sketch 47.1 (45422) - http://www.bohemiancoding.com/sketch -->
    <title>white-board</title>
    <desc>Created with Sketch.</desc>
    <defs></defs>
    <g id="Page-1" stroke="none" stroke-width="1" fill="none" fill-rule="evenodd">
        <g id="Facility---Deactive-Page" transform="translate(-319.000000, -1496.000000)" fill-rule="nonzero" fill="#000000">
            <g id="Group-7" transform="translate(255.000000, 638.000000)">
                <g id="white-board" transform="translate(64.000000, 858.000000)">
                    <path d="M21.9544474,2.12905587 L20.5605271,2.12905587 L12.5454178,2.12905587 L12.5454178,1.06452793 C12.5454178,0.476620163 12.0773337,0 11.4999551,0 C10.9225765,0 10.4544924,0.476620163 10.4544924,1.06452793 L10.4544924,2.12905587 L2.43938305,2.12905587 L1.04546271,2.12905587 C0.468084109,2.12905587 0,2.60567603 0,3.19353806 C0,3.78144583 0.468084109,4.25806599 1.04546271,4.25806599 L1.39396526,4.25806599 L1.39396526,16.6774061 C1.39396526,17.2653138 1.86204937,17.741934 2.43942797,17.741934 L10.4545373,17.741934 L10.4545373,19.8709441 L8.01515424,19.8709441 C7.43777563,19.8709441 6.96969152,20.3475643 6.96969152,20.9354721 C6.96969152,21.5233798 7.43777563,22 8.01515424,22 L14.9848458,22 C15.5622244,22 16.0303085,21.5233798 16.0303085,20.9354721 C16.0303085,20.3475643 15.5622244,19.8709441 14.9848458,19.8709441 L12.5454627,19.8709441 L12.5454627,17.741934 L20.560572,17.741934 C21.1379506,17.741934 21.6060347,17.2653138 21.6060347,16.6774061 L21.6060347,4.25806599 L21.9545373,4.25806599 C22.5319159,4.25806599 23,3.78144583 23,3.19353806 C22.9999102,2.60567603 22.531826,2.12905587 21.9544474,2.12905587 Z M19.5150644,15.6128781 L3.48484576,15.6128781 L3.48484576,4.25806599 L19.5151093,4.25806599 L19.5151093,15.6128781 L19.5150644,15.6128781 Z" id="Shape"></path>
                </g>
            </g>
        </g>
    </g>
</svg>