<?xml version="1.0" encoding="UTF-8"?>
<svg width="28px" height="18px" viewBox="0 0 28 18" version="1.1" xmlns="http://www.w3.org/2000/svg" xmlns:xlink="http://www.w3.org/1999/xlink">
    <!-- Generator: Sketch 47.1 (45422) - http://www.bohemiancoding.com/sketch -->
    <title>sedan-car-front</title>
    <desc>Created with Sketch.</desc>
    <defs></defs>
    <g id="Page-1" stroke="none" stroke-width="1" fill="none" fill-rule="evenodd">
        <g id="Facility---Deactive-Page" transform="translate(-549.000000, -1499.000000)" fill-rule="nonzero" fill="#000000">
            <g id="Group-7" transform="translate(255.000000, 638.000000)">
                <g id="sedan-car-front" transform="translate(294.000000, 861.000000)">
                    <path d="M26.2655714,5.74668704 C26.2467127,5.72535936 26.2307114,5.70459293 26.2084238,5.68382651 L25.2272009,4.75382745 C26.0409816,4.57254217 26.9170531,3.9029653 26.9170531,3.21598952 C26.9170531,2.4156403 25.7861037,2.13164541 24.8208821,2.13164541 C23.8116569,2.13164541 23.6945045,2.81076362 23.6825035,3.2906364 L21.1508684,0.893517508 C20.6365407,0.393439556 19.6610326,0 18.9318302,0 L14.0011422,0 L13.9999993,0 L9.06816837,0 C8.3395375,0 7.36460082,0.393439556 6.84970167,0.893517508 L4.31863804,3.2906364 C4.30549411,2.81076362 4.18834169,2.13164541 3.18025945,2.13164541 C2.2138949,2.13164541 1.08351697,2.4156403 1.08351697,3.21598952 C1.08351697,3.9029653 1.96015991,4.57254217 2.77394059,4.75382745 L1.79271768,5.68382651 C1.77043015,5.70459293 1.75500032,5.72535936 1.73557016,5.74668704 C0.685770232,6.62785694 0,8.26223068 0,9.44816189 L0,12.9722803 C0,13.8276324 0.343456591,14.6038477 0.898359004,15.1825013 L0.898359004,16.5491566 C0.898359004,17.3483833 1.57955743,18 2.41734007,18 L4.25406134,18 C5.09184397,18 5.77247093,17.3495058 5.77247093,16.5491566 L5.77247093,16.1994949 L13.9999993,16.1994949 L14.0011422,16.1994949 L22.2280991,16.1994949 L22.2280991,16.5491566 C22.2280991,17.3495058 22.9081546,18 23.7470802,18 L25.58323,18 C26.4215841,18 27.1016396,17.3483833 27.1016396,16.5491566 L27.1016396,15.1825013 C27.6571135,14.6038477 27.9999986,13.8276324 27.9999986,12.9722803 L27.9999986,9.44816189 C28.0011415,8.26223068 27.3153713,6.62785694 26.2655714,5.74668704 Z M7.77949181,1.95877896 C8.13552085,1.66748776 8.75785734,1.4463534 9.06816837,1.4463534 L13.9999993,1.4463534 L14.0011422,1.4463534 L18.9329732,1.4463534 C19.2432842,1.4463534 19.8656207,1.66748776 20.2216497,1.95877896 L23.5413491,5.11864301 L14.0011422,5.11864301 L13.9999993,5.11864301 L4.46036388,5.11864301 L7.77949181,1.95877896 Z M1.13895006,8.91496991 C1.13895006,8.04727012 1.83043504,7.34289545 2.68421898,7.34289545 C3.53743145,7.34289545 6.32565892,8.95032896 6.32565892,9.81802875 C6.32565892,10.6857285 3.53743145,10.4847994 2.68421898,10.4847994 C1.83043504,10.4847994 1.13895006,9.78323096 1.13895006,8.91496991 Z M5.7730424,14.6543606 L5.47873268,14.6543606 L5.18442295,14.6543606 L3.43856624,14.6571669 C2.95395527,14.5089957 2.61221311,14.3361292 2.3704791,14.1503539 C2.24818341,14.0566244 2.15446148,13.958966 2.08131265,13.861869 C2.00759235,13.7636494 1.95387369,13.6671136 1.9190137,13.5705778 C1.70185313,12.9677902 2.15046115,12.4138318 2.15046115,12.4138318 L5.13013281,12.4138318 L7.11658058,14.6532381 L5.7730424,14.6543606 L5.7730424,14.6543606 Z M18.2849203,14.6554831 L14.0011422,14.6554831 L13.9999993,14.6554831 L9.71622124,14.6554831 C8.82300551,14.6554831 8.09780349,13.9432509 8.09780349,13.066571 L13.9999993,13.066571 L14.0011422,13.066571 L19.903338,13.066571 C19.903338,13.9443734 19.178136,14.6554831 18.2849203,14.6554831 Z M18.660951,11.9822269 L14.0011422,11.9822269 L13.9999993,11.9822269 L9.34019056,11.9822269 C8.36868273,11.9822269 7.58004696,10.805837 7.58004696,9.35499361 L13.9999993,9.35499361 L14.0011422,9.35499361 L20.4210946,9.35499361 C20.4210946,10.8063983 19.6324588,11.9822269 18.660951,11.9822269 Z M26.0826993,13.5717003 C26.0472678,13.6682361 25.9935492,13.7647719 25.9198289,13.8624302 C25.8472515,13.9595273 25.7535296,14.0571856 25.6306624,14.1509152 C25.3894999,14.3366905 25.0471862,14.5106794 24.5625753,14.6577282 L22.8167186,14.6549219 L22.5224088,14.6549219 L22.2280991,14.6549219 L20.883418,14.6549219 L22.8710087,12.4155156 L25.8501089,12.4155156 C25.8501089,12.4149543 26.2992884,12.9677902 26.0826993,13.5717003 Z M25.3169225,10.4847994 C24.4642816,10.4847994 21.6760541,10.684606 21.6760541,9.81802875 C21.6760541,8.95145147 24.4642816,7.34289545 25.3169225,7.34289545 C26.1707065,7.34289545 26.8621915,8.04727012 26.8621915,8.91496991 C26.8621915,9.78210845 26.1707065,10.4847994 25.3169225,10.4847994 Z" id="Shape"></path>
                </g>
            </g>
        </g>
    </g>
</svg>