<?xml version="1.0" encoding="UTF-8"?>
<svg width="29px" height="19px" viewBox="0 0 29 19" version="1.1" xmlns="http://www.w3.org/2000/svg" xmlns:xlink="http://www.w3.org/1999/xlink">
    <!-- Generator: Sketch 47.1 (45422) - http://www.bohemiancoding.com/sketch -->
    <title>vespa</title>
    <desc>Created with Sketch.</desc>
    <defs></defs>
    <g id="Page-1" stroke="none" stroke-width="1" fill="none" fill-rule="evenodd">
        <g id="Facility---Deactive-Page" transform="translate(-725.000000, -1497.000000)" fill-rule="nonzero" fill="#000000">
            <g id="Group-7" transform="translate(255.000000, 638.000000)">
                <g id="vespa" transform="translate(470.000000, 859.000000)">
                    <path d="M14.3386027,7 L25.2569317,7 C25.3830776,7 25.4998297,6.91861899 25.5541798,6.79136868 C25.8849772,6.02046856 26.1822252,5.22367448 25.8641766,4.70579531 C25.5595477,4.20493218 24.8160921,4 23.2949606,4 C22.3273948,4 21.1041823,4.08508015 19.811858,4.17533909 C18.2055109,4.28705302 16.3864603,4.41430333 14.5969333,4.41430333 C14.4781683,4.41430333 14.3687972,4.4838471 14.3104211,4.59704069 C14.2822396,4.65178792 14.0319608,5.16818742 14.0010953,6.39926017 C13.9977404,6.50505549 14.0024373,6.59531443 14.0104892,6.67669544 C14.0292768,6.86017263 14.1701845,7 14.3386027,7 Z" id="Shape"></path>
                    <path d="M27.9988901,11.3787164 L28.1883533,11.3104481 C28.2933958,11.2709596 28.3713721,11.1792659 28.3939272,11.0648161 L28.5930569,10.0595322 C28.6162564,9.94508243 28.5782349,9.82594758 28.4938143,9.74763985 L27.441456,8.77247428 C27.384746,8.72026913 27.3119251,8.69015077 27.2371709,8.68881217 L25.957328,8.6620403 C25.7021328,8.43514865 24.9545911,7.76852896 24.6175529,7.47604622 C24.5608429,7.42651825 24.4886664,7.39974637 24.4145567,7.39974637 L14.7268033,7.39974637 C14.6236941,7.39974637 14.5276737,7.45128223 14.4683859,7.53896012 C14.4090981,7.62596872 14.3942761,7.7377413 14.4284311,7.83880513 C14.5089851,8.07439763 14.6733154,8.2751867 14.9001556,8.5542835 C15.1424622,8.85145132 15.4749894,9.25838382 15.8622933,9.90157813 C16.1387548,10.3620544 16.1903094,10.8332394 16.0156682,11.3050937 C15.7404956,12.0439975 14.9800653,12.6195928 14.5347624,12.750775 C14.1796801,12.8565239 13.5726247,12.9187685 12.9107926,12.9187685 C11.8629454,12.9187685 10.7732101,12.7654995 9.84329399,12.4864027 C8.11750383,11.9676976 7.78884326,7.93986896 7.97250652,7.2431309 C8.07432685,6.85426941 8.52800731,5.56386501 8.96686583,4.31629562 C9.09059686,3.96357616 9.19757265,3.66038467 9.29165979,3.39132732 C9.36899169,3.44754826 9.42505732,3.48569818 9.42892391,3.48837537 C9.48176737,3.52317881 9.5397663,3.53991123 9.59840965,3.53991123 C9.70345215,3.53991123 9.80591691,3.48569818 9.86584913,3.38731154 C9.95993627,3.23337326 9.91611486,3.0305763 9.76853983,2.93285895 C9.76725096,2.93218966 9.65318641,2.85588981 9.5159223,2.74612512 C9.58229884,2.55269832 9.63836447,2.38872059 9.6847636,2.25084543 C9.6905635,2.25151472 9.69636339,2.25285332 9.70151885,2.25419191 C9.73438491,2.35860223 9.8117168,2.44561082 9.92191476,2.47372129 C10.3807507,2.59017895 10.8092983,2.7501409 10.8138093,2.7521488 C10.8492531,2.76553473 10.8853413,2.7722277 10.9214295,2.7722277 C11.0516049,2.7722277 11.1727582,2.68856559 11.2198018,2.55470621 C11.2790895,2.38403551 11.1940245,2.19462449 11.0296942,2.13371847 C11.0110056,2.1270255 10.5663472,1.96037058 10.072712,1.83521206 C9.97089162,1.80844019 9.87164902,1.84190503 9.79689486,1.90749613 C9.87744891,1.65316331 9.90064848,1.54473721 9.90064848,1.4831619 C9.90064848,0.869416655 7.69475612,0.0247639848 7.0077911,0 C6.80543931,0 6.62822037,0.0876778921 6.49482285,0.252994223 C6.00054314,0.865400874 6.26476046,2.59017895 6.32275938,2.93018177 C6.34660338,3.072742 6.45744577,3.1811681 6.59599875,3.19923912 L7.42667221,3.30565732 C7.14763295,4.22727913 5.90903373,7.08718473 5.64546085,7.51352684 C5.5829509,7.60722841 5.16600309,7.68419755 4.96558459,7.72100888 C4.53703699,7.79998591 4.13168897,7.87427786 3.9776696,8.19420178 C3.82042808,8.52148795 3.8326723,9.07834296 3.85393857,9.38421164 C3.80625057,9.38287304 3.75985143,9.37417219 3.71216342,9.37417219 C2.24479068,9.37417219 0.877949399,10.1953995 0.145229674,11.5119064 C-0.0158784444,11.801712 -0.0429446084,12.0808088 0.0640311825,12.3431732 C0.176162433,12.615577 0.44617964,12.8491616 0.807706259,13.0586515 C0.3263152,13.6857827 0.0363205861,14.4762223 0.0363205861,15.3382767 C0.0363205861,17.3568761 1.61711345,19 3.56072179,19 C5.50433014,19 7.085123,17.3568761 7.085123,15.3382767 C7.085123,15.2405594 7.07803424,15.142842 7.07094549,15.0451247 C7.3867174,15.1655981 7.79786532,15.3657179 7.91321873,15.4286318 C8.02857214,15.492215 8.12394815,15.4219388 8.14392556,15.3235522 C8.1645474,15.2244963 8.20385778,14.9581161 8.21352426,14.7680358 C9.14988465,15.5584754 10.1545549,15.6146964 11.6335274,15.6146964 L19.8055756,15.6146964 C20.0987924,17.5288854 21.6944072,18.9986614 23.6186826,18.9986614 C25.7504652,18.9986614 27.4852774,17.1982528 27.4852774,14.9828801 C27.4852774,14.8644145 27.4775442,14.7479569 27.4685222,14.6335071 C28.5911236,14.4688601 28.7741424,14.2754333 28.8617852,14.1810624 C28.9822941,14.053896 29.0029159,13.9166902 28.9996938,13.8270044 C28.9745609,13.0988094 28.3501058,11.9630125 27.9988901,11.3787164 Z M5.50046354,15.3376074 C5.50046354,16.447971 4.6304797,17.3521911 3.56072179,17.3521911 C2.49096388,17.3521911 1.62098004,16.447971 1.62098004,15.3376074 C1.62098004,14.6683106 1.93997412,14.0793293 2.42458734,13.7118853 C3.0071543,13.8919262 3.64643131,14.0592504 4.303108,14.2279132 C4.64143505,14.3149218 4.98298427,14.4046076 5.31744472,14.4936241 C5.4321537,14.7533113 5.50046354,15.0357545 5.50046354,15.3376074 Z M25.8993291,14.9815415 C25.8993291,16.2886783 24.8753259,17.3515218 23.6173937,17.3515218 C22.3594615,17.3515218 21.3361028,16.2886783 21.3361028,14.9815415 C23.0058273,14.9688249 24.8121715,14.8617374 25.8806406,14.7901226 C25.885796,14.8543751 25.8993291,14.917289 25.8993291,14.9815415 Z" id="Shape"></path>
                </g>
            </g>
        </g>
    </g>
</svg>