<?xml version="1.0" encoding="UTF-8"?>
<svg width="21px" height="21px" viewBox="0 0 21 21" version="1.1" xmlns="http://www.w3.org/2000/svg" xmlns:xlink="http://www.w3.org/1999/xlink">
    <!-- Generator: Sketch 47.1 (45422) - http://www.bohemiancoding.com/sketch -->
    <title>modem</title>
    <desc>Created with Sketch.</desc>
    <defs></defs>
    <g id="Page-1" stroke="none" stroke-width="1" fill="none" fill-rule="evenodd">
        <g id="Facility---Deactive-Page" transform="translate(-935.000000, -1495.000000)" fill-rule="nonzero" fill="#000000">
            <g id="Group-7" transform="translate(255.000000, 638.000000)">
                <g id="modem" transform="translate(680.000000, 857.000000)">
                    <path d="M7.5344751,6.27277352 C5.85709709,4.98122977 5.85709709,2.99423939 7.5344751,1.70269565 C8.01372596,1.30529757 8.01372596,0.709200457 7.65428781,0.311802381 C7.17503695,-0.0855956944 6.45616066,-0.0855956944 5.9769098,0.212452862 C3.34103007,2.29879276 3.34103007,5.6766764 5.9769098,7.66366678 C6.45616066,8.16041438 7.17503695,8.06106486 7.65428781,7.66366678 C8.13353868,7.26626871 8.13353868,6.67017159 7.5344751,6.27277352 Z" id="Shape"></path>
                    <path d="M15.0230902,0.288457726 C14.5438393,-0.111422924 13.824963,-0.111422924 13.3457122,0.388427889 C12.8664613,0.78830854 12.8664613,1.38812952 13.4655249,1.78801017 C15.0230902,2.98765212 15.0230902,4.98705537 13.4655249,6.28666749 C12.986274,6.68654814 12.8664613,7.28636912 13.3457122,7.68624977 C13.824963,8.08613042 14.5438393,8.08613042 15.0230902,7.78621993 C17.6589699,5.68684651 17.6589699,2.28786098 15.0230902,0.288457726 Z" id="Shape"></path>
                    <path d="M19.95,13.6111111 L11.55,13.6111111 L11.55,5.90555556 C12.18,5.58888889 12.6,4.85 12.6,4.11111111 C12.6,2.95 11.655,2 10.5,2 C9.345,2 8.4,2.95 8.4,4.11111111 C8.4,4.85 8.82,5.58888889 9.45,5.90555556 L9.45,13.6111111 L1.05,13.6111111 C0.42,13.6111111 0,14.1388889 0,14.6666667 L0,18.8888889 C0,19.4166667 0.42,19.9444444 1.05,19.9444444 L2.1,19.9444444 L2.1,21 L5.25,21 L5.25,19.9444444 L15.75,19.9444444 L15.75,21 L18.9,21 L18.9,19.9444444 L19.95,19.9444444 C20.475,19.9444444 21,19.4166667 21,18.8888889 L21,14.6666667 C21,14.1388889 20.475,13.6111111 19.95,13.6111111 Z M3.15,17.8333333 C2.625,17.8333333 2.1,17.3055556 2.1,16.7777778 C2.1,16.25 2.625,15.7222222 3.15,15.7222222 C3.78,15.7222222 4.2,16.25 4.2,16.7777778 C4.2,17.4111111 3.675,17.8333333 3.15,17.8333333 Z M7.35,17.8333333 C6.72,17.8333333 6.3,17.3055556 6.3,16.7777778 C6.3,16.25 6.72,15.7222222 7.35,15.7222222 C7.875,15.7222222 8.4,16.25 8.4,16.7777778 C8.4,17.4111111 7.875,17.8333333 7.35,17.8333333 Z M17.85,17.8333333 L10.5,17.8333333 L10.5,15.7222222 L17.85,15.7222222 L17.85,17.8333333 Z" id="Shape"></path>
                </g>
            </g>
        </g>
    </g>
</svg>