<?xml version="1.0" encoding="UTF-8"?>
<svg width="85px" height="89px" viewBox="0 0 85 89" version="1.1" xmlns="http://www.w3.org/2000/svg" xmlns:xlink="http://www.w3.org/1999/xlink">
    <!-- Generator: Sketch 48.2 (47327) - http://www.bohemiancoding.com/sketch -->
    <title>Group 4</title>
    <desc>Created with Sketch.</desc>
    <defs></defs>
    <g id="Partner-Sign-up" stroke="none" stroke-width="1" fill="none" fill-rule="evenodd" transform="translate(-178.000000, -418.000000)">
        <g id="Group-4" transform="translate(178.000000, 418.000000)" fill="#004DB7" fill-rule="nonzero">
            <path d="M44.375,84.135 C45.3216667,84.49 46.0316667,84.3716667 46.86,83.8983333 C47.925,83.3066667 48.0433333,82.2416667 47.215,81.295 C46.6233333,80.7033333 46.0316667,80.1116667 45.44,79.52 C44.6116667,78.5733333 44.6116667,77.5083333 45.44,76.68 C46.2683333,75.8516667 47.3333333,75.8516667 48.1616667,76.68 C48.7533333,77.2716667 49.345,77.9816667 50.055,78.455 C50.5283333,78.81 51.2383333,79.0466667 51.83,79.0466667 C53.25,78.9283333 54.1966667,77.9816667 54.67,76.7983333 C55.025,75.97 54.9066667,75.1416667 54.1966667,74.4316667 C53.605,73.9583333 53.1316667,73.3666667 52.54,72.775 C51.5933333,71.8283333 51.5933333,70.7633333 52.3033333,69.935 C53.1316667,69.1066667 54.1966667,69.1066667 55.2616667,70.0533333 C55.8533333,70.5266667 56.445,71.1183333 56.9183333,71.5916667 C57.51,72.1833333 58.22,72.3016667 59.0483333,72.1833333 C60.4683333,71.8283333 61.415,70.7633333 61.77,69.3433333 C62.0066667,68.6333333 61.77,67.9233333 61.1783333,67.3316667 C60.5866667,66.74 59.995,66.1483333 59.4033333,65.5566667 C58.575,64.61 58.575,63.545 59.4033333,62.7166667 C60.2316667,61.8883333 61.2966667,62.0066667 62.125,62.835 C62.5983333,63.3083333 63.0716667,63.7816667 63.6633333,64.3733333 C65.2016667,65.7933333 68.0416667,65.0833333 68.6333333,63.0716667 C68.9883333,61.8883333 68.87,60.705 68.0416667,59.7583333 C62.2433333,53.3683333 56.5633333,46.86 50.765,40.47 C50.6466667,40.3516667 50.6466667,40.3516667 50.41,40.2333333 C48.8716667,41.535 47.215,42.955 45.6766667,44.2566667 C44.73,45.085 43.7833333,46.0316667 42.7183333,46.86 C37.1566667,51.475 29.11,49.1083333 26.8616667,42.245 C26.5066667,41.18 26.5066667,40.47 27.4533333,39.5233333 C30.4116667,36.8016667 33.2516667,33.9616667 36.0916667,31.24 C36.3283333,31.0033333 36.6833333,30.885 36.92,30.7666667 C36.8016667,30.6483333 36.8016667,30.53 36.6833333,30.4116667 C36.3283333,30.4116667 35.855,30.4116667 35.5,30.4116667 C28.8733333,30.6483333 22.2466667,29.82 15.62,29.11 C12.6616667,28.8733333 9.82166667,28.5183333 6.86333333,28.2816667 C5.08833333,28.1633333 4.14166667,27.335 4.26,26.0333333 C4.37833333,24.7316667 5.44333333,24.14 7.33666667,24.3766667 C12.78,24.9683333 18.105,25.56 23.5483333,26.0333333 C28.4,26.3883333 33.37,26.3883333 38.2216667,26.625 C39.8783333,26.7433333 41.18,26.5066667 42.6,25.3233333 C44.2566667,23.9033333 46.505,23.43 48.7533333,23.43 C52.185,23.43 55.735,23.5483333 59.1666667,23.3116667 C65.2016667,22.8383333 71.355,22.1283333 77.39,21.5366667 C77.9816667,21.5366667 78.455,21.4183333 79.0466667,21.4183333 C80.23,21.4183333 81.0583333,22.1283333 81.1766667,23.1933333 C81.295,24.2583333 80.4666667,25.205 79.4016667,25.3233333 C75.0233333,25.7966667 70.645,26.1516667 66.2666667,26.625 C60.4683333,27.335 54.67,27.335 48.8716667,27.335 C47.0966667,27.335 45.44,27.9266667 44.02,29.3466667 C39.9966667,33.37 35.855,37.275 31.7133333,41.18 C31.0033333,41.7716667 31.1216667,42.245 31.595,42.8366667 C33.6066667,45.795 37.7483333,46.15 40.7066667,43.5466667 C42.955,41.6533333 45.2033333,39.76 47.3333333,37.7483333 C49.1083333,36.0916667 51.12,35.3816667 53.4866667,35.7366667 C54.4333333,35.855 55.38,35.855 56.2083333,35.855 C57.51,35.855 58.22,36.565 58.3383333,37.7483333 C58.3383333,38.8133333 57.6283333,39.6416667 56.445,39.76 C56.3266667,39.76 56.2083333,39.76 55.8533333,39.8783333 C60.5866667,45.085 65.2016667,50.2916667 69.8166667,55.6166667 C70.7633333,54.5516667 71.9466667,53.605 72.6566667,52.4216667 C74.6683333,49.2266667 77.39,47.925 81.0583333,48.3983333 C81.4133333,48.3983333 81.7683333,48.3983333 82.2416667,48.3983333 C83.3066667,48.5166667 84.2533333,49.345 84.2533333,50.41 C84.2533333,51.3566667 83.425,52.185 82.2416667,52.3033333 C81.1766667,52.3033333 79.9933333,52.185 78.9283333,52.3033333 C78.3366667,52.4216667 77.745,52.6583333 77.39,53.1316667 C75.8516667,54.7883333 74.3133333,56.5633333 72.8933333,58.22 C72.6566667,58.4566667 72.5383333,58.93 72.6566667,59.285 C74.4316667,64.7283333 70.8816667,68.515 66.74,68.9883333 C66.5033333,68.9883333 66.1483333,69.3433333 66.1483333,69.58 C65.32,73.3666667 63.19,75.4966667 59.285,76.2066667 C59.0483333,78.1 58.3383333,79.7566667 56.9183333,81.0583333 C55.735,82.1233333 54.4333333,82.8333333 52.895,83.07 C52.4216667,83.1883333 52.0666667,83.3066667 51.9483333,83.8983333 C50.8833333,87.5666667 46.3866667,89.5783333 42.955,87.685 C42.4816667,87.4483333 42.1266667,87.33 41.535,87.685 C38.34,89.3416667 34.5533333,88.04 32.8966667,84.845 C32.7783333,84.49 32.305,84.2533333 32.0683333,84.135 C28.8733333,83.3066667 26.7433333,81.4133333 26.0333333,78.2183333 C25.915,77.9816667 25.6783333,77.6266667 25.4416667,77.6266667 C22.2466667,76.7983333 20.235,74.905 19.4066667,71.5916667 C19.4066667,71.355 19.0516667,71 18.815,71 C13.135,70.1716667 10.0583333,62.9533333 15.0283333,58.22 C15.0283333,58.22 15.0283333,58.22 15.0283333,57.9833333 C14.6733333,57.9833333 14.3183333,57.9833333 14.0816667,57.9833333 C10.5316667,57.9833333 6.86333333,57.9833333 3.31333333,57.9833333 C2.36666667,57.9833333 1.53833333,57.7466667 1.18333333,56.9183333 C0.473333333,55.6166667 1.42,54.0783333 2.84,54.0783333 C7.1,54.0783333 11.36,54.0783333 15.7383333,54.0783333 C17.04,54.0783333 18.105,54.7883333 18.9333333,55.735 C19.17,55.9716667 19.6433333,56.3266667 19.9983333,56.3266667 C23.9033333,56.445 26.625,58.6933333 27.4533333,62.48 C27.4533333,62.5983333 27.5716667,62.7166667 27.5716667,62.835 C28.4,63.0716667 29.11,63.3083333 29.9383333,63.6633333 C32.1866667,64.7283333 33.6066667,66.385 34.08,68.7516667 C34.1983333,69.3433333 34.435,69.58 35.145,69.6983333 C38.1033333,70.4083333 39.9966667,72.3016667 40.825,75.26 C40.9433333,75.8516667 41.18,76.2066667 41.7716667,76.4433333 C44.1383333,77.8633333 45.3216667,80.7033333 44.375,84.135 Z M19.9983333,60.35 C17.8683333,60.35 16.0933333,62.0066667 16.33,64.0183333 C16.4483333,66.1483333 18.46,67.5683333 20.7083333,67.3316667 C22.4833333,67.095 23.43,67.9233333 23.1933333,69.6983333 C22.8383333,72.1833333 24.85,74.195 27.335,73.84 C29.3466667,73.485 30.175,74.4316667 29.82,76.325 C29.465,78.5733333 31.24,80.4666667 33.4883333,80.3483333 C35.2633333,80.23 35.855,80.8216667 36.0916667,82.4783333 C36.21,83.425 36.6833333,84.0166667 37.5116667,84.3716667 C38.4583333,84.7266667 39.405,84.6083333 40.2333333,83.8983333 C40.9433333,83.1883333 41.4166667,82.36 41.0616667,81.295 C40.7066667,80.23 39.8783333,79.875 38.9316667,79.6383333 C37.63,79.4016667 36.92,78.6916667 36.92,77.5083333 C37.1566667,74.7866667 35.145,73.0116667 32.5416667,73.485 C31.0033333,73.84 29.9383333,72.775 30.175,71.1183333 C30.53,68.2783333 28.6366667,66.385 25.7966667,66.8583333 C24.14,67.095 23.075,66.1483333 23.43,64.4916667 C23.785,62.3616667 22.2466667,60.35 19.9983333,60.35 Z" id="Shape"></path>
            <path d="M48.1616667,15.3833333 C46.7416667,15.3833333 45.795,14.2 46.15,12.8983333 C47.4516667,9.34833333 48.7533333,5.79833333 50.055,2.13 C50.41,1.065 51.5933333,0.591666667 52.54,0.946666667 C53.4866667,1.30166667 54.0783333,2.485 53.7233333,3.55 C52.4216667,7.1 51.2383333,10.5316667 49.9366667,14.0816667 C49.5816667,14.91 48.99,15.3833333 48.1616667,15.3833333 Z" id="Shape"></path>
            <path d="M23.075,17.6316667 C23.075,18.6966667 22.4833333,19.525 21.655,19.6433333 C20.7083333,19.88 19.9983333,19.6433333 19.525,18.815 C18.3416667,16.685 17.04,14.4366667 15.975,12.3066667 C15.5016667,11.36 15.8566667,10.1766667 16.8033333,9.70333333 C17.6316667,9.23 18.815,9.46666667 19.4066667,10.4133333 C20.59,12.5433333 21.7733333,14.6733333 22.9566667,16.8033333 C22.9566667,17.1583333 23.075,17.5133333 23.075,17.6316667 Z" id="Shape"></path>
            <path d="M36.4466667,15.3833333 C35.6183333,15.3833333 34.9083333,14.91 34.5533333,14.0816667 C33.8433333,12.3066667 33.2516667,10.5316667 32.5416667,8.75666667 C32.1866667,7.69166667 32.66,6.62666667 33.725,6.15333333 C34.6716667,5.79833333 35.7366667,6.27166667 36.21,7.33666667 C36.92,9.11166667 37.63,10.8866667 38.2216667,12.6616667 C38.695,14.0816667 37.7483333,15.3833333 36.4466667,15.3833333 Z" id="Shape"></path>
            <path d="M64.255,14.6733333 C64.3733333,14.6733333 64.8466667,14.7916667 65.2016667,15.0283333 C66.2666667,15.7383333 66.2666667,17.2766667 64.965,19.0516667 C64.255,19.88 63.0716667,20.1166667 62.125,19.4066667 C62.0066667,19.2883333 61.77,19.0516667 61.6516667,18.9333333 C60.9416667,17.75 61.77,16.9216667 62.2433333,15.975 C62.48,15.0283333 63.0716667,14.6733333 64.255,14.6733333 Z" id="Shape"></path>
            <path d="M68.7516667,11.5966667 C68.7516667,12.6616667 67.805,13.49 66.74,13.49 C65.675,13.49 64.7283333,12.5433333 64.7283333,11.4783333 C64.7283333,10.4133333 65.675,9.46666667 66.74,9.46666667 C67.805,9.585 68.7516667,10.5316667 68.7516667,11.5966667 Z" id="Shape"></path>
            <path d="M34.435,2.84 C34.435,3.905 33.4883333,4.73333333 32.4233333,4.73333333 C31.3583333,4.73333333 30.4116667,3.78666667 30.53,2.72166667 C30.53,1.65666667 31.4766667,0.828333333 32.5416667,0.828333333 C33.6066667,0.828333333 34.435,1.775 34.435,2.84 Z" id="Shape"></path>
        </g>
    </g>
</svg>