<?xml version="1.0" encoding="UTF-8"?>
<svg width="86px" height="97px" viewBox="0 0 86 97" version="1.1" xmlns="http://www.w3.org/2000/svg" xmlns:xlink="http://www.w3.org/1999/xlink">
    <!-- Generator: Sketch 48.2 (47327) - http://www.bohemiancoding.com/sketch -->
    <title>Group</title>
    <desc>Created with Sketch.</desc>
    <defs></defs>
    <g id="Partner-Sign-up" stroke="none" stroke-width="1" fill="none" fill-rule="evenodd" transform="translate(-646.000000, -414.000000)">
        <g id="Group" transform="translate(646.000000, 414.000000)" fill-rule="nonzero">
            <path d="M44.8117488,97 C39.0817219,95.0893939 33.4986187,93.1787879 27.7685918,91.2681818 C25.4178116,90.3863636 22.9201076,90.8272727 20.5693273,90.680303 C20.5693273,91.8560606 20.5693273,92.8848485 20.5693273,93.9136364 C14.9862242,93.9136364 9.40312105,93.9136364 3.82001793,93.9136364 C3.82001793,93.3257576 3.82001793,92.5909091 3.82001793,91.8560606 C8.66850222,91.8560606 13.3700627,91.8560606 18.218547,91.8560606 C18.218547,83.1848485 18.218547,74.6606061 18.218547,65.9893939 C12.1946726,65.9893939 6.17079819,65.9893939 0,65.9893939 C0,65.2545455 0,64.519697 0,63.7848485 C6.75849325,63.7848485 13.6639103,63.7848485 20.5693273,63.7848485 C20.5693273,64.8136364 20.5693273,65.8424242 20.5693273,67.0181818 C23.0670313,67.0181818 25.5647354,67.0181818 27.9155156,67.0181818 C30.4132196,67.0181818 32.7639999,67.4590909 35.1147802,68.7818182 C34.0863138,59.3757576 33.0578474,50.1166667 32.0293811,40.8575758 C31.0009147,40.8575758 29.8255246,40.8575758 28.7970582,40.8575758 C28.7970582,37.7712121 28.7970582,34.6848485 28.7970582,31.5984848 C37.3186367,31.5984848 45.6932913,31.5984848 54.2148698,31.5984848 C54.2148698,29.8348485 54.2148698,28.2181818 54.2148698,26.4545455 C53.9210223,26.6015152 53.6271747,26.7484848 53.3333272,26.8954545 C51.570242,27.3363636 49.8071568,28.0712121 48.0440716,28.2181818 C43.9302062,28.8060606 40.6978833,27.1893939 38.4940268,23.9560606 C37.3186367,22.1924242 36.4370941,20.1348485 35.4086277,18.0772727 C35.2617039,17.930303 35.4086277,17.4893939 35.5555515,17.3424242 C38.7878743,15.2848485 42.4609685,14.2560606 46.2809864,14.8439394 C48.7786904,15.2848485 50.5417756,16.6075758 52.1579371,18.5181818 C52.8925559,19.4 53.480251,20.4287879 54.2148698,21.3106061 C54.2148698,20.2818182 54.2148698,19.4 54.2148698,18.5181818 C54.067946,15.7257576 54.3617936,12.9333333 55.0964124,10.2878788 C56.8594976,4.40909091 61.1202868,1.17575758 66.9972375,0.293939394 C69.3480177,0 71.8457218,0.146969697 74.196502,0 C74.3434258,0 74.6372733,0.146969697 74.7841971,0.146969697 C75.0780446,3.67424242 75.0780446,7.05454545 74.0495783,10.4348485 C72.2864931,16.3136364 68.1726276,19.4 62.295677,20.4287879 C60.385668,20.7227273 58.475659,20.869697 56.5656501,21.0166667 C56.5656501,24.3969697 56.5656501,27.7772727 56.5656501,31.3045455 C65.0872285,31.3045455 73.4618832,31.3045455 81.9834616,31.3045455 C81.9834616,34.3909091 81.9834616,37.4772727 81.9834616,40.5636364 C80.9549953,40.5636364 79.9265289,40.5636364 78.7511388,40.5636364 C77.5757487,50.9984848 76.5472823,61.2863636 75.3718922,71.8681818 C76.4003585,71.4272727 77.4288249,70.9863636 78.3103675,70.5454545 C79.4857576,69.9575758 80.6611478,69.6636364 81.9834616,69.9575758 C84.1873181,70.3984848 85.6565558,72.0151515 85.9504033,74.219697 C86.2442509,76.2772727 85.2157845,78.4818182 83.3057755,79.3636364 C74.6372733,83.919697 65.9687711,88.4757576 57.3002689,93.0318182 C54.6556411,94.3545455 52.0110133,95.530303 49.3663855,96.8530303 C48.0440716,97 46.4279102,97 44.8117488,97 Z M76.6942061,40.7106061 C62.5895245,40.7106061 48.4848429,40.7106061 34.3801613,40.7106061 C34.5270851,41.4454545 34.5270851,42.180303 34.6740089,42.9151515 C35.5555515,51.5863636 36.4370941,60.4045455 37.4655604,69.0757576 C37.4655604,69.369697 37.9063317,69.8106061 38.2001793,70.1045455 C39.8163407,70.9863636 41.5794259,71.7212121 43.3425111,72.6030303 C43.7832824,72.75 44.3709775,72.8969697 44.8117488,72.8969697 C48.7786904,72.8969697 52.5987084,72.8969697 56.5656501,72.8969697 C59.3572016,72.8969697 61.2672106,74.8075758 61.4141344,77.6 C61.4141344,77.7469697 61.4141344,78.0409091 61.4141344,78.1878788 C61.5610581,78.1878788 61.7079819,78.1878788 61.7079819,78.0409091 C65.381076,76.4242424 69.201094,74.8075758 72.8741881,73.1909091 C73.1680357,73.0439394 73.4618832,72.6030303 73.4618832,72.1621212 C73.7557307,70.2515152 73.9026545,68.3409091 74.0495783,66.430303 C74.7841971,59.5227273 75.5188159,52.7621212 76.2534348,45.8545455 C76.4003585,44.2378788 76.5472823,42.6212121 76.6942061,40.7106061 Z M20.5693273,88.3287879 C21.7447174,88.3287879 22.7731838,88.3287879 23.8016502,88.3287879 C25.1239641,88.4757576 26.446278,88.3287879 27.7685918,88.769697 C33.2047712,90.5333333 38.4940268,92.2969697 43.9302062,94.0606061 C46.7217577,95.0893939 49.5133093,94.7954545 52.1579371,93.3257576 C62.0018294,88.1818182 71.9926455,83.0378788 81.9834616,77.7469697 C82.5711567,77.4530303 83.011928,77.1590909 83.4526993,76.7181818 C84.1873181,75.8363636 84.6280894,74.8075758 84.1873181,73.7787879 C83.7465468,72.75 82.8650042,72.1621212 81.8365379,72.0151515 C81.2488428,72.0151515 80.6611478,72.1621212 80.0734527,72.3090909 C73.1680357,75.3954545 66.1156949,78.4818182 59.2102779,81.4212121 C58.3287353,81.8621212 57.1533451,82.0090909 56.2718025,82.0090909 C51.7171658,82.0090909 47.0156052,82.0090909 42.4609685,82.0090909 C41.1386546,82.0090909 40.1101882,82.45 39.5224932,83.7727273 C39.5224932,83.919697 39.2286456,84.0666667 39.0817219,84.0666667 C38.4940268,84.0666667 37.9063317,84.0666667 37.3186367,84.0666667 C37.3186367,81.7151515 39.5224932,79.6575758 42.0201972,79.6575758 C46.8686815,79.6575758 51.7171658,79.6575758 56.5656501,79.6575758 C58.1818115,79.6575758 59.3572016,78.4818182 59.3572016,77.0121212 C59.3572016,75.3954545 58.3287353,74.5136364 56.5656501,74.5136364 C52.5987084,74.5136364 48.4848429,74.5136364 44.5179012,74.5136364 C44.0771299,74.5136364 43.4894349,74.3666667 43.0486636,74.219697 C39.9632645,72.75 37.0247891,71.280303 33.93939,69.9575758 C32.7639999,69.5166667 31.5886098,68.9287879 30.4132196,68.9287879 C27.7685918,68.7818182 25.1239641,68.7818182 22.3324125,68.6348485 C21.8916412,68.6348485 21.4508699,68.6348485 21.0100986,68.6348485 C20.5693273,75.5424242 20.5693273,81.8621212 20.5693273,88.3287879 Z M31.0009147,38.3590909 C47.3094528,38.3590909 63.6179908,38.3590909 79.7796052,38.3590909 C79.7796052,36.7424242 79.7796052,35.1257576 79.7796052,33.6560606 C63.4710671,33.6560606 47.162529,33.6560606 31.0009147,33.6560606 C31.0009147,35.2727273 31.0009147,36.7424242 31.0009147,38.3590909 Z M57.4471927,18.6651515 C62.1487532,18.5181818 66.4095424,18.0772727 69.6418653,14.55 C72.8741881,11.0227273 73.1680357,6.76060606 73.0211119,2.20454545 C69.6418653,2.05757576 66.5564662,2.49848485 63.6179908,3.67424242 C59.2102779,5.58484848 56.8594976,9.8469697 56.7125738,15.2848485 C59.0633541,12.1984848 61.5610581,9.7 64.9403047,8.08333333 C65.381076,8.81818182 65.6749236,9.40606061 65.9687711,9.99393939 C62.4426007,12.0515152 59.6510492,14.8439394 57.4471927,18.6651515 Z M37.9063317,18.5181818 C40.6978833,25.719697 45.8402151,27.9242424 52.4517846,24.5439394 C50.1010043,22.9272727 47.4563765,22.0454545 44.8117488,21.7515152 C44.8117488,21.0166667 44.8117488,20.4287879 44.8117488,19.5469697 C47.162529,20.2818182 49.3663855,20.869697 51.570242,21.6045455 C48.6317667,16.3136364 43.7832824,15.5787879 37.9063317,18.5181818 Z" id="Shape" fill="#417505"></path>
            <path d="M8,88 C8,87.3333333 8,86.6666667 8,86 C8.66666667,86 9.33333333,86 10,86 C10,86.6666667 10,87.3333333 10,88 C9.33333333,88 8.66666667,88 8,88 Z" id="Shape" fill="#000000"></path>
            <path d="M12,88 C12,87.3333333 12,86.6666667 12,86 C12.6666667,86 13.3333333,86 14,86 C14,86.6666667 14,87.3333333 14,88 C13.3333333,88 12.6666667,88 12,88 Z" id="Shape" fill="#000000"></path>
        </g>
    </g>
</svg>