<?xml version="1.0" encoding="UTF-8"?>
<svg width="91px" height="86px" viewBox="0 0 91 86" version="1.1" xmlns="http://www.w3.org/2000/svg" xmlns:xlink="http://www.w3.org/1999/xlink">
    <!-- Generator: Sketch 48.2 (47327) - http://www.bohemiancoding.com/sketch -->
    <title>Group</title>
    <desc>Created with Sketch.</desc>
    <defs></defs>
    <g id="Partner-Sign-up" stroke="none" stroke-width="1" fill="none" fill-rule="evenodd" transform="translate(-1086.000000, -419.000000)">
        <g id="Group" transform="translate(1086.000000, 419.000000)" fill-rule="nonzero">
            <path d="M28.5625,9.809375 C28.5625,8.196875 28.5625,6.71875 28.5625,5.375 C28.5625,2.553125 30.578125,0.403125 33.265625,0.403125 C35.953125,0.403125 37.96875,2.41875 37.96875,5.375 C37.96875,6.853125 37.96875,8.196875 37.96875,9.809375 C47.240625,9.809375 56.24375,9.809375 65.515625,9.809375 C65.515625,8.33125 65.515625,6.71875 65.515625,5.240625 C65.515625,2.821875 67.128125,0.940625 69.4125,0.5375 C72.1,-1.88737914e-14 74.7875,2.015625 74.921875,4.703125 C75.05625,6.315625 74.921875,8.0625 74.921875,9.809375 C75.8625,9.809375 76.803125,9.809375 77.609375,9.809375 C79.35625,9.94375 81.2375,9.809375 82.85,10.078125 C87.284375,11.01875 90.375,14.915625 90.509375,19.61875 C90.509375,33.996875 90.509375,48.375 90.509375,62.753125 C90.509375,68.396875 86.075,72.5625 80.43125,72.5625 C66.053125,72.5625 51.675,72.5625 37.296875,72.5625 C36.490625,72.5625 36.0875,72.696875 35.684375,73.6375 C32.728125,81.43125 24.934375,86 16.603125,85.19375 C8.40625,84.253125 1.821875,77.9375 0.478125,69.60625 C-0.73125,61.140625 3.971875,52.94375 11.9,49.853125 C12.70625,49.584375 12.840625,49.18125 12.840625,48.375 C12.840625,38.834375 12.840625,29.428125 12.840625,19.8875 C12.840625,14.915625 15.796875,11.01875 20.5,9.94375 C21.575,9.675 22.515625,9.675 23.590625,9.675 C25.203125,9.809375 26.815625,9.809375 28.5625,9.809375 Z M23.725,48.9125 C23.725,48.64375 23.725,48.240625 23.725,47.8375 C23.725,41.521875 23.725,35.071875 23.725,28.75625 C23.725,26.471875 23.99375,26.203125 26.14375,26.203125 C43.34375,26.203125 60.409375,26.203125 77.609375,26.203125 C79.625,26.203125 79.89375,26.471875 79.89375,28.4875 C79.89375,39.2375 79.89375,49.9875 79.89375,60.7375 C79.89375,62.8875 79.625,63.15625 77.475,63.15625 C64.440625,63.15625 51.40625,63.15625 38.2375,63.15625 C37.7,63.15625 37.1625,63.15625 36.759375,63.15625 C36.759375,65.440625 36.759375,67.590625 36.759375,69.740625 C37.028125,69.740625 37.296875,69.875 37.565625,69.875 C51.94375,69.875 66.321875,69.875 80.7,69.875 C84.596875,69.875 87.6875,66.784375 87.6875,62.753125 C87.6875,48.509375 87.6875,34.265625 87.6875,19.8875 C87.6875,16.39375 85.403125,13.4375 82.04375,12.9 C79.759375,12.63125 77.475,12.9 74.921875,12.9 C74.921875,13.70625 74.921875,14.378125 74.921875,15.05 C74.921875,15.721875 74.921875,16.528125 74.921875,17.2 C74.7875,19.215625 73.578125,20.828125 71.696875,21.365625 C68.60625,22.30625 65.65,20.15625 65.515625,16.796875 C65.515625,15.453125 65.515625,14.109375 65.515625,12.765625 C56.24375,12.765625 47.10625,12.765625 37.834375,12.765625 C37.834375,14.109375 37.834375,15.31875 37.834375,16.528125 C37.834375,19.484375 35.81875,21.634375 33.13125,21.634375 C30.44375,21.634375 28.428125,19.484375 28.428125,16.6625 C28.428125,15.453125 28.428125,14.109375 28.428125,12.765625 C26.68125,12.765625 25.06875,12.765625 23.590625,12.765625 C18.484375,12.765625 15.6625,15.5875 15.6625,20.69375 C15.6625,29.5625 15.6625,38.565625 15.6625,47.434375 C15.6625,47.8375 15.6625,48.240625 15.6625,48.509375 C18.35,48.64375 20.903125,48.778125 23.725,48.9125 Z M34.071875,66.784375 C34.071875,58.05 27.21875,51.33125 18.484375,51.33125 C10.01875,51.33125 3.165625,58.184375 3.165625,66.784375 C3.165625,75.51875 10.153125,82.371875 18.753125,82.371875 C27.21875,82.371875 34.071875,75.384375 34.071875,66.784375 Z M39.85,60.2 C43.34375,60.2 46.703125,60.2 50.0625,60.2 C50.0625,55.496875 50.0625,50.79375 50.0625,46.225 C46.56875,46.225 43.209375,46.225 39.85,46.225 C39.85,50.79375 39.85,55.496875 39.85,60.2 Z M53.2875,46.090625 C53.2875,50.79375 53.2875,55.496875 53.2875,60.2 C56.78125,60.2 60.140625,60.2 63.634375,60.2 C63.634375,55.496875 63.634375,50.79375 63.634375,46.090625 C60.00625,46.090625 56.646875,46.090625 53.2875,46.090625 Z M66.45625,60.2 C69.95,60.2 73.309375,60.2 76.803125,60.2 C76.803125,55.496875 76.803125,50.79375 76.803125,46.090625 C73.309375,46.090625 69.95,46.090625 66.45625,46.090625 C66.45625,50.79375 66.45625,55.496875 66.45625,60.2 Z M26.546875,43.134375 C30.040625,43.134375 33.4,43.134375 36.89375,43.134375 C36.89375,38.43125 36.89375,33.728125 36.89375,29.159375 C33.4,29.159375 30.040625,29.159375 26.546875,29.159375 C26.546875,33.728125 26.546875,38.296875 26.546875,43.134375 Z M50.0625,43.134375 C50.0625,38.43125 50.0625,33.728125 50.0625,29.025 C46.56875,29.025 43.209375,29.025 39.85,29.025 C39.85,33.728125 39.85,38.43125 39.85,43.134375 C43.34375,43.134375 46.703125,43.134375 50.0625,43.134375 Z M53.153125,43.134375 C56.646875,43.134375 60.00625,43.134375 63.5,43.134375 C63.5,38.43125 63.5,33.728125 63.5,29.159375 C60.00625,29.159375 56.646875,29.159375 53.153125,29.159375 C53.153125,33.728125 53.153125,38.296875 53.153125,43.134375 Z M66.45625,29.025 C66.45625,33.728125 66.45625,38.43125 66.45625,43 C69.95,43 73.309375,43 76.803125,43 C76.803125,38.296875 76.803125,33.728125 76.803125,29.025 C73.309375,29.025 69.95,29.025 66.45625,29.025 Z M36.490625,60.46875 C36.625,60.334375 36.759375,60.2 36.89375,60.065625 C36.89375,55.3625 36.89375,50.79375 36.89375,46.090625 C33.4,46.090625 30.040625,46.090625 26.546875,46.090625 C26.546875,47.3 26.546875,48.375 26.546875,49.45 C26.546875,49.853125 26.95,50.390625 27.21875,50.525 C30.98125,52.540625 33.66875,55.496875 35.415625,59.259375 C35.55,59.796875 36.0875,60.065625 36.490625,60.46875 Z M71.965625,11.01875 C71.965625,9.1375 71.965625,7.121875 71.965625,5.240625 C71.965625,4.03125 71.159375,3.225 70.21875,3.225 C69.14375,3.225 68.471875,3.896875 68.471875,5.10625 C68.471875,9.003125 68.471875,12.9 68.471875,16.6625 C68.471875,17.871875 69.278125,18.678125 70.353125,18.54375 C71.29375,18.54375 71.965625,17.7375 71.965625,16.528125 C72.1,14.78125 71.965625,12.9 71.965625,11.01875 Z M31.51875,10.884375 C31.51875,10.884375 31.51875,10.884375 31.51875,10.884375 C31.51875,12.9 31.51875,14.78125 31.51875,16.796875 C31.51875,18.00625 32.325,18.678125 33.265625,18.678125 C34.340625,18.678125 35.0125,17.871875 35.0125,16.796875 C35.0125,13.034375 35.0125,9.1375 35.0125,5.375 C35.0125,4.165625 34.340625,3.359375 33.265625,3.359375 C32.190625,3.359375 31.51875,4.03125 31.51875,5.509375 C31.51875,7.121875 31.51875,9.003125 31.51875,10.884375 Z" id="Shape" fill="#FF6100"></path>
            <path d="M18.484375,64.903125 C20.096875,63.290625 21.709375,61.678125 23.1875,60.2 C24.128125,59.259375 25.06875,59.125 25.740625,59.796875 C26.278125,60.46875 26.14375,61.275 25.203125,62.215625 C23.45625,63.9625 21.709375,65.709375 19.9625,67.45625 C18.753125,68.53125 18.08125,68.665625 17.00625,67.45625 C15.259375,65.709375 13.378125,63.828125 11.63125,62.08125 C10.959375,61.409375 10.690625,60.603125 11.3625,59.796875 C11.9,59.125 12.840625,59.259375 13.646875,60.065625 C15.39375,61.678125 16.871875,63.290625 18.484375,64.903125 Z" id="Shape" fill="#000000"></path>
        </g>
    </g>
</svg>